<?xml version="1.0" encoding="utf-8"?>
<!-- Generator: Adobe Illustrator 26.3.1, SVG Export Plug-In . SVG Version: 6.00 Build 0)  -->
<svg version="1.1" id="Layer_1" xmlns="http://www.w3.org/2000/svg" xmlns:xlink="http://www.w3.org/1999/xlink" x="0px" y="0px"
	 viewBox="0 0 94 94" style="enable-background:new 0 0 94 94;" xml:space="preserve">
<style type="text/css">
	.st0{fill:#6F2A0D;}
	.st1{fill:#FBDBD6;}
</style>
<path class="st0" d="M68.7,79.2c3.8-3.6,6.3-8.3,7.1-13c8.3-2,14.8-7.5,17.3-14.6c1.8-5.5,0.9-10.9-2.5-14.9l0,0
	c-4.3-5.1-9.1-4.3-13.9-3.5c-2.4,0.4-5,0.8-7.6,0.5c-0.4,0-0.7-0.1-1-0.1c1.3-1.8,2.3-3.8,2.9-5.9l1-5.6c0.1-5.5-2.3-10.2-6.5-13
	c-5.5-3.7-10-1.5-14.3,0.5c-2.2,1.1-4.5,2.2-7.1,2.6c-2.9,0.5-5.4,0.3-7.9,0.1c-5.1-0.5-9.9-0.9-14.6,5.6c-1.9,2.7-2.7,5.9-2.2,9.4
	c0.4,2.9,1.6,5.8,3.5,8.5c-1.2,1.1-2.4,2.1-3.9,3c-2.3,1.3-4.8,2-7.1,2.6c-4.7,1-9.5,2.2-11.3,8.6c-0.8,2.9-0.7,6,0.3,8.8l3,5.3
	c4,4.7,10.4,7.4,17.3,7.4c0.9,0,1.9-0.1,2.8-0.1c0.5,2,1.4,4,2.6,5.8c2.5,3.7,6.2,6.5,10.7,8.3c3.1,1.2,6.6,1.8,10.2,1.8
	c2.1,0,4.2-0.2,6.3-0.6c3.7-0.7,7.2-2,10.2-3.8L68.7,79.2z"/>
<path class="st1" d="M90.6,36.7L90.6,36.7c-4.3-5.1-9.1-4.3-13.9-3.5c-2.4,0.4-5,0.8-7.6,0.5c-0.4,0-0.7-0.1-1-0.1
	c1.3-1.8,2.3-3.8,2.9-5.9c0.2-0.7-0.2-1.5-0.9-1.7c-0.7-0.2-1.5,0.2-1.7,0.9c-0.7,2.1-1.8,4.2-3.2,6c-1.3-0.4-2.5-0.9-3.7-1.3
	c-4.7-1.8-9.1-3.6-15.2,1c-1.8-2-4-3.5-6.5-4.1c-7.7-2-11.1,1.4-14.8,5.1c-0.1,0.1-0.1,0.1-0.2,0.2c-3.3-4.8-3.7-10.5-1-14.4
	c3.6-5.1,7.1-4.9,11.8-4.5c0.1,2.2,0.7,3.9,2,5.1c1.6,1.4,3.7,1.8,5.8,1.7c0.7,0,1.4-0.1,2.1-0.2c3.7-0.6,6.1-2,7.2-4.1
	c0.8-1.6,0.9-3.4,0.2-5.5c4-1.9,7-3.2,11-0.5c3.4,2.3,5.3,6.2,5.3,10.7c0,0.8,0.6,1.4,1.4,1.4l0,0c0.8,0,1.4-0.6,1.4-1.4
	c0.1-5.5-2.3-10.2-6.5-13c-5.5-3.7-10-1.5-14.3,0.5c-2.2,1.1-4.5,2.2-7.1,2.6c-2.9,0.5-5.4,0.3-7.9,0.1c-5.1-0.5-9.9-0.9-14.6,5.6
	c-1.9,2.7-2.7,5.9-2.2,9.4c0.4,2.9,1.6,5.8,3.5,8.5c-1.2,1.1-2.4,2.1-3.9,3c-2.3,1.3-4.8,2-7.1,2.6c-4.7,1-9.5,2.2-11.3,8.6
	c-0.8,2.9-0.7,6,0.3,8.8c0.3,0.7,1.1,1.1,1.9,0.8c0.7-0.3,1-1.1,0.7-1.7c-0.8-2.3-0.9-4.8-0.2-7.1c1.4-4.6,4.5-5.6,8.7-6.7
	c0.8,2,2.1,3.4,3.7,4.1c0.7,0.3,1.5,0.4,2.3,0.4c1.7,0,3.7-0.6,5.9-1.9c3.1-1.8,4.8-3.9,5.1-6.2c0.2-1.7-0.3-3.5-1.7-5.2
	c3.3-3.4,5.8-5.7,11.9-4.1c3.2,0.8,5.7,3.2,7.2,6.6c2.1,4.9,1.7,11.1-1,16.4c-2.2,0.4-4.3,0.3-6.4,0.3c-4.8-0.1-9.7-0.3-13.3,5.3
	c-1.6,2.6-2.4,5.6-2.2,8.7c0,0,0,0,0,0.1c-7,0.7-13.6-1.7-17.6-6.3c-0.5-0.6-1.4-0.6-1.9-0.1c-0.6,0.5-0.6,1.4-0.1,1.9
	c4,4.7,10.4,7.4,17.3,7.4c0.9,0,1.9-0.1,2.8-0.1c0.5,2,1.4,4,2.6,5.8c2.5,3.7,6.2,6.5,10.7,8.3c3.1,1.2,6.6,1.8,10.2,1.8
	c2.1,0,4.2-0.2,6.3-0.6c3.7-0.7,7.2-2,10.2-3.8c0.7-0.4,0.9-1.2,0.5-1.9c-0.4-0.7-1.2-0.9-1.9-0.5c-2.7,1.6-5.8,2.8-9.3,3.4
	c-5.3,1-10.5,0.6-15-1.1c-4-1.5-7.2-4.1-9.4-7.3c-3.2-4.7-3.5-10-0.9-14.2c2.6-4.1,5.8-4.2,10.3-4.1c0.2,2.2,1.1,3.9,2.4,5
	c1.2,0.9,2.7,1.4,4.5,1.4c1.1,0,2.4-0.2,3.8-0.5c3.5-0.9,5.7-2.4,6.6-4.5c0.7-1.6,0.6-3.4-0.2-5.5c4.1-2.3,7.2-3.9,12.6-0.7
	c2.9,1.7,4.7,4.8,5.1,8.6c0.6,5.6-1.8,11.8-6.4,16.2c-0.6,0.5-0.6,1.4,0,2c0.5,0.6,1.4,0.6,2,0c3.8-3.6,6.3-8.3,7.1-13
	c8.3-2,14.8-7.5,17.3-14.6C94.9,46.1,94,40.7,90.6,36.7z M44.7,14.8c2.1-0.4,4.1-1.1,5.9-1.9c0.3,1,0.4,2.1-0.1,3
	c-0.7,1.3-2.5,2.2-5.2,2.7c-2.6,0.5-4.5,0.2-5.5-0.7c-0.7-0.6-1-1.5-1.1-2.8C40.4,15.2,42.4,15.2,44.7,14.8z M26.2,40.1
	c-0.2,1.4-1.5,2.8-3.8,4.1C20,45.6,18,46,16.7,45.5c-1-0.4-1.6-1.3-2.1-2.2c1.9-0.5,3.8-1.2,5.7-2.3s3.5-2.5,4.9-3.8
	C26,38.3,26.3,39.2,26.2,40.1z M62.9,35c1.8,0.6,3.8,1.2,6,1.5c2.2,0.2,4.2,0.1,6.2-0.2c0,1-0.2,2.1-1,2.9c-1,1.1-3,1.4-5.8,1.1
	c-2.7-0.3-4.4-1.1-5.1-2.3C62.7,37.2,62.6,36.2,62.9,35z M53.1,57.4c-0.6,1.3-2.2,2.3-4.8,2.9c-2.7,0.7-4.7,0.6-5.9-0.3
	c-0.8-0.6-1.2-1.7-1.4-2.7c1.9,0,4-0.1,6.1-0.6c2.2-0.5,4.1-1.4,5.7-2.3C53.4,55.5,53.4,56.6,53.1,57.4L53.1,57.4z M90.4,50.7
	c-2.1,5.9-7.5,10.6-14.4,12.6c0-0.9,0-1.7-0.1-2.6c-0.5-4.7-2.8-8.5-6.5-10.7c-6.9-4.1-11.1-1.7-15.6,0.8c-1.6,0.9-3.1,1.8-4.9,2.4
	c2.2-5.5,2.2-11.5,0-16.5c-0.3-0.6-0.6-1.3-0.9-1.8c4.8-3.7,8-2.5,12.3-0.8c-0.5,2.1-0.4,3.9,0.5,5.4c1.2,2,3.6,3.2,7.2,3.6
	c0.7,0.1,1.4,0.1,2,0.1c2.7,0,4.7-0.7,6-2.1c1.2-1.3,1.8-3.1,1.7-5.2c4.4-0.7,7.6-1.1,10.7,2.6C91.3,41.7,92,46.2,90.4,50.7z"/>
</svg>
