<?xml version="1.0" encoding="utf-8"?>
<!-- Generator: Adobe Illustrator 19.2.0, SVG Export Plug-In . SVG Version: 6.00 Build 0)  -->
<svg version="1.1" id="Layer_1" xmlns="http://www.w3.org/2000/svg" xmlns:xlink="http://www.w3.org/1999/xlink" x="0px" y="0px"
	 viewBox="0 0 94 94" style="enable-background:new 0 0 94 94;" xml:space="preserve"  fill="#8F6E01">
<title>Current Threats</title>
<g>
	<path d="M94,42.3c0-19-15.5-34.5-34.5-34.5c-0.3,0-0.6,0.1-0.8,0.2l-58,34.5c0,0,0,0-0.1,0c0,0,0,0,0,0c0,0-0.1,0.1-0.1,0.1
		c0,0,0,0,0,0c-0.1,0.1-0.1,0.1-0.2,0.2c0,0,0,0,0,0c0,0,0,0.1-0.1,0.1c0,0,0,0,0,0c0,0,0,0,0,0.1c0,0,0,0,0,0.1c0,0,0,0,0,0.1
		c0,0,0,0,0,0.1c0,0,0,0,0,0c0,0,0,0.1,0,0.2c0,0,0,0,0,0.1c0,0,0,0.1,0,0.1c0,0,0,0,0,0.1c0,0,0,0,0,0.1c0,0,0,0.1,0,0.1
		c0,0,0,0,0,0v12.5C0,57.3,0.7,58,1.6,58c3.5,0,6.3,2.8,6.3,6.3c0,3.5-2.8,6.3-6.3,6.3c-0.9,0-1.6,0.7-1.6,1.6v12.5
		c0,0.9,0.7,1.6,1.6,1.6h53.3c0.9,0,1.6-0.7,1.6-1.6c0-2.6,2.1-4.7,4.7-4.7c2.6,0,4.7,2.1,4.7,4.7c0,0.9,0.7,1.6,1.6,1.6h25.1
		c0.9,0,1.6-0.7,1.6-1.6V43.9c0,0,0,0,0,0V42.3z M60,11C77,11.2,90.9,25.2,90.9,42.3H7.3L60,11z M90.9,83L90.9,83H68.8
		c-0.7-3.6-3.9-6.3-7.7-6.3c-3.8,0-6.9,2.7-7.7,6.3H3.1v-9.5c4.4-0.7,7.8-4.6,7.8-9.3c0-4.6-3.4-8.5-7.8-9.3v-9.5h87.7V83z"/>
	<path d="M70.5,65.8c4.3,0,7.8-3.5,7.8-7.8c0-4.3-3.5-7.8-7.8-7.8c-4.3,0-7.8,3.5-7.8,7.8C62.7,62.3,66.2,65.8,70.5,65.8z
		 M70.5,53.3c2.6,0,4.7,2.1,4.7,4.7c0,2.6-2.1,4.7-4.7,4.7c-2.6,0-4.7-2.1-4.7-4.7C65.8,55.4,67.9,53.3,70.5,53.3z"/>
	<rect x="51.7" y="50.1" width="3.1" height="3.1"/>
	<rect x="14.1" y="65.8" width="3.1" height="3.1"/>
	<rect x="84.6" y="65.8" width="3.1" height="3.1"/>
	<rect x="34.5" y="56.4" width="3.1" height="3.1"/>
	<path d="M37.6,78.3c3.5,0,6.3-2.8,6.3-6.3c0-3.5-2.8-6.3-6.3-6.3c-3.5,0-6.3,2.8-6.3,6.3C31.3,75.5,34.1,78.3,37.6,78.3z
		 M37.6,68.9c1.7,0,3.1,1.4,3.1,3.1c0,1.7-1.4,3.1-3.1,3.1c-1.7,0-3.1-1.4-3.1-3.1C34.5,70.3,35.9,68.9,37.6,68.9z"/>
	<rect x="53.3" y="67.4" width="3.1" height="3.1"/>
	<path d="M23.5,59.5c2.6,0,4.7-2.1,4.7-4.7c0-2.6-2.1-4.7-4.7-4.7s-4.7,2.1-4.7,4.7C18.8,57.4,20.9,59.5,23.5,59.5z M23.5,53.3
		c0.9,0,1.6,0.7,1.6,1.6c0,0.9-0.7,1.6-1.6,1.6c-0.9,0-1.6-0.7-1.6-1.6C21.9,54,22.6,53.3,23.5,53.3z"/>
	<rect x="78.3" y="73.6" width="3.1" height="3.1"/>
</g>
</svg>
