<?xml version="1.0" encoding="utf-8"?>
<!-- Generator: Adobe Illustrator 19.2.0, SVG Export Plug-In . SVG Version: 6.00 Build 0)  -->
<svg version="1.1" id="Layer_1" xmlns="http://www.w3.org/2000/svg" xmlns:xlink="http://www.w3.org/1999/xlink" x="0px" y="0px"
	 viewBox="0 0 94 94" style="enable-background:new 0 0 94 94;" xml:space="preserve" fill="#805B36">
<g>
	<path d="M28.2,21.9c0-2.6-2.1-4.7-4.7-4.7c-2.6,0-4.7,2.1-4.7,4.7s2.1,4.7,4.7,4.7C26.1,26.6,28.2,24.5,28.2,21.9z M21.9,21.9
		c0-0.9,0.7-1.6,1.6-1.6c0.9,0,1.6,0.7,1.6,1.6c0,0.9-0.7,1.6-1.6,1.6C22.6,23.5,21.9,22.8,21.9,21.9z"/>
	<path d="M94,23.5v-1.6h-5.2C92,19.3,94,15.4,94,11V9.4H79.9c0,0,0,0,0,0c-11.1,0-21.3,6.5-26.1,16.4L47,40.2L36.1,17.3
		c-1-2.2-2.5-4-4.3-5.3c4.3-1.5,7.4-5.6,7.4-10.4c0-0.9-0.7-1.6-1.6-1.6h-7.8c-5.9,0-10.7,4.7-11,10.5c-1.2,0.5-2.4,1.3-3.4,2.2
		c-1.5,1.3-2.6,2.9-3.4,4.7c0,0-0.1,0-0.1,0l-11,4.7C0.4,22.3,0,22.9,0,23.5c0,0.6,0.4,1.2,0.9,1.4L9,28.4l-5.5,3.1
		C1.4,32.8,0,35.1,0,37.6v0.7c0,1.9,0.7,3.7,2,5c1.3,1.3,3.1,2.1,5,2.1h0c1.4,0,2.8-0.4,3.9-1.2v2C11,63.8,23.9,78.4,40.7,81v9.8
		h-6.3V94h25.1v-3.1h-6.3v-3.1h3.1v-3.1h-3.1v-3.9c15.5-3.5,27.3-17.9,28.1-30.6C88.5,49.3,94,43.3,94,36v-1.6h-5.2
		C92,31.9,94,27.9,94,23.5z M22.1,9.4c0.7-3.6,3.9-6.3,7.7-6.3h6.1c-0.7,3.6-3.9,6.3-7.7,6.3h-3.4c-0.5,0-1,0-1.5,0H22.1z M11,21.2
		v1.3v3.3l-5.4-2.3L11,21.2z M7.1,42.3v1.6V42.3c-1.1,0-2.1-0.4-2.8-1.2c-0.7-0.7-1.1-1.7-1.1-2.8v-0.7c0-1.4,0.8-2.7,2-3.4l5.9-3.4
		v7.5C11,40.5,9.2,42.3,7.1,42.3z M50.1,90.9h-6.3v-3.1H47v-3.1h-3.1v-3.2c0.8,0.1,1.6,0.1,2.3,0.1c1.3,0,2.6-0.1,3.9-0.2V90.9z
		 M90.8,37.6C90,42.9,85.4,47,79.9,47h-1.6v1.6c0,13.4-14.8,29.8-32.1,29.8c-17.7,0-32.1-14.4-32.1-32.1V22.5c0-0.2,0-0.4,0-0.6
		c0.2-2.7,1.4-5.1,3.4-6.8c1.7-1.5,3.7-2.3,5.9-2.5h1.4c3.7,0.3,7,2.6,8.5,6.1L47,47.5l9.7-20.3c4.2-8.9,13.4-14.7,23.2-14.7
		c0,0,0,0,0,0h10.9c-0.8,5.3-5.3,9.4-10.9,9.4v3.1h10.9v0c-0.8,5.3-5.3,9.4-10.9,9.4v3.1H90.8z"/>
	<path d="M51.7,50.1h18.4c-1.4,4.6-5.7,7.8-10.7,7.8l0,3.1c0,0,0,0,0,0h4.4c-1.4,4.6-5.8,7.8-10.7,7.8c0,0,0,0,0,0H47
		c-11.2,0-20.4-9.1-20.4-20.4V47h-3.1v1.6c0,13,10.5,23.5,23.5,23.5h6.2c0,0,0,0,0,0c7.1,0,13.2-5.3,14.2-12.3l0.2-1.2
		c3.2-2.2,5.5-5.7,6.1-9.8l0.3-1.8H51.7V50.1z"/>
</g>
</svg>
