<svg version="1.1" xmlns="http://www.w3.org/2000/svg" xmlns:xlink="http://www.w3.org/1999/xlink" x="0px" y="0px" viewBox="0 0 94 94" xml:space="preserve"> 
             <title>Current Threats</title>
             <path class="st0" d="M66,38c0.6,1.2,1,2.6,1.2,3.9c0.2,1.3,0.3,2.6,0.3,3.9c0,1.3-0.1,2.6-0.3,3.9C67,51,66.6,52.3,66,53.5c-0.6-1.2-1-2.5-1.2-3.9c-0.4-2.6-0.4-5.2,0-7.8C65,40.6,65.4,39.2,66,38z"></path>
             <path class="st0" d="M28,38c0.6,1.2,1,2.6,1.2,3.9c0.4,2.6,0.4,5.2,0,7.8C29,51,28.6,52.3,28,53.5c-0.6-1.2-1-2.5-1.2-3.9c-0.2-1.3-0.3-2.6-0.3-3.9c0-1.3,0.1-2.6,0.3-3.9C27,40.6,27.4,39.2,28,38z"></path>
             <path class="st0" d="M93.3,85.4c-3.6-3.3-7.4-5.9-11.4-8.1c6-6,9.6-13.6,9.6-21.9c0,0,0-0.1,0-0.1c0.5-9.4-6.9-40.9-27.4-52c0,0-0.1-0.1-0.1-0.1c-1.5-0.8-3-1.5-4.6-2c0,0,0,0,0,0c0,0,0,0,0,0c0,0,0,0,0,0c0,0,0,0-0.1,0c-0.6-0.2-1.2-0.3-1.9-0.2c0,0,0,0-0.1,0C57.3,1,57.1,1,57,1c-0.1,0-0.1,0-0.2,0.1c-0.1,0-0.2,0.1-0.3,0.1c-0.1,0-0.1,0.1-0.2,0.1c-0.1,0-0.2,0.1-0.2,0.1c-0.1,0.1-0.3,0.2-0.4,0.3c-5.6,4.2-7.5,12.8-6.6,18.1c-0.7,0-1.4,0-2,0c-0.7,0-1.4,0-2,0c0.9-5.3-1-13.9-6.7-18.1c-1-0.7-2.4-0.9-3.6-0.5c0,0-0.1,0-0.1,0c0,0,0,0,0,0c0,0,0,0,0,0c0,0,0,0,0,0c-1.6,0.5-3.1,1.2-4.6,2c-0.1,0-0.1,0.1-0.1,0.1c-20.6,11.2-28,42.6-27.4,52c0,0,0,0,0,0c0,8.3,3.6,15.9,9.6,22c-4,2.2-7.8,4.8-11.4,8.1c-0.4,0.4-0.4,1-0.1,1.4c0.2,0.2,0.5,0.3,0.7,0.3c0.2,0,0.5-0.1,0.7-0.3c3.7-3.3,7.5-6,11.6-8.1c2.4,2.1,5,4,8,5.7c-2.4,2.2-4.3,4.7-5.5,7c-0.3,0.5-0.1,1.1,0.4,1.4c0.1,0.1,0.3,0.1,0.5,0.1c0.4,0,0.7-0.2,0.9-0.5c1.1-2,3-4.6,5.6-7c2.6,1.3,5.3,2.4,8.2,3.2c0,0,0,0,0,0c4.8,1.4,9.9,2.2,15.3,2.2c5.4,0,10.5-0.8,15.3-2.2c0,0,0,0,0.1,0c2.9-0.8,5.6-1.9,8.2-3.2c2.6,2.4,4.5,4.9,5.6,7c0.2,0.3,0.5,0.5,0.9,0.5c0.2,0,0.3,0,0.5-0.1c0.5-0.3,0.7-0.9,0.4-1.4c-1.2-2.3-3.1-4.8-5.5-7c2.9-1.6,5.6-3.5,8-5.7c4.1,2.1,7.9,4.8,11.6,8.1c0.2,0.2,0.4,0.3,0.7,0.3c0.3,0,0.5-0.1,0.7-0.3C93.7,86.4,93.7,85.8,93.3,85.4z M77.4,45.8c0,6.3-5.1,11.4-11.4,11.4h0c-6.3,0-11.4-5.1-11.5-11.4c0-6.3,5.1-11.4,11.4-11.5C72.2,34.3,77.4,39.4,77.4,45.8C77.4,45.7,77.4,45.7,77.4,45.8z M63.8,5.4c12.7,7.2,20,22.4,23.5,34.6C81.6,30.6,70.9,23.5,58,20.8C58.3,14.1,59.3,10.8,63.8,5.4zM50.8,21.9c0.7,0.1,1.5,0.1,2.2,0.2c0.1,0,0.2,0,0.4,0c0,0,0.1,0,0.1,0c0.2,0,0.4,0.1,0.6,0.1c0.7,0.1,1.5,0.2,2.2,0.3c0.3,0.1,0.7,0.1,1,0.2c0.2,0,0.5,0.1,0.7,0.2c0.4,0.1,0.8,0.2,1.2,0.3c0.3,0.1,0.5,0.1,0.8,0.2c0.4,0.1,0.7,0.2,1.1,0.3c0.3,0.1,0.6,0.2,0.9,0.3c0.3,0.1,0.6,0.2,1,0.3c0.3,0.1,0.7,0.2,1,0.3c0.3,0.1,0.5,0.2,0.8,0.3c0.4,0.1,0.8,0.3,1.1,0.4c0.2,0.1,0.4,0.2,0.6,0.2c0.4,0.2,0.9,0.4,1.3,0.5c0.1,0.1,0.2,0.1,0.4,0.2c0.5,0.2,1,0.4,1.4,0.7c0,0,0.1,0,0.1,0.1c0.5,0.3,1,0.5,1.6,0.8c-12,1.6-21.1,10.1-21.1,20.4c0,3.9,1.3,7.6,3.6,10.7H40.3c2.3-3.1,3.6-6.8,3.6-10.7c0-10.3-9.1-18.8-21.1-20.4c2.2-1.2,4.5-2.2,6.9-3.1c0,0,0,0,0,0c0.5-0.2,1.1-0.4,1.7-0.6c0.1,0,0.2-0.1,0.3-0.1c0.5-0.1,1-0.3,1.4-0.4c0.2-0.1,0.4-0.1,0.6-0.2c0.4-0.1,0.8-0.2,1.2-0.3c0.3-0.1,0.6-0.1,0.8-0.2c0.4-0.1,0.7-0.1,1.1-0.2c0.3-0.1,0.6-0.1,0.9-0.2c0.7-0.1,1.4-0.2,2.2-0.3c0.2,0,0.3,0,0.5-0.1c0.1,0,0.2,0,0.3,0c0.1,0,0.2,0,0.3,0c0.7-0.1,1.5-0.1,2.2-0.2c1.3-0.1,2.5-0.1,3.8-0.1C48.3,21.7,49.5,21.8,50.8,21.9z M27.9,34.3c6.3,0,11.5,5.1,11.5,11.4c0,0,0,0,0,0c0,6.3-5.1,11.4-11.4,11.4c-6.3,0-11.4-5.1-11.5-11.4C16.5,39.5,21.6,34.4,27.9,34.3z M30.2,5.4c4.5,5.5,5.4,8.8,5.7,15.5C23.1,23.5,12.5,30.6,6.8,40C10.2,27.7,17.6,12.5,30.2,5.4z M25.1,84c3.6-2.9,8.1-5.4,13.4-6.2c0.5-0.1,0.9-0.6,0.8-1.1c-0.1-0.5-0.6-0.9-1.1-0.8c-5.7,0.9-10.9,3.7-15.1,7.1c-2.8-1.5-5.4-3.2-7.6-5.2c7.1-3.3,14.7-5,22.8-4.8c0,0,0,0,0,0c0.5,0,1-0.4,1-1c0-0.6-0.4-1-1-1c-8.7-0.2-16.9,1.7-24.5,5.4c-3-2.9-5.4-6.3-7.1-9.9c3.7,1.6,7.8,2.5,11.9,2.5c8.1,0,15.3-3.2,19.9-8.1l7.6,7.4c-0.2,0.2-0.3,0.4-0.3,0.7c0,0.3,0,0.6,0,0.9c-0.4,11.9-7.7,15.8-13.9,16.9C29.7,85.9,27.3,85,25.1,84z M47,88.8c-3.8,0-7.4-0.4-10.9-1.1C40.3,86.2,45,83,47,76.4c2,6.6,6.7,9.8,10.9,11.3C54.4,88.4,50.8,88.8,47,88.8z M80,76.3c-7.5-3.7-15.7-5.5-24.4-5.4c-0.6,0-1,0.5-1,1s0.5,1,1,1c8.1-0.1,15.8,1.5,22.8,4.8c-2.3,2-4.8,3.7-7.6,5.2c-4.1-3.5-9.4-6.3-15-7.1c-0.5-0.1-1.1,0.3-1.1,0.8c-0.1,0.5,0.3,1.1,0.8,1.1c5.3,0.8,9.8,3.3,13.4,6.2c-2.2,1-4.5,1.9-7,2.7c-6.3-1.1-13.6-5-13.9-16.9c0-0.3,0-0.6,0-0.9c0-0.3-0.1-0.5-0.3-0.7l7.6-7.4c4.6,4.9,11.8,8.1,19.9,8.1c4.1,0,8.1-0.8,11.8-2.5C85.5,70,83.1,73.4,80,76.3z"></path>
             <path class="st0" d="M47,69.9c-0.6,0-1-0.4-1-1v-3.8c0-0.6,0.4-1,1-1s1,0.4,1,1v3.8C48,69.4,47.5,69.9,47,69.9z"></path>  
             </svg>