<?xml version="1.0" encoding="utf-8"?>
<svg version="1.1" id="Layer_1" xmlns="http://www.w3.org/2000/svg" xmlns:xlink="http://www.w3.org/1999/xlink" x="0px" y="0px"
	 viewBox="0 0 20 20" style="enable-background:new 0 0 20 20;" xml:space="preserve">
<path d="M2.4,1.3C1.6,1.3,1,1.9,1,2.7V4c0,0.7,0.6,1.3,1.4,1.3h0.7v12c0,1.5,1.2,2.7,2.8,2.7h8.3c1.5,0,2.8-1.2,2.8-2.7v-12h0.7
	C18.4,5.3,19,4.7,19,4V2.7c0-0.7-0.6-1.3-1.4-1.3h-4.8c0-0.7-0.6-1.3-1.4-1.3H8.6C7.9,0,7.2,0.6,7.2,1.3H2.4z M6.5,6.7
	c0.4,0,0.7,0.3,0.7,0.7v9.3c0,0.4-0.3,0.7-0.7,0.7c-0.4,0-0.7-0.3-0.7-0.7V7.3C5.8,7,6.2,6.7,6.5,6.7 M10,6.7c0.4,0,0.7,0.3,0.7,0.7
	v9.3c0,0.4-0.3,0.7-0.7,0.7S9.3,17,9.3,16.7V7.3C9.3,7,9.6,6.7,10,6.7 M14.2,7.3v9.3c0,0.4-0.3,0.7-0.7,0.7s-0.7-0.3-0.7-0.7V7.3
	c0-0.4,0.3-0.7,0.7-0.7S14.2,7,14.2,7.3"  fill="#fff" />
</svg>
