<?xml version="1.0" encoding="utf-8"?>
<!-- Generator: Adobe Illustrator 26.3.1, SVG Export Plug-In . SVG Version: 6.00 Build 0)  -->
<svg version="1.1" id="Layer_1" xmlns="http://www.w3.org/2000/svg" xmlns:xlink="http://www.w3.org/1999/xlink" x="0px" y="0px"
	 viewBox="0 0 94 94" style="enable-background:new 0 0 94 94;" xml:space="preserve">
<style type="text/css">
	.st0{fill:#387C92;}
	.st1{fill:#D9D8FF;}
</style>
<g>
	<path class="st0" d="M92.4,32.1L92.4,32.1c-3.5,0-6.7,1.9-8.4,4.9l-4.3,7.7l-8.7-14c-2.8-4.5-7.2-7.7-12.2-8.9l5.1-7.6
		c0.3-0.5,0.4-1.1,0.1-1.6s-0.8-0.8-1.4-0.8H36.4l0,0c-3.7,0-7.1,1.8-9.1,4.9L24,21.5c-5.6,1-10.5,4.3-13.6,9.2L0.2,47
		c-0.3,0.5-0.3,1.2,0,1.7l10.1,16.2c3.7,6,10.2,9.6,17.3,9.6l0,0h3.2L43,82c0.3,0.2,0.5,0.2,0.8,0.2s0.5-0.1,0.8-0.2
		c0.5-0.3,0.8-0.8,0.8-1.4v-6.3h8.4l0,0l0,0h12.4c3.2,0,6.2-1.5,8.1-4l6.8-9.1c0.4-0.5,0.4-1.1,0.1-1.6s-0.8-0.9-1.4-0.9h-5l4.9-7.9
		l4.3,7.7c1.7,3,4.9,4.9,8.4,4.9l0,0c0.9,0,1.6-0.7,1.6-1.6V33.7C94,32.8,93.3,32.1,92.4,32.1z"/>
</g>
<g>
	<path class="st1" d="M21.9,43.1c-2.6,0-4.7,2.1-4.7,4.7s2.1,4.7,4.7,4.7s4.7-2.1,4.7-4.7S24.5,43.1,21.9,43.1z M21.9,49.4
		c-0.9,0-1.6-0.7-1.6-1.6c0-0.9,0.7-1.6,1.6-1.6s1.6,0.7,1.6,1.6C23.5,48.6,22.8,49.4,21.9,49.4z"/>
	<path class="st1" d="M92.4,32.1L92.4,32.1c-3.5,0-6.7,1.9-8.4,4.9l-4.3,7.7l-8.7-14c-2.8-4.5-7.2-7.7-12.2-8.9l5.1-7.6
		c0.3-0.5,0.4-1.1,0.1-1.6s-0.8-0.8-1.4-0.8H36.4l0,0c-3.7,0-7.1,1.8-9.1,4.9L24,21.5c-5.6,1-10.5,4.3-13.6,9.2L0.2,47
		c-0.3,0.5-0.3,1.2,0,1.7l10.1,16.2c3.7,6,10.2,9.6,17.3,9.6l0,0h3.2L43,82c0.3,0.2,0.5,0.2,0.8,0.2s0.5-0.1,0.8-0.2
		c0.5-0.3,0.8-0.8,0.8-1.4v-6.3h8.4l0,0l0,0h12.4c3.2,0,6.2-1.5,8.1-4l6.8-9.1c0.4-0.5,0.4-1.1,0.1-1.6s-0.8-0.9-1.4-0.9h-5l4.9-7.9
		l4.3,7.7c1.7,3,4.9,4.9,8.4,4.9l0,0c0.9,0,1.6-0.7,1.6-1.6V33.7C94,32.8,93.3,32.1,92.4,32.1z M90.9,35.4V40H86l0.8-1.4
		C87.7,37,89.2,35.9,90.9,35.4z M82.6,49.4h8.3v3.1h-6.6L82.6,49.4z M90.9,46.2h-8.3l1.7-3.1h6.6C90.9,43.1,90.9,46.2,90.9,46.2z
		 M40,14.9h4.1l-4.2,6.3h-4.1L40,14.9z M43.7,21.2l4.2-6.3H52l-4.2,6.3H43.7z M55.6,21.2h-4.1l4.2-6.3h4.1L55.6,21.2z M29.8,18.4
		c1.4-2.1,3.8-3.4,6.4-3.5L32,21.2h-4L29.8,18.4z M4.6,45.8l9.7,14.6c0.2,0.3,0.3,0.6,0.2,0.9c-0.1,0.3-0.3,0.6-0.5,0.8
		c-0.3,0.2-0.6,0.2-0.9,0.2c-0.3-0.1-0.6-0.3-0.8-0.5l0,0h-0.1l-8.8-14L4.6,45.8z M42.3,77.9l-5.5-3.4h5.5V77.9z M66.2,71.3h-1.5
		c1.4-0.9,2.7-1.9,3.8-3.1H72l-0.3,0.3C70.5,70.2,68.4,71.3,66.2,71.3z M76.8,61.9L74.4,65H71c0-0.1,0.1-0.1,0.1-0.2l1.8-3
		L76.8,61.9L76.8,61.9z M68.4,63.2c-3.2,5.1-8.6,8.1-14.6,8.1l0,0H27.7l0,0c-5.1,0-9.8-2.2-13.1-6c0.4-0.1,0.8-0.3,1.2-0.6
		c1-0.7,1.6-1.6,1.9-2.8c0.2-1.2,0-2.3-0.7-3.3L6.5,42.9L13,32.4c3.2-5.1,8.6-8.1,14.6-8.1h26.2c6,0,11.4,3,14.6,8.1L78,47.8
		L68.4,63.2z M86.8,57L86,55.6h4.8v4.5C89.2,59.7,87.7,58.6,86.8,57z"/>
	<path class="st1" d="M28.5,32.6l-2.2,2.2l7.4,7.5c3,3.1,3,8,0,11.1l-7.4,7.5l2.2,2.2l7.4-7.5c4.3-4.3,4.3-11.2,0-15.5L28.5,32.6z"
		/>
	<rect x="43.9" y="46.2" class="st1" width="28.2" height="3.1"/>
	<path class="st1" d="M58,55.6H42.3c-0.6,0-1.1,0.3-1.4,0.9c-0.3,0.5-0.2,1.2,0.1,1.6l4.7,6.3C46,64.8,46.5,65,47,65
		c0.3,0,0.5-0.1,0.8-0.2l11-6.3c0.6-0.4,0.9-1.1,0.7-1.8C59.3,56.1,58.7,55.6,58,55.6z M47.4,61.4l-2-2.7H52L47.4,61.4z"/>
	<rect x="43.9" y="32.1" class="st1" width="3.1" height="3.1"/>
	<rect x="51.7" y="32.1" class="st1" width="3.1" height="3.1"/>
	<rect x="59.5" y="32.1" class="st1" width="3.1" height="3.1"/>
	<rect x="48.6" y="38.4" class="st1" width="3.1" height="3.1"/>
	<rect x="56.4" y="38.4" class="st1" width="3.1" height="3.1"/>
	<rect x="64.2" y="38.4" class="st1" width="3.1" height="3.1"/>
</g>
</svg>
