<?xml version="1.0" encoding="utf-8"?>
<!-- Generator: Adobe Illustrator 26.3.1, SVG Export Plug-In . SVG Version: 6.00 Build 0)  -->
<svg version="1.1" id="Layer_1" xmlns="http://www.w3.org/2000/svg" xmlns:xlink="http://www.w3.org/1999/xlink" x="0px" y="0px"
	 viewBox="0 0 332 320" style="enable-background:new 0 0 332 320;" xml:space="preserve">
<style type="text/css">
	.st0{fill:url(#SVGID_1_);}
	.st1{fill:#FF7F00;}
	.st2{fill:url(#SVGID_00000052823152247507925160000017623083994704111007_);}
	.st3{fill:url(#SVGID_00000137111569217541017860000013637700830654380979_);}
	.st4{fill:url(#SVGID_00000083811946331185530950000001934311301646607757_);}
	.st5{fill:url(#SVGID_00000156564539502301059470000015323335723165367981_);}
	.st6{fill:url(#SVGID_00000077288749554130521190000014746102606408093108_);}
	.st7{fill:url(#SVGID_00000031906017050820481490000012971486309006770363_);}
	.st8{fill:url(#SVGID_00000007421252665286395020000018099090399460930988_);}
	.st9{fill:url(#SVGID_00000038383194519007745360000013576491517089531027_);}
	.st10{fill:url(#SVGID_00000033361404805593771920000005093131763494796466_);}
	.st11{fill:url(#SVGID_00000137836685181800252400000006208800059973570449_);}
</style>
<linearGradient id="SVGID_1_" gradientUnits="userSpaceOnUse" x1="166" y1="350" x2="166" y2="30" gradientTransform="matrix(1 0 0 -1 0 350)">
	<stop  offset="0" style="stop-color:#FFFFFF;stop-opacity:0"/>
	<stop  offset="1" style="stop-color:#FFFF00;stop-opacity:0.6"/>
	<stop  offset="1" style="stop-color:#00FFFF;stop-opacity:0.5"/>
</linearGradient>
<rect class="st0" width="332" height="320"/>
<path class="st1" d="M231.5,63.5h-0.4c-18.7,0.1-34.3,7-46.6,20.6c-10.5,11.6-18.6,28.5-24.2,50.2c-8.6,33-10.5,72.8-10.9,109.9V279
	c54.5,0,109.9,0,135.4,0c15.3,0,27.7-7.4,27.8-21.2c-0.1-40.8-1.3-86.4-10.8-123.5c-5.7-21.7-13.7-38.5-24.1-50.2
	C265.7,70.4,250.1,63.5,231.5,63.5L231.5,63.5z"/>
<g>
	
		<linearGradient id="SVGID_00000176025105942067223780000001333717631797711537_" gradientUnits="userSpaceOnUse" x1="150.4016" y1="47.1984" x2="306.1591" y2="202.9558" gradientTransform="matrix(1 0 0 -1 0 320)">
		<stop  offset="0" style="stop-color:#854D00"/>
		<stop  offset="1" style="stop-color:#E87C00"/>
	</linearGradient>
	<path style="fill:url(#SVGID_00000176025105942067223780000001333717631797711537_);" d="M298.6,135c-5.5-21.2-13.4-37.6-23.3-48.7
		C263.7,73.5,249,67,231.5,67h-0.4c-17.6,0.1-32.4,6.6-44,19.4c-10,11.1-17.9,27.5-23.4,48.7c-8.9,34.2-10.4,76.2-10.7,109v31.3h132
		c6.9,0,13.1-1.8,17.5-5.2c4.4-3.4,6.8-7,6.9-12.5C309.2,215.3,307.8,171.2,298.6,135z"/>
	
		<linearGradient id="SVGID_00000173878939169965567470000002347968207088776577_" gradientUnits="userSpaceOnUse" x1="305.9396" y1="163.6896" x2="306.9812" y2="164.7312" gradientTransform="matrix(1 0 0 -1 0 320)">
		<stop  offset="0" style="stop-color:#854D00"/>
		<stop  offset="1" style="stop-color:#E87C00"/>
	</linearGradient>
	<path style="fill:url(#SVGID_00000173878939169965567470000002347968207088776577_);" d="M306.7,157c-0.1-0.8-0.3-1.7-0.4-2.5
		C306.4,155.4,306.5,156.2,306.7,157z"/>
	
		<linearGradient id="SVGID_00000013171844934358249970000001878987975383124652_" gradientUnits="userSpaceOnUse" x1="310.875" y1="64.225" x2="314.7064" y2="68.0564" gradientTransform="matrix(1 0 0 -1 0 320)">
		<stop  offset="0" style="stop-color:#854D00"/>
		<stop  offset="1" style="stop-color:#E87C00"/>
	</linearGradient>
	<path style="fill:url(#SVGID_00000013171844934358249970000001878987975383124652_);" d="M312.8,257.7c0-2.5,0-5.1,0-7.7
		C312.8,252.6,312.8,255.1,312.8,257.7L312.8,257.7z"/>
	
		<linearGradient id="SVGID_00000000932474330465539990000011495011601802980253_" gradientUnits="userSpaceOnUse" x1="304.85" y1="124.05" x2="316.15" y2="135.35" gradientTransform="matrix(1 0 0 -1 0 320)">
		<stop  offset="0" style="stop-color:#854D00"/>
		<stop  offset="1" style="stop-color:#E87C00"/>
	</linearGradient>
	<path style="fill:url(#SVGID_00000000932474330465539990000011495011601802980253_);" d="M309.5,178c0.9,8.1,1.5,16.3,2,24.6
		C311,194.3,310.3,186.1,309.5,178z"/>
	
		<linearGradient id="SVGID_00000093173716400489423230000005450489265016091030_" gradientUnits="userSpaceOnUse" x1="304.7576" y1="78.0075" x2="320.2076" y2="93.4575" gradientTransform="matrix(1 0 0 -1 0 320)">
		<stop  offset="0" style="stop-color:#854D00"/>
		<stop  offset="1" style="stop-color:#E87C00"/>
	</linearGradient>
	<path style="fill:url(#SVGID_00000093173716400489423230000005450489265016091030_);" d="M312.2,218.5c0.4,10.6,0.5,21.2,0.6,31.5
		C312.7,239.7,312.5,229.1,312.2,218.5z"/>
	
		<linearGradient id="SVGID_00000063598466671669113260000011071992040613334462_" gradientUnits="userSpaceOnUse" x1="145.525" y1="161.775" x2="172.5258" y2="188.7757" gradientTransform="matrix(1 0 0 -1 0 320)">
		<stop  offset="0" style="stop-color:#854D00"/>
		<stop  offset="1" style="stop-color:#E87C00"/>
	</linearGradient>
	<path style="fill:url(#SVGID_00000063598466671669113260000011071992040613334462_);" d="M163.8,122.6c-1.2,3.7-2.4,7.6-3.4,11.7
		c-2.7,10.3-4.7,21.3-6.2,32.6c1.5-11.3,3.6-22.3,6.2-32.6C161.4,130.2,162.6,126.3,163.8,122.6z"/>
	
		<linearGradient id="SVGID_00000052062810925142412970000011985138340172549520_" gradientUnits="userSpaceOnUse" x1="296.0713" y1="199.9713" x2="298.3928" y2="202.2928" gradientTransform="matrix(1 0 0 -1 0 320)">
		<stop  offset="0" style="stop-color:#854D00"/>
		<stop  offset="1" style="stop-color:#E87C00"/>
	</linearGradient>
	<path style="fill:url(#SVGID_00000052062810925142412970000011985138340172549520_);" d="M295.9,115.3c0.9,2.3,1.8,4.7,2.6,7.2
		C297.7,120,296.8,117.6,295.9,115.3z"/>
	
		<linearGradient id="SVGID_00000137134223239583962940000016258110385314948517_" gradientUnits="userSpaceOnUse" x1="148.1286" y1="128.5287" x2="155.7384" y2="136.1384" gradientTransform="matrix(1 0 0 -1 0 320)">
		<stop  offset="0" style="stop-color:#854D00"/>
		<stop  offset="1" style="stop-color:#E87C00"/>
	</linearGradient>
	<path style="fill:url(#SVGID_00000137134223239583962940000016258110385314948517_);" d="M151.3,194.7c0.3-4.7,0.7-9.4,1.2-14
		C152.1,185.3,151.7,190,151.3,194.7z"/>
	
		<linearGradient id="SVGID_00000134228581186235701440000016393816921274696607_" gradientUnits="userSpaceOnUse" x1="223.35" y1="253.35" x2="228.8368" y2="258.8368" gradientTransform="matrix(1 0 0 -1 0 320)">
		<stop  offset="0" style="stop-color:#854D00"/>
		<stop  offset="1" style="stop-color:#E87C00"/>
	</linearGradient>
	<path style="fill:url(#SVGID_00000134228581186235701440000016393816921274696607_);" d="M231.2,63.5c-3.5,0-6.9,0.3-10.2,0.8
		C224.3,63.8,227.7,63.5,231.2,63.5L231.2,63.5z"/>
	
		<linearGradient id="SVGID_00000095299594134453932280000017713166689301804718_" gradientUnits="userSpaceOnUse" x1="209.0451" y1="251.8452" x2="211.6589" y2="254.459" gradientTransform="matrix(1 0 0 -1 0 320)">
		<stop  offset="0" style="stop-color:#854D00"/>
		<stop  offset="1" style="stop-color:#E87C00"/>
	</linearGradient>
	<path style="fill:url(#SVGID_00000095299594134453932280000017713166689301804718_);" d="M208.4,67.5c1.3-0.5,2.6-0.9,3.9-1.3
		C211,66.6,209.7,67,208.4,67.5z"/>
</g>
</svg>
