<?xml version="1.0" encoding="utf-8"?>
<svg version="1.1" id="Layer_1" xmlns="http://www.w3.org/2000/svg" xmlns:xlink="http://www.w3.org/1999/xlink" x="0px" y="0px"
	 viewBox="0 0 332 322" style="enable-background:new 0 0 332 322;" xml:space="preserve">
<style type="text/css">
	.st0{fill:url(#SVGID_1_);}
	.st1{fill:url(#SVGID_2);}
	.st2{fill:#2374FF;}
</style>
<radialGradient id="SVGID_1_" cx="166.0222" cy="38.2599" r="188.7558" gradientTransform="matrix(0.9997 0 0 0.7703 2.759910e-02 131.5284)" gradientUnits="userSpaceOnUse">
	<stop  offset="0.5" style="stop-color:#FFFBF7;stop-opacity:0"/>
	<stop  offset="1" style="stop-color:#FF8A00;stop-opacity:0.4"/>
</radialGradient>
<path class="st0" d="M181.1,135.5c-2.1-2.7-1.8-2.9,0.7-0.4c32,31.7,61.6,57.5,150,57.8c0,0,0,0,0,0c0-12.3,0-24.5,0-36.8
	c-0.5,0.2-0.8,0.2-1.2,0.2c-80.3,17.6-112.3-0.4-147.8-22.3c-3.1-1.9-2.9-2.3,0.5-0.7c37,16.6,71.7,29.1,147.1,2.4
	c0.6-0.2,1-0.3,1.6-0.5c0-10.4,0-20.9,0-31.3c-0.5,0.4-0.9,0.7-1.4,0.9c-68.5,38.3-107.7,36.3-146.9,27.2c-3.6-0.8-3.6-1.2,0-0.9
	c40.6,4.6,82.9-2.6,147.2-47.1c0.4-0.3,0.7-0.5,1-0.7c0-12.3,0-24.5,0-36.8c0,0,0,0,0,0c-28.7,24.2-55.6,46.3-79.9,60.1
	c-24.5,14.3-46.4,20.3-68.5,23c-3.4,0.4-3.7,0.1-0.3-0.8c23.2-6.4,46-17.4,70.7-38.4c24.5-20,51.1-50,78.1-72.8c0-5.9,0-11.9,0-17.8
	c-15.3,0-30.5,0-45.8,0c-17.7,28.4-34.2,58.4-51.2,80.4c-16.9,22.5-34.3,36.9-52.7,47.3c-2.8,1.6-3.1,1.2-0.7-0.7
	c28.9-21.8,51.5-63.3,70.6-127c-14.4,0-28.9,0-43.3,0c1.9,63.1-10.1,99.7-28.5,126c-1.7,2.4-2.1,2.2-0.9-0.5
	c12.4-28.4,18.4-64.6,5-125.5c-12.3,0-24.6,0-36.9,0c29.9,56.4,34.1,93.8,30.4,125.1c-0.3,3-0.8,2.9-1-0.2
	c-1.8-33.1-14.1-72.3-53.7-125c-14.4,0-28.9,0-43.3,0c53.8,45.9,84.8,88.5,95.5,124.9c1,3.1,0.6,3.2-0.9,0.1
	c-10.3-19.8-24.6-40.6-47.3-61.8C105.1,42,74.6,20.5,45.9,0C30.6,0,15.3,0,0,0c0,5.9,0,11.9,0,17.8c33.3,15.8,73.9,32.1,104.3,50.3
	c31.4,18.1,52.5,38,68.8,57.5c2.3,2.7,1.9,3-0.7,0.4c-17.2-15.8-37.9-31.8-67-45.3C76.7,67.2,39.5,56,0.1,46.6c0,0,0,0-0.1,0
	c0,12.3,0,24.5,0,36.8c0.5,0,1,0,1.5,0c86.3-0.2,134.2,20.9,170,43.6c3.2,2,3,2.3-0.4,0.7c-37.6-17.5-82.7-34.9-169.2-24
	c-0.7,0.1-1.3,0.1-1.8,0.1c0,10.5,0,20.9,0,31.4c0.7-0.3,1.3-0.6,1.8-0.7c84.6-27.5,128.8-15.4,168.9-5.7c3.6,0.8,3.6,1.3,0,0.8
	c-41.5-4.8-87-13-169.2,25.7c-0.5,0.3-0.9,0.4-1.4,0.7c0,12.3,0,24.5,0,36.8c0,0,0,0,0.1-0.1c76.4-57.8,126.6-58.5,170.7-61.5
	c3.5-0.3,3.7,0,0.3,0.8c-23.5,5.6-48.1,8.5-76.4,21.2C66.6,165.6,34.7,187.7,0,221.6c0,21.2,0,42.3,0,63.5
	c28.2-39.2,58.7-80.3,88-104.2c29.5-25.6,57.8-34,84-47.6c2.8-1.4,3.1-1.1,0.7,0.7c-25.2,19.1-53.7,31.7-79.7,64.2
	C66.8,228.5,43,278.7,20.4,322c24.4,0,48.8,0,73.2,0c2.8-54.5,13.5-92.9,28.8-120.4c15.1-27.9,35-45,51.6-66.8
	c1.8-2.3,2.2-2.2,0.9,0.5c-23.9,46.4-60.1,78.8-40.1,186.7c20.7,0,41.5,0,62.2,0c-53.9-94.4-30.2-134.3-20.8-186.1
	c0.5-2.9,0.9-2.8,1,0.2c0.4,27.9-3.9,52.6,2.9,81.9c6.4,29.1,24,62.7,58.2,104c24.4,0,48.8,0,73.2,0c-34.4-33.7-76.1-66.2-97.1-96.4
	c-23.3-30.4-26.1-58.4-35.6-89.6c-0.9-3-0.5-3.1,0.9-0.1c13.3,27.3,21.2,52.4,46.9,76.5c23.9,24.2,65.5,47.3,105.2,72.6
	c0-21.2,0-42.3,0-63.5c-44.7-8.4-77.2-19.4-99.6-34.1C209.4,172.8,196.6,154.7,181.1,135.5z"/>
<linearGradient id="SVGID_2" gradientUnits="userSpaceOnUse" x1="166" y1="202.3" x2="166" y2="142.2" gradientTransform="matrix(1 0 0 -1 0 322)">
	<stop  offset="0" style="stop-color:#4396FE"/>
	<stop  offset="1" style="stop-color:#0144B7"/>
</linearGradient>
<path style="fill:url(#SVGID_2);" d="M245,119.7H87c-9.4,0-17,6.9-17,15.3v29.5
	c0,8.4,7.6,15.3,17,15.3h158c9.4,0,17-6.9,17-15.3V135C262,126.6,254.4,119.7,245,119.7L245,119.7z"/>
<path class="st2" d="M257,164.5c0,5.6-5.4,10.3-12,10.3H87c-6.6,0-12-4.6-12-10.3V135c0-5.6,5.4-10.3,12-10.3h158
	c6.6,0,12,4.6,12,10.3V164.5z"/>
</svg>
