<?xml version="1.0" encoding="utf-8"?>
<!-- Generator: Adobe Illustrator 26.3.1, SVG Export Plug-In . SVG Version: 6.00 Build 0)  -->
<svg version="1.1" id="Layer_1" xmlns="http://www.w3.org/2000/svg" xmlns:xlink="http://www.w3.org/1999/xlink" x="0px" y="0px"
	 viewBox="0 0 332 420" style="enable-background:new 0 0 332 420;" xml:space="preserve">
<style type="text/css">
	.st0{fill:url(#SVGID_1_);}
	.st1{fill:#2374FF;}
</style>
<radialGradient id="SVGID_1_" cx="166.05" cy="209" r="188.7506" gradientTransform="matrix(1 0 0 -1.0048 0 420)" gradientUnits="userSpaceOnUse">
	<stop  offset="0.33" style="stop-color:#FFFBF7;stop-opacity:0"/>
	<stop  offset="1" style="stop-color:#FF8A00;stop-opacity:0.5"/>
</radialGradient>
<path class="st0" d="M172.8,161.6c-3.7-3-3.4-3.5,0.7-1.1L332,251.4l0,0v-47.9c-0.3,0-0.5-0.1-0.8-0.2l-156.8-44.7
	c-4.6-1.3-4.5-1.9,0.3-1.3L331,176.4c0.4,0,0.7,0.1,1.1,0.2v-41c-0.4,0.1-0.7,0.2-1.1,0.2L174.7,155c-4.7,0.6-4.9,0-0.3-1.3
	L331.2,109c0.3-0.1,0.6-0.1,0.8-0.2v-48l0,0l-158.4,90.9c-4.1,2.4-4.5,1.9-0.7-1.1L332,23.2V0h-45.8L171.3,149.2
	c-2.9,3.8-3.4,3.4-1.1-0.7L252.2,0h-43.3l-40.5,147.7c-1.3,4.6-1.8,4.5-1.3-0.2L184.5,0h-36.9L165,147.5c0.6,4.7,0,4.8-1.3,0.2
	L123.2,0H79.9l81.9,148.5c2.3,4.2,1.8,4.5-1.1,0.7L45.9,0H0v23.2l159.3,127.5c3.7,3,3.4,3.5-0.7,1.1L0.1,60.8c0,0,0,0-0.1,0v48
	c0.3,0.1,0.6,0.1,0.9,0.2l156.8,44.7c4.6,1.3,4.5,1.9-0.3,1.3L1.1,135.8c-0.4,0-0.8-0.1-1.1-0.2v41c0.4-0.1,0.8-0.2,1.1-0.2
	l156.3-19.2c4.7-0.6,4.9,0,0.3,1.3L0.9,203.3c-0.3,0.1-0.6,0.1-0.9,0.2v48c0,0,0,0,0.1,0l158.4-90.9c4.1-2.4,4.5-1.9,0.7,1.1
	L0,289.1v82.8L160.7,163c2.9-3.8,3.4-3.4,1.1,0.7L20.4,420h73.2l70.1-255.5c1.3-4.6,1.8-4.5,1.3,0.2l-30.2,255.2h62.3L167,164.8
	c-0.6-4.7,0-4.8,1.3-0.2L238.4,420h73.2L170.2,163.7c-2.3-4.2-1.8-4.5,1.1-0.7L332,371.8V289L172.8,161.6z"/>
<path class="st1" d="M257,104.5c0,5.6-5.4,10.3-12,10.3H87c-6.6,0-12-4.6-12-10.3V75c0-5.6,5.4-10.3,12-10.3h158
	c6.6,0,12,4.6,12,10.3V104.5z"/>
</svg>
