<?xml version="1.0" encoding="utf-8"?>
<!-- Generator: Adobe Illustrator 26.3.1, SVG Export Plug-In . SVG Version: 6.00 Build 0)  -->
<svg version="1.1" id="Layer_1" xmlns="http://www.w3.org/2000/svg" xmlns:xlink="http://www.w3.org/1999/xlink" x="0px" y="0px"
	 viewBox="0 0 330 320" style="enable-background:new 0 0 330 320;" xml:space="preserve">
<style type="text/css">
	.st0{fill:url(#SVGID_1_);}
	.st1{fill:#FF7F00;}
	.st2{fill:url(#SVGID_00000173851342104968632340000009697052803564917142_);}
	.st3{fill:#8F4600;}
</style>
<linearGradient id="SVGID_1_" gradientUnits="userSpaceOnUse" x1="165" y1="-262" x2="165" y2="58" gradientTransform="matrix(1 0 0 1 0 262)">
	<stop  offset="0" style="stop-color:#00FFFF;stop-opacity:0.2"/>
	<stop  offset="1" style="stop-color:#00FFFF;stop-opacity:0.8"/>
</linearGradient>
<rect class="st0" width="330" height="320"/>
<path class="st1" d="M227.6,61.8h-0.4c-18.6,0.1-34.1,7.1-46.3,20.7c-10.4,11.7-18.5,28.7-24.1,50.5c-8.5,33.3-10.4,73.3-10.8,110.7
	v33.1c54.2,0,109.3,0,134.7,0c15.2,0,27.5-5.4,27.7-19.4c-0.1-41.1-1.3-87-10.8-124.5c-5.6-21.8-13.7-38.8-24-50.5
	C261.5,68.7,246,61.8,227.6,61.8L227.6,61.8z"/>
<g>
	
		<linearGradient id="SVGID_00000158017342575755484830000000026573699363048883_" gradientUnits="userSpaceOnUse" x1="149.5" y1="150.7987" x2="304.9" y2="150.7987" gradientTransform="matrix(1 0 0 -1 0 320)">
		<stop  offset="0" style="stop-color:#C86E00"/>
		<stop  offset="1" style="stop-color:#FFBE00"/>
	</linearGradient>
	<path style="fill:url(#SVGID_00000158017342575755484830000000026573699363048883_);" d="M304.9,257.4
		c-0.1-42.6-1.5-87.2-10.7-123.6c-5.5-21.3-13.3-37.8-23.2-49.1c-11.4-12.9-26-19.5-43.4-19.5h-0.4c-17.5,0.1-32.2,6.7-43.7,19.6
		c-10,11.2-17.8,27.7-23.3,49.1c-8.8,34.5-10.4,76.8-10.7,109.8v29.5h131.2C291.8,273.3,304.7,270.6,304.9,257.4z"/>
	<path class="st3" d="M304.3,170.1c0.6,5.2,1.2,10.4,1.6,15.7C305.4,180.6,304.9,175.3,304.3,170.1z"/>
	<path class="st3" d="M167,104c1-2.1,2-4.1,3.1-6.1C169.1,99.8,168,101.9,167,104z"/>
	<path class="st3" d="M302.1,154.8c0.8,5,1.6,10.1,2.2,15.3C303.7,165,302.9,159.8,302.1,154.8z"/>
	<path class="st3" d="M147.3,201c0.7-11.9,1.7-23.7,3.3-35.1C149.1,177.3,148,189.1,147.3,201z"/>
	<path class="st3" d="M146.6,215.3c0.2-4.8,0.4-9.5,0.7-14.3C147.1,205.8,146.8,210.6,146.6,215.3z"/>
	<path class="st3" d="M151.6,159.1c0.7-4.5,1.5-8.9,2.3-13.3C153,150.2,152.3,154.6,151.6,159.1z"/>
	<path class="st3" d="M162.8,114c0.9-2.3,1.8-4.6,2.8-6.8C164.6,109.4,163.7,111.6,162.8,114z"/>
</g>
</svg>
