<?xml version="1.0" encoding="utf-8"?>
<!-- Generator: Adobe Illustrator 19.2.0, SVG Export Plug-In . SVG Version: 6.00 Build 0)  -->
<svg version="1.1" id="Layer_1" xmlns="http://www.w3.org/2000/svg" xmlns:xlink="http://www.w3.org/1999/xlink" x="0px" y="0px"
	 viewBox="0 0 400 400" style="enable-background:new 0 0 400 400;" xml:space="preserve" fill="#ab674f">
<g>
	<path d="M23.1,220c-0.7-6.6-1.1-13.2-1.1-20s0.4-13.4,1.1-20H20c-11,0-20,9-20,20s9,20,20,20H23.1z"/>
</g>
<g>
	<path d="M94.2,56.8c10.7-7.9,22.3-14.6,34.6-20l-1.5-2.7c-5.5-9.5-17.8-12.8-27.3-7.3s-12.8,17.8-7.3,27.3L94.2,56.8z"/>
</g>
<g>
	<path d="M134.9,34.3c12.3-4.8,25.2-8.3,38.6-10.3l-0.8-3c-2.8-10.6-13.9-17-24.5-14.1c-10.6,2.8-17,13.9-14.1,24.5L134.9,34.3z"/>
</g>
<g>
	<path d="M21,172.7l3,0.8c2-13.4,5.5-26.4,10.3-38.6l-3-0.8c-10.6-2.8-21.6,3.5-24.5,14.1C4,158.9,10.3,169.9,21,172.7z"/>
</g>
<g>
	<path d="M60.8,89.1c8.3-10.5,17.8-19.9,28.3-28.3l-2.2-2.2c-7.8-7.8-20.5-7.8-28.3,0l0,0c-7.8,7.8-7.8,20.5,0,28.3L60.8,89.1z"/>
</g>
<g>
	<path d="M34.1,127.3l2.7,1.5c5.4-12.3,12.1-23.9,20-34.6l-2.7-1.6c-9.5-5.5-21.8-2.2-27.3,7.3S24.6,121.8,34.1,127.3z"/>
</g>
<g>
	<path d="M200,22c6.8,0,13.4,0.4,20,1.1V20c0-11-9-20-20-20s-20,9-20,20v3.1C186.6,22.4,193.2,22,200,22z"/>
</g>
<g>
	<path d="M368.7,134.1l-3,0.8c4.8,12.3,8.3,25.2,10.3,38.6l3-0.8c10.6-2.8,17-13.9,14.1-24.5S379.3,131.2,368.7,134.1z"/>
</g>
<g>
	<path d="M265.1,34.3l0.8-3c2.8-10.6-3.5-21.6-14.1-24.5C241.1,4,230.1,10.3,227.3,21l-0.8,3C239.9,26,252.8,29.5,265.1,34.3z"/>
</g>
<g>
	<path d="M343.2,94.2c7.9,10.7,14.6,22.3,20,34.6l2.7-1.5c9.5-5.5,12.8-17.8,7.3-27.3s-17.8-12.8-27.3-7.3L343.2,94.2z"/>
</g>
<g>
	<path d="M305.8,56.8l1.6-2.7c5.5-9.5,2.2-21.8-7.3-27.3s-21.8-2.2-27.3,7.3l-1.5,2.7C283.5,42.2,295.1,48.9,305.8,56.8z"/>
</g>
<g>
	<path d="M339.2,89.1l2.2-2.2c7.8-7.8,7.8-20.5,0-28.3l0,0c-7.8-7.8-20.5-7.8-28.3,0l-2.2,2.2C321.4,69.1,330.9,78.6,339.2,89.1z"/>
</g>
<g>
	<path d="M305.8,343.2c-10.7,7.9-22.3,14.6-34.6,20l1.5,2.7c5.5,9.5,17.8,12.8,27.3,7.3s12.8-17.8,7.3-27.3L305.8,343.2z"/>
</g>
<g>
	<path d="M365.9,272.7l-2.7-1.5c-5.4,12.3-12.1,23.9-20,34.6l2.7,1.6c9.5,5.5,21.8,2.2,27.3-7.3S375.4,278.2,365.9,272.7z"/>
</g>
<g>
	<path d="M339.2,310.9c-8.3,10.5-17.8,19.9-28.3,28.3l2.2,2.2c7.8,7.8,20.5,7.8,28.3,0l0,0c7.8-7.8,7.8-20.5,0-28.3L339.2,310.9z"/>
</g>
<g>
	<path d="M265.1,365.7c-12.3,4.8-25.2,8.3-38.6,10.3l0.8,3c2.8,10.6,13.9,17,24.5,14.1c10.6-2.8,17-13.9,14.1-24.5L265.1,365.7z"/>
</g>
<g>
	<path d="M31.3,265.9l3-0.8c-4.8-12.3-8.3-25.2-10.3-38.6l-3,0.8c-10.6,2.8-17,13.9-14.1,24.5C9.7,262.4,20.7,268.8,31.3,265.9z"/>
</g>
<g>
	<path d="M379,227.3l-3-0.8c-2,13.4-5.5,26.4-10.3,38.6l3,0.8c10.6,2.8,21.6-3.5,24.5-14.1S389.7,230.1,379,227.3z"/>
</g>
<g>
	<path d="M380,180h-3.1c0.7,6.6,1.1,13.2,1.1,20s-0.4,13.4-1.1,20h3.1c11,0,20-9,20-20S391,180,380,180z"/>
</g>
<g>
	<path d="M60.8,310.9l-2.2,2.2c-7.8,7.8-7.8,20.5,0,28.3l0,0c7.8,7.8,20.5,7.8,28.3,0l2.2-2.2C78.6,330.9,69.1,321.4,60.8,310.9z"/>
</g>
<g>
	<path d="M56.8,305.8c-7.9-10.7-14.6-22.3-20-34.6l-2.7,1.5c-9.5,5.5-12.8,17.8-7.3,27.3s17.8,12.8,27.3,7.3L56.8,305.8z"/>
</g>
<g>
	<path d="M134.9,365.7l-0.8,3c-2.8,10.6,3.5,21.6,14.1,24.5c10.6,2.8,21.6-3.5,24.5-14.1l0.8-3C160.1,374,147.2,370.5,134.9,365.7z"
		/>
</g>
<g>
	<path d="M200,378c-6.8,0-13.4-0.4-20-1.1v3.1c0,11,9,20,20,20s20-9,20-20v-3.1C213.4,377.6,206.8,378,200,378z"/>
</g>
<g>
	<path d="M94.2,343.2l-1.6,2.7c-5.5,9.5-2.2,21.8,7.3,27.3s21.8,2.2,27.3-7.3l1.5-2.7C116.5,357.8,104.9,351.1,94.2,343.2z"/>
</g>
</svg>
