<?xml version="1.0" encoding="utf-8"?>
<!-- Generator: Adobe Illustrator 26.3.1, SVG Export Plug-In . SVG Version: 6.00 Build 0)  -->
<svg version="1.1" id="Layer_1" xmlns="http://www.w3.org/2000/svg" xmlns:xlink="http://www.w3.org/1999/xlink" x="0px" y="0px"
	 viewBox="0 0 94 94" style="enable-background:new 0 0 94 94;" xml:space="preserve">
<style type="text/css">
	.st0{fill:#96611A;}
	.st1{fill:#D5AE8A;}
</style>
<path class="st0" d="M15,68.3c-3.3,0-6,2.7-6,6s2.7,6,6,6h17h1l0.8-0.6c0,0,4.3-3,4.8-3.4l1.6-1l-0.3-1.9c-0.4-2.9-3-5.1-5.9-5.1H15
	L15,68.3z"/>
<path class="st0" d="M45.1,62.9c3.3,0,6-2.7,6-6s-2.7-6-6-6h-17h-1l-0.8,0.6c0,0-4.3,3-4.8,3.4l-1.6,1l0.3,1.9
	c0.4,2.9,3,5.1,5.9,5.1H45.1L45.1,62.9z"/>
<path class="st0" d="M68.7,41.2c-3.3,0-6,2.7-6,6s2.7,6,6,6h17h1l0.8-0.6c0,0,4.3-3,4.8-3.4l1.6-1l-0.3-1.9c-0.4-2.9-3-5.1-5.9-5.1
	H68.7L68.7,41.2z"/>
<path class="st0" d="M62.9,29.5c2.3-2.4,2.3-6.2-0.1-8.5s-6.2-2.3-8.5,0.1L42.5,33.3L41.8,34l-0.1,0.9c0,0-0.8,5.2-0.9,5.8l-0.4,1.8
	l1.6,1.1c2.4,1.7,5.7,1.4,7.8-0.7L62.9,29.5L62.9,29.5z"/>
<path class="st0" d="M26.6,35.2c2.3,2.3,6.2,2.3,8.5,0s2.3-6.2,0-8.5L23,14.8l-0.7-0.7l-0.9-0.2c0,0-5.2-0.9-5.8-1l-1.8-0.4
	l-1.2,1.6c-1.7,2.4-1.5,5.7,0.6,7.8L26.6,35.2L26.6,35.2z"/>
<path class="st0" d="M22.6,45.5c2.3-2.3,2.3-6.1,0-8.5c-2.3-2.3-6.1-2.3-8.5,0l-12,12l-0.7,0.7l-0.2,0.9c0,0-0.9,5.2-1,5.8l-0.4,1.8
	l1.6,1.2c2.4,1.7,5.7,1.5,7.8-0.6L22.6,45.5L22.6,45.5z"/>
<path class="st0" d="M56.4,12.5c3.3,0,6-2.7,6-6s-2.7-6-6-6h-17h-1l-0.8,0.6c0,0-4.3,3-4.8,3.4l-1.6,1l0.3,1.9
	c0.4,2.9,3,5.1,5.9,5.1H56.4L56.4,12.5z"/>
<path class="st0" d="M80.4,33.5c2.4,2.3,6.2,2.2,8.5-0.2s2.2-6.2-0.2-8.5L76.6,13.1l-0.7-0.7L75,12.3c0,0-5.2-0.8-5.8-0.9L67.4,11
	l-1.1,1.6c-1.7,2.4-1.4,5.7,0.7,7.8L80.4,33.5L80.4,33.5z"/>
<path class="st0" d="M74.1,78.6c2.4,2.3,6.2,2.3,8.5-0.1s2.3-6.2-0.1-8.5L70.3,58.2l-0.7-0.7l-0.9-0.1c0,0-5.2-0.8-5.8-0.9L61,56
	l-1.1,1.6c-1.7,2.4-1.4,5.7,0.7,7.8L74.1,78.6L74.1,78.6z"/>
<path class="st0" d="M58.8,78.6c2.4-2.3,2.4-6.1,0.1-8.5c-2.3-2.4-6.1-2.4-8.5-0.1L38.3,81.9l-0.7,0.7l-0.2,0.9c0,0-0.9,5.1-1.1,5.8
	L36,91.2l1.6,1.2c2.3,1.8,5.7,1.6,7.8-0.5L58.8,78.6L58.8,78.6z"/>
<path class="st1" d="M15,71.3h18.9c1.5,0,2.7,1.1,3,2.6L32,77.3H15c-1.6,0-3-1.3-3-3C12,72.6,13.4,71.3,15,71.3 M15,68.3
	c-3.3,0-6,2.7-6,6s2.7,6,6,6h17h1l0.8-0.6c0,0,4.3-3,4.8-3.4l1.6-1l-0.3-1.9c-0.4-2.9-3-5.1-5.9-5.1H15L15,68.3z"/>
<path class="st1" d="M45.1,59.9H26.2c-1.5,0-2.7-1.1-3-2.6l4.9-3.4h17c1.7,0,3,1.3,3,3C48.1,58.5,46.8,59.9,45.1,59.9 M45.1,62.9
	c3.3,0,6-2.7,6-6s-2.7-6-6-6h-17h-1l-0.8,0.6c0,0-4.3,3-4.8,3.4l-1.6,1l0.3,1.9c0.4,2.9,3,5.1,5.9,5.1H45.1L45.1,62.9z"/>
<path class="st1" d="M68.7,44.2h18.9c1.5,0,2.7,1.1,3,2.6l-4.9,3.4h-17c-1.7,0-3-1.3-3-3S67.1,44.2,68.7,44.2 M68.7,41.2
	c-3.3,0-6,2.7-6,6s2.7,6,6,6h17h1l0.8-0.6c0,0,4.3-3,4.8-3.4l1.6-1l-0.3-1.9c-0.4-2.9-3-5.1-5.9-5.1H68.7L68.7,41.2z"/>
<path class="st1" d="M60.8,27.4L47.6,40.9c-1,1.1-2.7,1.2-3.9,0.3l0.9-5.9l11.8-12.2c1.2-1.2,3.1-1.2,4.2-0.1
	C61.9,24.3,61.9,26.2,60.8,27.4 M62.9,29.5c2.3-2.4,2.3-6.2-0.1-8.5s-6.2-2.3-8.5,0.1L42.5,33.3L41.8,34l-0.1,0.9
	c0,0-0.8,5.2-0.9,5.8l-0.4,1.8l1.6,1.1c2.4,1.7,5.7,1.4,7.8-0.7L62.9,29.5L62.9,29.5z"/>
<path class="st1" d="M28.7,33.1L15.3,19.8c-1.1-1.1-1.2-2.7-0.3-3.9l5.9,1l12,11.9c1.2,1.2,1.2,3.1,0,4.2
	C31.8,34.3,29.9,34.3,28.7,33.1 M26.6,35.2c2.3,2.3,6.2,2.3,8.5,0s2.3-6.2,0-8.5L23,14.8l-0.7-0.7l-0.9-0.2c0,0-5.2-0.9-5.8-1
	l-1.8-0.4l-1.2,1.6c-1.7,2.4-1.5,5.7,0.6,7.8L26.6,35.2L26.6,35.2z"/>
<path class="st1" d="M20.4,43.4L7.1,56.7C6,57.8,4.4,57.9,3.2,57l1-5.9l12-12c1.2-1.2,3.1-1.2,4.2,0C21.6,40.3,21.6,42.2,20.4,43.4
	 M22.6,45.5c2.3-2.3,2.3-6.1,0-8.5c-2.3-2.3-6.1-2.3-8.5,0l-12,12l-0.7,0.7l-0.2,0.9c0,0-0.9,5.2-1,5.8l-0.4,1.8l1.6,1.2
	c2.4,1.7,5.7,1.5,7.8-0.6L22.6,45.5L22.6,45.5z"/>
<path class="st1" d="M56.4,9.5H37.5c-1.5,0-2.7-1.1-3-2.6l4.9-3.4h17c1.7,0,3,1.4,3,3C59.4,8.2,58,9.5,56.4,9.5 M56.4,12.5
	c3.3,0,6-2.7,6-6s-2.7-6-6-6h-17h-1l-0.8,0.6c0,0-4.3,3-4.8,3.4l-1.6,1l0.3,1.9c0.4,2.9,3,5.1,5.9,5.1H56.4L56.4,12.5z"/>
<path class="st1" d="M82.5,31.4L69,18.3c-1.1-1-1.2-2.7-0.4-3.9l5.9,0.9L86.7,27c1.2,1.1,1.2,3.1,0.1,4.2
	C85.6,32.5,83.7,32.5,82.5,31.4 M80.4,33.5c2.4,2.3,6.2,2.2,8.5-0.2s2.2-6.2-0.2-8.5L76.6,13.1l-0.7-0.7L75,12.3
	c0,0-5.2-0.8-5.8-0.9L67.4,11l-1.1,1.6c-1.7,2.4-1.4,5.7,0.7,7.8L80.4,33.5L80.4,33.5z"/>
<path class="st1" d="M76.2,76.5L62.7,63.3c-1.1-1-1.2-2.7-0.3-3.9l5.9,0.9l12.1,11.8c1.2,1.2,1.2,3.1,0,4.2
	C79.2,77.6,77.3,77.6,76.2,76.5 M74.1,78.6c2.4,2.3,6.2,2.3,8.5-0.1s2.3-6.2-0.1-8.5L70.3,58.2l-0.7-0.7l-0.9-0.1
	c0,0-5.2-0.8-5.8-0.9L61,56l-1.1,1.6c-1.7,2.4-1.4,5.7,0.7,7.8L74.1,78.6L74.1,78.6z"/>
<path class="st1" d="M56.7,76.5L43.3,89.7c-1.1,1-2.7,1.1-3.9,0.3l1.1-5.9l12.1-11.9c1.2-1.2,3.1-1.1,4.2,0
	C57.9,73.4,57.9,75.3,56.7,76.5 M58.8,78.6c2.4-2.3,2.4-6.1,0.1-8.5c-2.3-2.4-6.1-2.4-8.5-0.1L38.3,81.9l-0.7,0.7l-0.2,0.9
	c0,0-0.9,5.1-1.1,5.8L36,91.2l1.6,1.2c2.3,1.8,5.7,1.6,7.8-0.5L58.8,78.6L58.8,78.6z"/>
</svg>
