<?xml version="1.0" encoding="utf-8"?>
<!-- Generator: Adobe Illustrator 26.3.1, SVG Export Plug-In . SVG Version: 6.00 Build 0)  -->
<svg version="1.1" id="Layer_1" xmlns="http://www.w3.org/2000/svg" xmlns:xlink="http://www.w3.org/1999/xlink" x="0px" y="0px"
	 viewBox="0 0 300 240" style="enable-background:new 0 0 300 240;" xml:space="preserve">
<style type="text/css">
	.st0{fill:#A3421A;}
	.st1{fill:url(#SVGID_1_);}
	.st2{fill:url(#SVGID_00000031190965934366277130000004573839565521117842_);}
</style>
<path class="st0" d="M291.8,132.7c-5-37.8-28-78.2-48.5-101.5c-7.7-8.7-12.5-8.2-15-7.6c-0.6,0.1-1,0.5-1.2,1.1
	c-0.3,1-0.2,1.9,4.4,6.9c17.5,19.3,39.9,57.5,45.3,101.2c4.6,36.9,1.4,57-11.8,74.5c-9.1,12.2-21.2,17.5-40.4,17.9
	c-10.2,0-29.4,0-29.7,0c-21.5-0.4-37.9-5.5-48.6-15c-16.4-14.5-26-44.2-25.6-79.4c0.1-9.6,1.2-18.9,2.2-27.9c2-17.4,4.1-35.4-0.5-57
	c-2-9.7-7.2-22.6-15.6-29.7c-9.3-7.9-14.2-8.6-23-8.2C69.5,8.8,60.3,18.1,57,22.2c-1.1,1.3-1.8,2.2-2,3.1
	C47.7,32.4,37.3,45,28.3,65.7C14.5,97.3,9.1,122.7,9,156.3c-0.1,32.4,4.8,51.1,16.9,64.9C39.7,236.9,48.6,240,76.5,240h154.9
	c12,0,34-4.6,47.3-22.1C293,199.1,297.1,172.9,291.8,132.7z"/>
<linearGradient id="SVGID_1_" gradientUnits="userSpaceOnUse" x1="99.6994" y1="2.5192" x2="99.6994" y2="227.0033" gradientTransform="matrix(1 0 0 -1 0 240)">
	<stop  offset="0" style="stop-color:#F08C28"/>
	<stop  offset="0.1581" style="stop-color:#FFB428"/>
	<stop  offset="0.4892" style="stop-color:#FFF050"/>
	<stop  offset="1" style="stop-color:#FFFFDC"/>
</linearGradient>
<path class="st1" d="M181.3,237.5c-10.3,0-32.4-3-46.4-20.6c-11.8-14.7-19.6-31-23.9-59s2.6-48.3,5.7-73.3s-0.7-54.4-16.3-65.6
	c-12.6-9-23.7-5.4-26.8-4.3c-0.4,0.2-0.8,0.3-1.2,0.5c-11.1,4.6-28.9,19.7-42.7,51.1c-13.8,31.5-19.1,56.5-19.2,90
	c-0.1,36.2,6.4,52.5,16.6,63.9c13.4,15.2,22.2,17.2,49.7,17.2c18.6,0,76.4,0,112.1,0l0,0C185.9,237.5,183.3,237.5,181.3,237.5z"/>
<linearGradient id="SVGID_00000085247495482601637070000010163390169172810419_" gradientUnits="userSpaceOnUse" x1="149.1658" y1="6.8593" x2="187.1724" y2="222.4052" gradientTransform="matrix(1 0 0 -1 0 240)">
	<stop  offset="1.837793e-03" style="stop-color:#FFF050"/>
	<stop  offset="8.076859e-02" style="stop-color:#FFF155"/>
	<stop  offset="0.1795" style="stop-color:#FFF265"/>
	<stop  offset="0.2888" style="stop-color:#FFF57E"/>
	<stop  offset="0.4057" style="stop-color:#FFF9A2"/>
	<stop  offset="0.5274" style="stop-color:#FFFECF"/>
	<stop  offset="0.5587" style="stop-color:#FFFFDC"/>
	<stop  offset="0.5959" style="stop-color:#FFFDC8"/>
	<stop  offset="0.6861" style="stop-color:#FFF89D"/>
	<stop  offset="0.7736" style="stop-color:#FFF57C"/>
	<stop  offset="0.8566" style="stop-color:#FFF264"/>
	<stop  offset="0.9332" style="stop-color:#FFF155"/>
	<stop  offset="0.9974" style="stop-color:#FFF050"/>
</linearGradient>
<path style="fill:url(#SVGID_00000085247495482601637070000010163390169172810419_);" d="M286.3,132.9c-5-37.6-28.4-78.1-48.3-100.7
	c-5.1-5.7-14.1-12-4.7-1.6c19.8,22,40.6,60.6,45.7,102c5,40,0.3,59.2-12.1,75.7c-10.6,14-24.5,18.1-41.7,18.5c0,0-29.8,0-29.9,0
	c-17.2-0.3-36.6-3.7-49.7-15.3c-19.5-17.2-26.5-51.1-26.2-80.5c0.3-28.2,8.7-52,1.8-84.6c-1.9-9.2-6.9-21.9-15.1-28.9
	C97,9.8,92.3,9.3,84,9.7c-12,0.5-21,7.8-25.7,13.4c-1.8,2.2-2.1,3.2-1.1,2.3c7.3-6.4,25.2-17.8,41.1-6.5
	c15.7,11.2,19.5,40.6,16.3,65.6s-10,45.4-5.7,73.3s12.1,44.4,23.9,59c14,17.4,36.1,20.6,46.4,20.6c8,0,34.6,0,36.9,0
	c3.7,0,9.7,0,16.1,0c10.3,0,27.7-2.7,41.3-20.6C289.4,196.2,290.8,166.8,286.3,132.9z"/>
</svg>
