<?xml version="1.0" encoding="utf-8"?>
<!-- Generator: Adobe Illustrator 26.3.1, SVG Export Plug-In . SVG Version: 6.00 Build 0)  -->
<svg version="1.1" id="Layer_1" xmlns="http://www.w3.org/2000/svg" xmlns:xlink="http://www.w3.org/1999/xlink" x="0px" y="0px"
	 viewBox="0 0 94 94" style="enable-background:new 0 0 94 94;" xml:space="preserve">
<style type="text/css">
	.st0{fill:#72001A;}
	.st1{fill:#FFCCC6;}
</style>
<g>
	<rect x="12.5" y="26.6" class="st0" width="3.1" height="3.1"/>
	<path class="st0" d="M93.9,62.1l-2.4-6c-0.4-0.9-0.4-1.9-0.2-2.9L94,42.7c0-0.1,0-0.3,0-0.4v-4.7l0,0v-3.1v-1.6
		c0-7.8-6.3-14.1-14.1-14.1H21.7c-0.7-2.7-3.2-4.7-6.1-4.7H5.3l-2.7-2.7c-0.4-0.4-1-0.6-1.6-0.3c-0.6,0.2-1,0.8-1,1.4v1.7
		c0,4.2,3.4,7.7,7.7,7.7h1.9l-8.4,12c-1.4,2-1.5,4.7-0.3,6.9c1.2,2,3.4,3.1,5.6,3.1H17c0.6,0,1.1,0.3,1.4,0.9l9.8,13.7v23
		c0,0.9,0.7,1.6,1.6,1.6H36c0.7,0,1.4-0.5,1.5-1.2L42,61.1h35.7l3.7,3.7l-3,16.4c-0.1,0.5,0,0.9,0.3,1.3s0.7,0.6,1.2,0.6h6.3
		c0.7,0,1.3-0.4,1.5-1.1L94,63.2C94,62.8,94,62.4,93.9,62.1z"/>
</g>
<g>
	<rect x="12.5" y="26.6" class="st1" width="3.1" height="3.1"/>
	<path class="st1" d="M93.9,62.1l-2.4-6c-0.4-0.9-0.4-1.9-0.2-2.9L94,42.7c0-0.1,0-0.3,0-0.4v-4.7l0,0v-3.1v-1.6
		c0-7.8-6.3-14.1-14.1-14.1H21.7c-0.7-2.7-3.2-4.7-6.1-4.7H5.3l-2.7-2.7c-0.4-0.4-1-0.6-1.6-0.3c-0.6,0.2-1,0.8-1,1.4v1.7
		c0,4.2,3.4,7.7,7.7,7.7h1.9l-8.4,12c-1.4,2-1.5,4.7-0.3,6.9c1.2,2,3.4,3.1,5.6,3.1H17c0.6,0,1.1,0.3,1.4,0.9l9.8,13.7v23
		c0,0.9,0.7,1.6,1.6,1.6H36c0.7,0,1.4-0.5,1.5-1.2L42,61.1h35.7l3.7,3.7l-3,16.4c-0.1,0.5,0,0.9,0.3,1.3s0.7,0.6,1.2,0.6h6.3
		c0.7,0,1.3-0.4,1.5-1.1L94,63.2C94,62.8,94,62.4,93.9,62.1z M85,79.9h-3.3l2.8-15.4c0.1-0.5-0.1-1-0.4-1.4l-8.2-8.2
		c-1.5-1.5-2.3-3.4-2.3-5.5v-3.9h-3.1v3.9c0,2.9,1.1,5.7,3.2,7.8l0.8,0.8H40.7c-0.7,0-1.4,0.5-1.5,1.2l-4.4,20.7h-3.4V58
		c0-0.3-0.1-0.6-0.3-0.9l-10-14c-0.8-1.4-2.4-2.3-4-2.3H6.5c-1.2,0.1-2.3-0.6-2.9-1.6C3,38.1,3,36.8,3.7,35.7l10.1-14.4
		c0.3-0.5,0.4-1.1,0.1-1.6c-0.3-0.5-0.8-0.8-1.4-0.8H7.7c-1.4,0-2.7-0.6-3.5-1.7c0.2,0.1,0.4,0.1,0.5,0.1h11c1.7,0,3.1,1.4,3.1,3.1
		c0,0.9,0.7,1.6,1.6,1.6h59.5c6,0,11,4.9,11,11v1.6l0,0v3.1c0,1.7-1.4,3.1-3.1,3.1s-3.1-1.4-3.1-3.1V36c0-3.5-2.8-6.3-6.3-6.3h-4.7
		v3.1h4.7c1.7,0,3.1,1.4,3.1,3.1v1.6c0,3.5,2.8,6.3,6.3,6.3c1,0,2-0.3,2.9-0.7l-2.3,9.3c-0.4,1.6-0.3,3.3,0.3,4.8l2.2,5.4L85,79.9z"
		/>
</g>
</svg>
