<?xml version="1.0" encoding="utf-8"?>
<!-- Generator: Adobe Illustrator 19.2.0, SVG Export Plug-In . SVG Version: 6.00 Build 0)  -->
<svg version="1.1" id="Layer_1" xmlns="http://www.w3.org/2000/svg" xmlns:xlink="http://www.w3.org/1999/xlink" x="0px" y="0px"
	 viewBox="0 0 94 94" style="enable-background:new 0 0 94 94;" xml:space="preserve" fill="#205685">
<g>
	<g>
		<path d="M65,20.8C57.1,9.9,49.3,2.2,49,1.9L47,0l-2,1.9c-0.3,0.3-8.1,8-16,18.9c-10.8,14.9-16.2,28-16.2,39
			C12.8,78.7,28.1,94,47,94s34.2-15.3,34.2-34.2C81.2,48.8,75.7,35.7,65,20.8z M47,88.4c-15.8,0-28.6-12.8-28.6-28.6
			c0-20,21.9-44.7,28.6-51.9c6.7,7.1,28.6,31.9,28.6,51.9C75.6,75.6,62.8,88.4,47,88.4z"/>
	</g>
</g>
<g>
	<g>
		<path d="M67.2,59.8C67.2,71,58.2,80,47,80v5.6c14.2,0,25.8-11.6,25.8-25.8L67.2,59.8L67.2,59.8z"/>
	</g>
</g>
<g>
	<g>
		<path d="M63.4,33.5l-4.8,2.9c4.2,6.9,7,13.1,8.1,18.4l5.5-1.1C70.9,47.7,67.9,40.9,63.4,33.5z"/>
	</g>
</g>
</svg>
