<?xml version="1.0" encoding="utf-8"?>
<!-- Generator: Adobe Illustrator 26.3.1, SVG Export Plug-In . SVG Version: 6.00 Build 0)  -->
<svg version="1.1" id="Layer_1" xmlns="http://www.w3.org/2000/svg" xmlns:xlink="http://www.w3.org/1999/xlink" x="0px" y="0px"
	 viewBox="0 0 300 244" style="enable-background:new 0 0 300 244;" xml:space="preserve">
<style type="text/css">
	.st0{fill:#A3421A;}
	.st1{fill:url(#SVGID_1_);}
	.st2{fill:url(#SVGID_00000178921108839172589760000008003653504699777445_);}
</style>
<path class="st0" d="M293.8,132.7c-5-37.8-28-78.2-48.5-101.5c-7.7-8.7-14.5-8.2-17-7.6c-0.6,0.1-1,0.5-1.2,1.1
	c-0.3,1-0.2,1.9,4.4,6.9c17.5,19.3,39.9,57.5,45.3,101.2c4.6,36.9,1.4,57-11.8,74.5c-9.1,12.2-21.2,17.5-40.4,17.9
	c-10.2,0-29.4,0-29.7,0c-21.5-0.4-37.9-5.5-48.6-15c-16.4-14.5-26-44.2-25.6-79.4c0.1-9.6,1.2-18.9,2.2-27.9c2-17.4,4.1-35.4-0.5-57
	c-2-9.7-7.2-22.6-15.6-29.7c-9.3-7.9-14.2-8.6-23-8.2C69.5,8.8,56.9,17.8,50,25.3S31.3,45,22.3,65.7C8.5,97.3,4.1,122.7,4,156.3
	c-0.1,32.4,5.1,52.7,16.4,66.2C31.6,236,40,243.8,76.5,244c0,0,129.5,0,154.9,0s36-8.6,49.3-26.1C295,199.1,299.1,172.9,293.8,132.7
	z"/>
<linearGradient id="SVGID_1_" gradientUnits="userSpaceOnUse" x1="99.6994" y1="-835.5" x2="99.6994" y2="-611.0579" gradientTransform="matrix(1 0 0 -1 0 -598)">
	<stop  offset="0" style="stop-color:#B36F13"/>
	<stop  offset="0.2" style="stop-color:#E0952F"/>
	<stop  offset="0.5" style="stop-color:#F6A814"/>
	<stop  offset="1" style="stop-color:#FFD400"/>
</linearGradient>
<path class="st1" d="M181.3,237.5c-10.3,0-32.4-3-46.4-20.6c-11.8-14.7-19.6-31-23.9-59s2.6-48.3,5.7-73.3S116,30.2,100.4,19
	c-12.6-9-23.7-5.4-26.8-4.3c-0.4,0.2-0.8,0.3-1.2,0.5C59.6,21,43.5,34.9,29.7,66.3c-13.8,31.5-19.1,56.5-19.2,90
	c-0.1,36.2,6.4,52.5,16.6,63.9c13.4,15.2,22.2,17.2,49.7,17.2c18.6,0,76.4,0,112.1,0l0,0C185.9,237.5,183.3,237.5,181.3,237.5z"/>
<linearGradient id="SVGID_00000004519852606878547700000010662854128626165176_" gradientUnits="userSpaceOnUse" x1="149.181" y1="-831.051" x2="187.1239" y2="-615.8661" gradientTransform="matrix(1 0 0 -1 0 -598)">
	<stop  offset="0" style="stop-color:#F6A814"/>
	<stop  offset="0.1582" style="stop-color:#F7AD12"/>
	<stop  offset="0.3559" style="stop-color:#FABD0B"/>
	<stop  offset="0.5578" style="stop-color:#FFD400"/>
	<stop  offset="0.5606" style="stop-color:#FFD400"/>
	<stop  offset="0.7223" style="stop-color:#FABC0B"/>
	<stop  offset="0.872" style="stop-color:#F7AD12"/>
	<stop  offset="0.9974" style="stop-color:#F6A814"/>
</linearGradient>
<path style="fill:url(#SVGID_00000004519852606878547700000010662854128626165176_);" d="M286.3,132.9c-5-37.6-28.4-78.1-48.3-100.7
	c-1.3-1.4-3.1-3.7-5.4-5.9c-1.2-1.2-4.3-1.2,0.7,4.3c19.8,22,40.6,60.6,45.7,102c5,40,0.3,59.2-12.1,75.7
	c-10.6,14-24.5,18.1-41.7,18.5c0,0-29.8,0-29.9,0c-17.2-0.3-36.6-3.7-49.7-15.3c-19.5-17.2-26.5-51.1-26.2-80.5
	c0.3-28.2,8.7-52,1.8-84.6c-1.9-9.2-6.9-21.9-15.1-28.9C97,9.8,92.3,9.3,84,9.7c-12,0.5-21,7.8-25.7,13.4c-1.8,2.2-2.1,3.2-1.1,2.3
	c7.3-6.4,25.2-17.8,41.1-6.5c15.7,11.2,19.5,40.6,16.3,65.6s-10,45.4-5.7,73.3s12.1,44.4,23.9,59c14,17.4,36.1,20.6,46.4,20.6
	c8,0,34.6,0,36.9,0c3.7,0,9.7,0,16.1,0c10.3,0,27.7-2.7,41.3-20.6C289.4,196.2,290.8,166.8,286.3,132.9z"/>
</svg>
