<?xml version="1.0" encoding="utf-8"?>
<!-- Generator: Adobe Illustrator 26.3.1, SVG Export Plug-In . SVG Version: 6.00 Build 0)  -->
<svg version="1.1" id="Layer_1" xmlns="http://www.w3.org/2000/svg" xmlns:xlink="http://www.w3.org/1999/xlink" x="0px" y="0px"
	 viewBox="0 0 280 240" style="enable-background:new 0 0 280 240;" xml:space="preserve">
<style type="text/css">
	.st0{fill:url(#SVGID_1_);}
	.st1{fill:#A3421A;}
	.st2{fill:url(#SVGID_00000021107786753283526750000001087615719529585333_);}
	.st3{fill:url(#SVGID_00000173850968388048864670000010567411296867066752_);}
</style>
<linearGradient id="SVGID_1_" gradientUnits="userSpaceOnUse" x1="297.5847" y1="229.4796" x2="297.5847" y2="10.3587" gradientTransform="matrix(-1 0 0 1 471.5211 0)">
	<stop  offset="0" style="stop-color:#B15E00"/>
	<stop  offset="0.3651" style="stop-color:#E18714"/>
	<stop  offset="1" style="stop-color:#FFB810"/>
</linearGradient>
<path class="st0" d="M85.4,229.5c11.2,0,35.1-3,50.3-20.1c12.8-14.3,21.3-30.3,25.9-57.7c4.6-27.4-2.8-47.2-6.2-71.7
	c-3.4-24.5,0.7-53.1,17.7-64.2c13.6-8.8,26.7-4.6,30.1-3.6c13.7,4,31.7,19.1,46.6,49.9c14.9,30.8,20.8,55.2,20.9,88
	c0.1,35.4-7,51.3-18,62.5c-14.6,14.9-24.1,16.9-54,16.9c-20.2,0-82.9,0-121.6,0c0,0,0,0,0,0C80.3,229.5,83.2,229.5,85.4,229.5z"/>
<path class="st1" d="M277.8,126.9c-2.7-20.1-10.2-42.9-21.3-64.2c-10.4-20.1-22.8-36.8-34.2-45.8c-6.8-5.4-17-12.5-27.5-11.2
	c-2.1,0.3-3.5,1.3-3.5,2.6c0,0.8,0.6,1.7,2.1,1.9c8.4,0.7,16.6,4.7,23.7,11.6C237.9,42,260.6,82.1,264.5,126
	c3.2,36,0,57.8-10.8,72.7c-9.7,13.5-21.4,16.3-38.3,16.6c-10.2,0-29.4,0-29.7,0c-18.2-0.4-31.6-5.2-43.5-15.8
	c-14.7-13-25.9-45.7-25.6-74.4c0.1-9.3,1.5-18.4,2.8-27.2c2.7-17.5,5.4-35.6-1.1-57.8c-3.7-12.4-9.6-21.9-17.6-28.2
	c-10-7.9-15.9-9.2-24-9C64.4,3.3,53.7,9.6,45,21.7c-0.2,0.2-0.3,0.4-0.4,0.6c-9.6,9.6-18.4,22.9-25.3,38.5
	C5.5,92.1,0.1,117.1,0,150.3c-0.1,32,4.8,50.6,16.9,64.1C30.7,229.9,39.6,232,67.5,232l115.3,0l0,0h39.5c12,0,29-3.6,42.4-20.8
	C279,192.6,283.1,166.7,277.8,126.9z"/>
<path class="st1" d="M276.9,126.4c-2.7-20-10.2-42.7-21.1-63.9c-10.3-20-22.7-36.6-34-45.6c-6.7-5.4-16.9-12.4-27.3-11.1
	C192.4,6,191,7,191,8.4c0,0.8,0.6,1.7,2.1,1.9c8.4,0.7,16.5,4.7,23.5,11.5c20.6,20.1,43.2,60,47.1,103.8c3.2,35.9,0,57.5-10.7,72.4
	c-9.6,13.4-21.3,16.2-38.1,16.6c-10.1,0-29.2,0-29.5,0c-18.1-0.4-31.4-5.2-43.2-15.7c-14.6-13-25.8-45.5-25.4-74
	c0.1-9.3,1.5-18.3,2.8-27.1c2.7-17.4,5.4-35.4-1.1-57.5c-3.7-12.4-9.5-21.8-17.5-28.1C91,4.1,85.2,2.8,77.2,3
	C64.9,3.3,54.3,9.6,45.6,21.6c-0.2,0.2-0.3,0.4-0.4,0.6C35.6,31.8,26.9,45,20.1,60.6C6.4,91.7,1,116.6,0.9,149.7
	c-0.1,31.8,4.8,50.3,16.8,63.9C31.4,228.9,40.2,231,68,231l114.5,0l0,0h39.3c11.9,0,28.8-3.6,42.1-20.8
	C278.1,191.8,282.1,165.9,276.9,126.4z"/>
<linearGradient id="SVGID_00000072997973055856260470000016380727436876081793_" gradientUnits="userSpaceOnUse" x1="90.6744" y1="229.4796" x2="90.6744" y2="8.7659">
	<stop  offset="0" style="stop-color:#B36F13"/>
	<stop  offset="0.2" style="stop-color:#E0952F"/>
	<stop  offset="0.5" style="stop-color:#F6A814"/>
	<stop  offset="1" style="stop-color:#FFD400"/>
</linearGradient>
<path style="fill:url(#SVGID_00000072997973055856260470000016380727436876081793_);" d="M171.4,229.5c-10.2,0-32-3-45.9-20.2
	c-11.7-14.4-19.4-30.5-23.6-58c-4.2-27.5,2.6-47.5,5.7-72.1c3.1-24.6-0.7-53.4-16.2-64.5C79,5.7,67.9,9.4,64.9,10.4
	c-0.4,0.2-0.8,0.3-1.2,0.5c-11,4.4-28.6,19.4-42.2,50.3c-13.6,30.9-19,55.5-19.1,88.5c-0.1,35.6,6.4,51.6,16.4,62.9
	c13.3,15,21.9,17,49.2,17c18.4,0,75.6,0,110.9,0c0,0,0,0,0,0C176,229.5,173.4,229.5,171.4,229.5z"/>
<linearGradient id="SVGID_00000026874680760937521510000016094814865408829329_" gradientUnits="userSpaceOnUse" x1="139.8233" y1="225.2141" x2="178.8199" y2="4.0535">
	<stop  offset="0" style="stop-color:#F6A814"/>
	<stop  offset="0.1582" style="stop-color:#F7AD12"/>
	<stop  offset="0.3559" style="stop-color:#FABD0B"/>
	<stop  offset="0.5578" style="stop-color:#FFD400"/>
	<stop  offset="0.5606" style="stop-color:#FFD400"/>
	<stop  offset="0.7223" style="stop-color:#FABC0B"/>
	<stop  offset="0.872" style="stop-color:#F7AD12"/>
	<stop  offset="0.9974" style="stop-color:#F6A814"/>
</linearGradient>
<path style="fill:url(#SVGID_00000026874680760937521510000016094814865408829329_);" d="M275.4,126.6
	c-5.7-42.4-32.8-88.8-54.5-107.6c-6.7-5.8-16.6-12.5-26.2-11.3c-2,0.2-2.9,0.9-1.4,1c9.5,0.8,17.8,5.5,24.4,11.9
	c20.9,20.4,43.6,60.2,47.5,104.7c3.5,39.7-1.2,59.9-11,73.4c-10.1,14-22.3,16.8-39.3,17.2c0,0-29.5,0-29.6,0
	c-17-0.3-31.3-4.6-44.2-16.1c-15-13.3-26.3-46.2-25.9-75.2c0.3-27.6,11.5-51.2,1.8-84.2c-2.6-8.9-7.4-19.8-16.9-27.4
	c-9.3-7.3-14.6-8.9-22.9-8.7c-13.8,0.4-22.8,8.7-27.4,14.2c-1.8,2.1-2.1,3.1-1.1,2.3c7.2-6.3,24.9-17.5,40.7-6.4
	c15.6,11,19.3,39.9,16.2,64.5c-3.1,24.6-9.9,44.6-5.7,72.1c4.2,27.5,12,43.6,23.6,58c13.9,17.2,35.7,20.2,45.9,20.2
	c7.9,0,34.3,0,36.5,0c3.6,0,9.6,0,15.9,0c10.2,0,27.4-2.7,40.9-20.2C278.5,188.9,279.8,160,275.4,126.6z"/>
</svg>
