<?xml version="1.0" encoding="utf-8"?>
<!-- Generator: Adobe Illustrator 26.3.1, SVG Export Plug-In . SVG Version: 6.00 Build 0)  -->
<svg version="1.1" id="Layer_1" xmlns="http://www.w3.org/2000/svg" xmlns:xlink="http://www.w3.org/1999/xlink" x="0px" y="0px"
	 viewBox="0 0 280 240" style="enable-background:new 0 0 280 240;" xml:space="preserve">
<style type="text/css">
	.st0{fill:url(#SVGID_1_);}
	.st1{fill:#A3421A;}
	.st2{fill:url(#SVGID_00000036950459104132227340000016270496375632340869_);}
	.st3{fill:url(#SVGID_00000011011263446541798820000002912872719516645004_);}
</style>
<linearGradient id="SVGID_1_" gradientUnits="userSpaceOnUse" x1="175.0763" y1="217" x2="175.0763" y2="2.9716">
	<stop  offset="0" style="stop-color:#500C96"/>
	<stop  offset="6.491959e-02" style="stop-color:#551DA5"/>
	<stop  offset="0.1915" style="stop-color:#5D37BE"/>
	<stop  offset="0.3313" style="stop-color:#634BD1"/>
	<stop  offset="0.4894" style="stop-color:#6759DE"/>
	<stop  offset="0.6811" style="stop-color:#6961E6"/>
	<stop  offset="1" style="stop-color:#6A64E8"/>
</linearGradient>
<path class="st0" d="M237.2,41.6L220,23c-1-11.6-11.6-20-23.8-20c-12.2,0-84,0-97.1,0C86.6,2.9,79,15.5,79,27.5
	c0,1.8,0,189.5,0,189.5h171.4l14.5-36.9l6.3-36.4L260.7,85L237.2,41.6z"/>
<path class="st1" d="M277.9,126.9c-3.9-32.5-26.6-85.3-54.3-112.2c-5.2-5.1-7.9-4.1-9.1-3c-2.1,1.9-1.2,5.9,2.3,10.1
	c15.8,19.2,42.9,58.4,47,104.3c3.2,35.7,0,57.3-10.6,72.1c-9.5,13.2-21,16-37.7,16.4c-10.1,0-29.2,0-29.5,0
	c-18-0.4-31.2-5.2-42.9-15.6c-14.5-12.9-25.6-45.3-25.3-73.7c0.1-9.2,1.4-17.9,2.8-27c2.7-17.5,5.4-35.6-1.1-57.7
	c-3.7-12.5-9.6-22-17.6-28.4C92.9,5,87,2.8,77.7,3C65.3,3.4,54.5,9.7,45.8,21.8c-0.2,0.2-0.3,0.4-0.4,0.6
	C35.8,32,27.1,45.3,20.2,60.9C6.5,92,1.1,117.1,1,150.2c-0.1,32,4.8,50.6,16.9,64.2c12.3,13.9,20,17.6,50.7,17.6l115.7,0l0,0h38.1
	c12,0,29.1-3.6,42.5-21C282.5,188.2,281.4,155.7,277.9,126.9z"/>
<linearGradient id="SVGID_00000010308835810157120960000006041642565564771254_" gradientUnits="userSpaceOnUse" x1="91.2556" y1="230.0002" x2="91.2556" y2="9.2865">
	<stop  offset="0" style="stop-color:#B36F13"/>
	<stop  offset="0.2" style="stop-color:#E0952F"/>
	<stop  offset="0.5" style="stop-color:#F6A814"/>
	<stop  offset="1" style="stop-color:#FFD400"/>
</linearGradient>
<path style="fill:url(#SVGID_00000010308835810157120960000006041642565564771254_);" d="M172,230c-10.2,0-32-3-45.9-20.2
	c-11.7-14.4-19.4-30.5-23.6-58c-4.2-27.5,2.6-47.5,5.7-72.1c3.1-24.6-0.7-53.4-16.2-64.5c-12.4-8.9-23.5-5.2-26.5-4.2
	c-0.4,0.2-0.8,0.3-1.2,0.5c-11,4.4-28.6,19.4-42.2,50.3C8.4,92.6,3.1,117.2,3,150.2c-0.1,35.6,6.4,51.6,16.4,62.9
	c13.3,15,21.9,17,49.2,17c18.4,0,75.6,0,110.9,0c0,0,0,0,0,0C176.6,230,174,230,172,230z"/>
<linearGradient id="SVGID_00000063599424011007822540000018182289037632064167_" gradientUnits="userSpaceOnUse" x1="139.627" y1="225.5976" x2="178.3546" y2="5.9625">
	<stop  offset="0" style="stop-color:#F6A814"/>
	<stop  offset="0.1582" style="stop-color:#F7AD12"/>
	<stop  offset="0.3559" style="stop-color:#FABD0B"/>
	<stop  offset="0.5578" style="stop-color:#FFD400"/>
	<stop  offset="0.5606" style="stop-color:#FFD400"/>
	<stop  offset="0.7223" style="stop-color:#FABC0B"/>
	<stop  offset="0.872" style="stop-color:#F7AD12"/>
	<stop  offset="0.9974" style="stop-color:#F6A814"/>
</linearGradient>
<path style="fill:url(#SVGID_00000063599424011007822540000018182289037632064167_);" d="M275.9,127.1c-3.9-32.8-26.9-85-53.7-111
	c-6.9-6.7-9.2-2.1-3.9,4.4c18.5,22.5,43.5,60.9,47.4,105.4c3.5,39.7-1.2,59.9-11,73.4c-10.1,14-22.3,16.8-39.3,17.2
	c0,0-29.5,0-29.6,0c-17-0.3-31.3-4.6-44.2-16.1c-15-13.3-26.3-46.2-25.9-75.2c0.3-27.6,11.5-51.2,1.8-84.2
	c-2.6-8.9-7.4-19.8-16.9-27.4C91.4,6.4,86,4.8,77.8,5c-19.2,0.5-29,16.3-30.9,18.7c4.6-4.9,25.1-21.4,43.1-8.7
	c15.6,11,19.3,39.9,16.2,64.5s-9.9,44.6-5.7,72.1s12,43.6,23.6,58C138,227,159.8,230,170,230c7.9,0,34.3,0,36.5,0
	c3.6,0,9.6,0,15.9,0c10.2,0,27.4-2.7,40.9-20.2C279,189.4,279.9,160.6,275.9,127.1z"/>
</svg>
