<?xml version="1.0" encoding="utf-8"?>
<!-- Generator: Adobe Illustrator 26.3.1, SVG Export Plug-In . SVG Version: 6.00 Build 0)  -->
<svg version="1.1" id="Layer_1" xmlns="http://www.w3.org/2000/svg" xmlns:xlink="http://www.w3.org/1999/xlink" x="0px" y="0px"
	 viewBox="0 0 300 240" style="enable-background:new 0 0 300 240;" xml:space="preserve">
<style type="text/css">
	.st0{fill:url(#SVGID_1_);}
	.st1{fill:#A3421A;}
	.st2{fill:url(#SVGID_00000052799504749670005170000006243885147443716231_);}
	.st3{fill:url(#SVGID_00000036938983160265427300000012421035097130228113_);}
</style>
<linearGradient id="SVGID_1_" gradientUnits="userSpaceOnUse" x1="331.0943" y1="2.5192" x2="331.0943" y2="225.2065" gradientTransform="matrix(-1 0 0 -1 511.5211 240)">
	<stop  offset="0" style="stop-color:#B15E00"/>
	<stop  offset="0.3651" style="stop-color:#E18714"/>
	<stop  offset="1" style="stop-color:#FFB810"/>
</linearGradient>
<path class="st0" d="M90.2,237.5c11.2,0,35.2-3,50.5-20.4c12.8-14.6,21.3-30.8,26-58.6c4.6-27.9-2.8-48-6.2-72.9
	s-0.5-50.4,15.8-62.8c9.1-6.9,23-9.8,32.9-6.8c13.8,4.3,33.8,25.2,46.4,50.6c15.4,31,23.2,56.6,23.3,89.9c0.1,36-9.7,52.3-20.8,63.7
	c-14.6,15.1-24.1,17.1-54.1,17.1c-20.2,0-83.1,0-122,0l0,0C85.2,237.5,88.1,237.5,90.2,237.5z"/>
<path class="st1" d="M291.8,132.7c-5-37.8-28-78.2-48.5-101.5c-7.7-8.7-12.5-8.2-15-7.6c-0.6,0.1-1,0.5-1.2,1.1
	c-0.3,1-0.2,1.9,4.4,6.9c17.5,19.3,39.9,57.5,45.3,101.2c4.6,36.9,1.4,57-11.8,74.5c-9.1,12.2-21.2,17.5-40.4,17.9
	c-10.2,0-29.4,0-29.7,0c-21.5-0.4-37.9-5.5-48.6-15c-16.4-14.5-26-44.2-25.6-79.4c0.1-9.6,1.2-18.9,2.2-27.9c2-17.4,4.1-35.4-0.5-57
	c-2-9.7-7.2-22.6-15.6-29.7c-9.3-7.9-14.2-8.6-23-8.2C69.5,8.8,60.3,18.1,57,22.2c-1.1,1.3-1.8,2.2-2,3.1
	C47.7,32.4,37.3,45,28.3,65.7C14.5,97.3,9.1,122.7,9,156.3c-0.1,32.4,4.8,51.1,16.9,64.9C39.7,236.9,48.6,239,76.5,239h154.9
	c12,0,34-3.6,47.3-21.1C293,199.1,297.1,172.9,291.8,132.7z"/>
<linearGradient id="SVGID_00000170271346855983782100000015703529879224216744_" gradientUnits="userSpaceOnUse" x1="99.6758" y1="2.5192" x2="99.6758" y2="227.0033" gradientTransform="matrix(1 0 0 -1 0 240)">
	<stop  offset="0" style="stop-color:#B36F13"/>
	<stop  offset="0.2" style="stop-color:#E0952F"/>
	<stop  offset="0.5" style="stop-color:#F6A814"/>
	<stop  offset="1" style="stop-color:#FFD400"/>
</linearGradient>
<path style="fill:url(#SVGID_00000170271346855983782100000015703529879224216744_);" d="M181.3,237.5c-10.3,0-32.4-3-46.4-20.6
	c-11.8-14.7-19.6-31-23.9-59s2.6-48.3,5.7-73.3s-0.7-54.4-16.3-65.6c-12.6-9-23.7-5.4-26.8-4.3c-0.4,0.2-0.8,0.3-1.2,0.5
	c-11.1,4.6-28.9,19.7-42.7,51.1C16,97.7,10.6,122.8,10.5,156.3c-0.1,36.2,6.4,52.5,16.6,63.9c13.4,15.2,22.2,17.2,49.7,17.2
	c18.6,0,76.4,0,112.1,0l0,0C185.9,237.5,183.3,237.5,181.3,237.5z"/>
<linearGradient id="SVGID_00000109717832942533397930000010944179759995391148_" gradientUnits="userSpaceOnUse" x1="149.1422" y1="6.8593" x2="187.1488" y2="222.4052" gradientTransform="matrix(1 0 0 -1 0 240)">
	<stop  offset="0" style="stop-color:#F6A814"/>
	<stop  offset="0.1582" style="stop-color:#F7AD12"/>
	<stop  offset="0.3559" style="stop-color:#FABD0B"/>
	<stop  offset="0.5578" style="stop-color:#FFD400"/>
	<stop  offset="0.5606" style="stop-color:#FFD400"/>
	<stop  offset="0.7223" style="stop-color:#FABC0B"/>
	<stop  offset="0.872" style="stop-color:#F7AD12"/>
	<stop  offset="0.9974" style="stop-color:#F6A814"/>
</linearGradient>
<path style="fill:url(#SVGID_00000109717832942533397930000010944179759995391148_);" d="M286.3,132.9c-5-37.6-28.4-78.1-48.3-100.7
	c-5.1-5.7-14.1-12-4.7-1.6c19.8,22,40.6,60.6,45.7,102c5,40,0.3,59.2-12.1,75.7c-10.6,14-24.5,18.1-41.7,18.5c0,0-29.8,0-29.9,0
	c-17.2-0.3-36.6-3.7-49.7-15.3c-19.5-17.2-26.5-51.1-26.2-80.5c0.3-28.2,8.7-52,1.8-84.6c-1.9-9.2-6.9-21.9-15.1-28.9
	C97,9.8,92.3,9.3,84,9.7c-12,0.5-21,7.8-25.7,13.4c-1.8,2.2-2.1,3.2-1.1,2.3c7.3-6.4,25.2-17.8,41.1-6.5
	c15.7,11.2,19.5,40.6,16.3,65.6s-10,45.4-5.7,73.3s12.1,44.4,23.9,59c14,17.4,36.1,20.6,46.4,20.6c8,0,34.6,0,36.9,0
	c3.7,0,9.7,0,16.1,0c10.3,0,27.7-2.7,41.3-20.6C289.4,196.2,290.8,166.8,286.3,132.9z"/>
</svg>
