<?xml version="1.0" encoding="utf-8"?>
<!-- Generator: Adobe Illustrator 26.3.1, SVG Export Plug-In . SVG Version: 6.00 Build 0)  -->
<svg version="1.1" id="Layer_1" xmlns="http://www.w3.org/2000/svg" xmlns:xlink="http://www.w3.org/1999/xlink" x="0px" y="0px"
	 viewBox="0 0 300 244" style="enable-background:new 0 0 300 244;" xml:space="preserve">
<style type="text/css">
	.st0{fill:url(#SVGID_1_);}
	.st1{fill:#A3421A;}
	.st2{fill:url(#SVGID_00000142137514445218908700000007995988039283956143_);}
	.st3{fill:url(#SVGID_00000140733175959143405000000003192716024273517207_);}
</style>
<linearGradient id="SVGID_1_" gradientUnits="userSpaceOnUse" x1="537.0707" y1="177.5" x2="537.0707" y2="-45.1774" gradientTransform="matrix(-1 0 0 1 717.5211 57)">
	<stop  offset="0" style="stop-color:#B15E00"/>
	<stop  offset="0.3651" style="stop-color:#E18714"/>
	<stop  offset="1" style="stop-color:#FFB810"/>
</linearGradient>
<path class="st0" d="M90.2,234.5c11.2,0,35.2-3,50.5-20.4c12.8-14.6,21.3-30.8,26-58.6c4.6-27.9-2.8-48-6.2-72.9
	s-0.5-50.4,15.8-62.8c9.1-6.9,23-9.8,32.9-6.8c13.8,4.3,33.8,25.2,46.4,50.6c15.4,31,23.2,56.6,23.3,89.9c0.1,36-9.7,52.3-20.8,63.7
	c-14.6,15.1-24.1,17.1-54.1,17.1c-20.2,0-83.1,0-122,0l0,0C85.2,234.5,88.1,234.5,90.2,234.5z"/>
<path class="st1" d="M293.8,129.7c-5-37.8-28-78.2-48.5-101.5c-7.7-8.7-14.5-8.2-17-7.6c-0.6,0.1-1,0.5-1.2,1.1
	c-0.3,1-0.2,1.9,4.4,6.9c17.5,19.3,39.9,57.5,45.3,101.2c4.6,36.9,1.4,57-11.8,74.5c-9.1,12.2-21.2,17.5-40.4,17.9
	c-10.2,0-29.4,0-29.7,0c-21.5-0.4-37.9-5.5-48.6-15c-16.4-14.5-26-44.2-25.6-79.4c0.1-9.6,1.2-18.9,2.2-27.9c2-17.4,4.1-35.4-0.5-57
	c-2-9.7-7.2-22.6-15.6-29.7c-9.3-7.9-14.2-8.6-23-8.2C69.5,5.8,56.9,14.8,50,22.3S31.3,42,22.3,62.7C8.5,94.3,4.1,119.7,4,153.3
	c-0.1,32.4,5.1,52.7,16.4,66.2C31.6,233,40,240.8,76.5,241c0,0,129.5,0,154.9,0s36-8.6,49.3-26.1C295,196.1,299.1,169.9,293.8,129.7
	z"/>
<linearGradient id="SVGID_00000175284163664160072100000010549681535187987118_" gradientUnits="userSpaceOnUse" x1="99.6994" y1="-834.5" x2="99.6994" y2="-610.0579" gradientTransform="matrix(1 0 0 -1 0 -600)">
	<stop  offset="0" style="stop-color:#B36F13"/>
	<stop  offset="0.2" style="stop-color:#E0952F"/>
	<stop  offset="0.5" style="stop-color:#F6A814"/>
	<stop  offset="1" style="stop-color:#FFD400"/>
</linearGradient>
<path style="fill:url(#SVGID_00000175284163664160072100000010549681535187987118_);" d="M181.3,234.5c-10.3,0-32.4-3-46.4-20.6
	c-11.8-14.7-19.6-31-23.9-59s2.6-48.3,5.7-73.3S116,27.2,100.4,16c-12.6-9-23.7-5.4-26.8-4.3c-0.4,0.2-0.8,0.3-1.2,0.5
	C59.6,18,43.5,31.9,29.7,63.3c-13.8,31.5-19.1,56.5-19.2,90c-0.1,36.2,6.4,52.5,16.6,63.9c13.4,15.2,22.2,17.2,49.7,17.2
	c18.6,0,76.4,0,112.1,0l0,0C185.9,234.5,183.3,234.5,181.3,234.5z"/>
<linearGradient id="SVGID_00000138533208123354016240000004542192665532281740_" gradientUnits="userSpaceOnUse" x1="149.181" y1="-830.051" x2="187.1239" y2="-614.8661" gradientTransform="matrix(1 0 0 -1 0 -600)">
	<stop  offset="0" style="stop-color:#F6A814"/>
	<stop  offset="0.1582" style="stop-color:#F7AD12"/>
	<stop  offset="0.3559" style="stop-color:#FABD0B"/>
	<stop  offset="0.5578" style="stop-color:#FFD400"/>
	<stop  offset="0.5606" style="stop-color:#FFD400"/>
	<stop  offset="0.7223" style="stop-color:#FABC0B"/>
	<stop  offset="0.872" style="stop-color:#F7AD12"/>
	<stop  offset="0.9974" style="stop-color:#F6A814"/>
</linearGradient>
<path style="fill:url(#SVGID_00000138533208123354016240000004542192665532281740_);" d="M286.3,129.9c-5-37.6-28.4-78.1-48.3-100.7
	c-1.3-1.4-3.1-3.7-5.4-5.9c-1.2-1.2-4.3-1.2,0.7,4.3c19.8,22,40.6,60.6,45.7,102c5,40,0.3,59.2-12.1,75.7
	c-10.6,14-24.5,18.1-41.7,18.5c0,0-29.8,0-29.9,0c-17.2-0.3-36.6-3.7-49.7-15.3c-19.5-17.2-26.5-51.1-26.2-80.5
	c0.3-28.2,8.7-52,1.8-84.6c-1.9-9.2-6.9-21.9-15.1-28.9C97,6.8,92.3,6.3,84,6.7c-12,0.5-21,7.8-25.7,13.4c-1.8,2.2-2.1,3.2-1.1,2.3
	c7.3-6.4,25.2-17.8,41.1-6.5c15.7,11.2,19.5,40.6,16.3,65.6s-10,45.4-5.7,73.3s12.1,44.4,23.9,59c14,17.4,36.1,20.6,46.4,20.6
	c8,0,34.6,0,36.9,0c3.7,0,9.7,0,16.1,0c10.3,0,27.7-2.7,41.3-20.6C289.4,193.2,290.8,163.8,286.3,129.9z"/>
</svg>
