<?xml version="1.0" encoding="utf-8"?>
<!-- Generator: Adobe Illustrator 26.3.1, SVG Export Plug-In . SVG Version: 6.00 Build 0)  -->
<svg version="1.1" id="Layer_1" xmlns="http://www.w3.org/2000/svg" xmlns:xlink="http://www.w3.org/1999/xlink" x="0px" y="0px"
	 viewBox="0 0 332 418" style="enable-background:new 0 0 332 418;" xml:space="preserve">
<style type="text/css">
	.st0{fill:url(#SVGID_1_);}
	.st1{fill:url(#SVGID_00000070831254850357530170000006231792460869017223_);}
	.st2{fill:#BE661A;}
</style>
<linearGradient id="SVGID_1_" gradientUnits="userSpaceOnUse" x1="166" y1="0" x2="166" y2="418">
	<stop  offset="0" style="stop-color:#FFFFFF;stop-opacity:0"/>
	<stop  offset="1" style="stop-color:#FFFF00;stop-opacity:0.6"/>
	<stop  offset="1" style="stop-color:#00FFFF;stop-opacity:0.5"/>
</linearGradient>
<rect class="st0" width="332" height="418"/>
<linearGradient id="SVGID_00000088811486210761776310000017964279496552599722_" gradientUnits="userSpaceOnUse" x1="139" y1="236.2476" x2="313" y2="236.2476">
	<stop  offset="0" style="stop-color:#BE661A"/>
	<stop  offset="1" style="stop-color:#FF9000"/>
</linearGradient>
<path style="fill:url(#SVGID_00000088811486210761776310000017964279496552599722_);" d="M225.6,133c-19.7,0-36.3,7.1-49.3,21.2
	c-11.1,12.1-19.7,29.5-25.7,51.9c-10.8,40.3-11.7,89.7-11.7,133.4h174c0-43.7-0.9-93.1-11.7-133.3c-6-22.4-14.6-39.8-25.8-51.9
	c-13-14.1-29.6-21.2-49.5-21.3H225.6L225.6,133z"/>
<path class="st2" d="M226,137.4c-79.9-0.3-83,118.2-83,202.1H309C309,255.6,305.9,137.8,226,137.4z M191.2,266.4
	c-0.9,0-1.6-1-1.6-2.3s0.7-2.3,1.6-2.3s1.6,1,1.6,2.3C192.8,265.5,192.1,266.4,191.2,266.4z M202.1,212.1c-0.8,0-1.5-0.8-1.5-1.7
	c0-1,0.6-1.7,1.5-1.7c0.8,0,1.5,0.8,1.5,1.7C203.5,211.3,202.9,212.1,202.1,212.1z M209.8,288.3c-1.4,0-2.4-1.6-2.4-3.5
	c0-1.9,1.1-3.5,2.4-3.5c1.3,0,2.4,1.6,2.4,3.5C212.3,286.7,211.2,288.3,209.8,288.3z M214.3,156.7c-0.9,0-1.6-0.9-1.6-2
	c0-1.1,0.7-2,1.6-2c0.9,0,1.6,0.9,1.6,2C215.9,155.8,215.2,156.7,214.3,156.7z M226.2,244.3c-1.4,0-2.5-1.4-2.5-3.1
	c0-1.7,1.1-3.1,2.5-3.1s2.5,1.4,2.5,3.1C228.8,242.9,227.6,244.3,226.2,244.3z M238,208.5c0-1.7,1.1-3.1,2.4-3.1
	c1.4,0,2.4,1.4,2.4,3.1c0,1.7-1.1,3.1-2.4,3.1C239,211.5,238,210.1,238,208.5z M263.9,183.1c-1.8,0-3.2-1.8-3.2-4c0-2.3,1.5-4,3.2-4
	c1.8,0,3.2,1.8,3.2,4S265.7,183.1,263.9,183.1z M273.6,239.8c-0.9,0-1.6-0.9-1.6-2s0.7-2,1.6-2s1.6,0.9,1.6,2
	S274.5,239.8,273.6,239.8z M284.7,320.9c-0.9,0-1.6-0.9-1.6-2s0.7-2,1.6-2c0.9,0,1.6,0.9,1.6,2S285.6,320.9,284.7,320.9z
	 M291.6,281.4c-2,0-3.6-2-3.6-4.5c0-2.5,1.6-4.5,3.6-4.5s3.6,2,3.6,4.5C295.2,279.4,293.6,281.4,291.6,281.4z"/>
</svg>
