<?xml version="1.0" encoding="utf-8"?>
<!-- Generator: Adobe Illustrator 26.3.1, SVG Export Plug-In . SVG Version: 6.00 Build 0)  -->
<svg version="1.1" id="Layer_1" xmlns="http://www.w3.org/2000/svg" xmlns:xlink="http://www.w3.org/1999/xlink" x="0px" y="0px"
	 viewBox="0 0 332 320" style="enable-background:new 0 0 332 320;" xml:space="preserve">
<style type="text/css">
	.st0{fill:url(#SVGID_1_);}
	.st1{fill:#FF7F00;}
	.st2{fill:url(#SVGID_00000101094418074465231900000012604612025308176062_);}
	.st3{fill:#8F4600;}
</style>
<linearGradient id="SVGID_1_" gradientUnits="userSpaceOnUse" x1="166" y1="454" x2="166" y2="134" gradientTransform="matrix(1 0 0 -1 0 454)">
	<stop  offset="0" style="stop-color:#FFFFFF;stop-opacity:0"/>
	<stop  offset="1" style="stop-color:#FFFF00;stop-opacity:0.6"/>
	<stop  offset="1" style="stop-color:#00FFFF;stop-opacity:0.5"/>
</linearGradient>
<rect class="st0" width="332" height="320"/>
<path class="st1" d="M231.5,63.5h-0.4c-18.7,0.1-34.3,7-46.6,20.6c-10.5,11.6-18.6,28.5-24.2,50.2c-8.6,33-10.5,72.8-10.9,109.9V279
	c54.5,0,109.9,0,135.4,0c15.3,0,27.7-7.4,27.8-21.2c-0.1-40.8-1.3-86.4-10.8-123.5c-5.7-21.7-13.7-38.5-24.1-50.2
	C265.7,70.4,250.1,63.5,231.5,63.5L231.5,63.5z"/>
<g>
	
		<linearGradient id="SVGID_00000118384574448704782830000008412646166412037514_" gradientUnits="userSpaceOnUse" x1="231.2" y1="253" x2="231.2" y2="44.6" gradientTransform="matrix(1 0 0 -1 0 320)">
		<stop  offset="0" style="stop-color:#FAB137"/>
		<stop  offset="1" style="stop-color:#BC6C0C"/>
	</linearGradient>
	<path style="fill:url(#SVGID_00000118384574448704782830000008412646166412037514_);" d="M298.6,135c-5.5-21.2-13.4-37.6-23.3-48.7
		C263.7,73.5,249,67,231.5,67h-0.4c-17.6,0.1-32.4,6.6-44,19.4c-10,11.1-17.9,27.5-23.4,48.7c-8.9,34.2-10.4,76.2-10.7,109v31.3h132
		c6.9,0,13.1-1.8,17.5-5.2c4.4-3.4,6.8-7,6.9-12.5C309.2,215.3,307.8,171.2,298.6,135z"/>
	<path class="st3" d="M306.7,157c-0.1-0.8-0.3-1.7-0.4-2.5C306.4,155.4,306.5,156.2,306.7,157z"/>
	<path class="st3" d="M312.8,257.7c0-2.5,0-5.1,0-7.7C312.8,252.6,312.8,255.1,312.8,257.7L312.8,257.7z"/>
	<path class="st3" d="M309.5,178c0.9,8.1,1.5,16.3,2,24.6C311,194.3,310.3,186.1,309.5,178z"/>
	<path class="st3" d="M312.2,218.5c0.4,10.6,0.5,21.2,0.6,31.5C312.7,239.7,312.5,229.1,312.2,218.5z"/>
	<path class="st3" d="M163.8,122.6c-1.2,3.7-2.4,7.6-3.4,11.7c-2.7,10.3-4.7,21.3-6.2,32.6c1.5-11.3,3.6-22.3,6.2-32.6
		C161.4,130.2,162.6,126.3,163.8,122.6z"/>
	<path class="st3" d="M295.9,115.3c0.9,2.3,1.8,4.7,2.6,7.2C297.7,120,296.8,117.6,295.9,115.3z"/>
	<path class="st3" d="M151.3,194.7c0.3-4.7,0.7-9.4,1.2-14C152.1,185.3,151.7,190,151.3,194.7z"/>
	<path class="st3" d="M231.2,63.5c-3.5,0-6.9,0.3-10.2,0.8C224.3,63.8,227.7,63.5,231.2,63.5L231.2,63.5z"/>
	<path class="st3" d="M208.4,67.5c1.3-0.5,2.6-0.9,3.9-1.3C211,66.6,209.7,67,208.4,67.5z"/>
</g>
</svg>
