<?xml version="1.0" encoding="utf-8"?>
<!-- Generator: Adobe Illustrator 26.3.1, SVG Export Plug-In . SVG Version: 6.00 Build 0)  -->
<svg version="1.1" id="Layer_1" xmlns="http://www.w3.org/2000/svg" xmlns:xlink="http://www.w3.org/1999/xlink" x="0px" y="0px"
	 viewBox="0 0 94 94" style="enable-background:new 0 0 94 94;" xml:space="preserve">
<style type="text/css">
	.st0{fill:#9E7911;}
	.st1{fill:#FFFAF2;}
</style>
<path class="st0" d="M50.7,20.6c-5.4,0-9.7-4.4-9.7-9.8S45.4,1,50.7,1s9.7,4.4,9.7,9.8S56.1,20.6,50.7,20.6z"/>
<path class="st0" d="M22,34.9c-5.8,0-10.6-4.6-10.6-10.4S16.2,14.2,22,14.2s10.6,4.6,10.6,10.4S27.9,34.9,22,34.9z"/>
<path class="st0" d="M53.4,45.9c-6.6,0-11.9-5.3-11.9-11.9s5.3-11.9,11.9-11.9S65.3,27.4,65.3,34S59.9,45.9,53.4,45.9z"/>
<path class="st0" d="M81.4,34.4c-6.5,0-11.8-5.3-11.8-11.8s5.3-11.8,11.8-11.8S93.2,16,93.2,22.5C93.2,29.1,87.9,34.4,81.4,34.4z"/>
<path class="st0" d="M80.3,58.2c-5.4,0-9.8-4.5-9.8-10s4.4-10,9.8-10s9.8,4.5,9.8,10C90.1,53.7,85.7,58.2,80.3,58.2z"/>
<path class="st0" d="M73.8,80.9c-6.4,0-11.6-5.3-11.6-11.8s5.2-11.8,11.6-11.8s11.6,5.3,11.6,11.8S80.3,80.9,73.8,80.9z"/>
<path class="st0" d="M50.9,91.6c-6.1,0-11.1-4.9-11.1-10.9s5-10.9,11.1-10.9S62,74.7,62,80.7S57,91.6,50.9,91.6z"/>
<path class="st0" d="M26.3,88.9c-6.6,0-12-5.4-12-12.1c0-6.6,5.4-12.1,12-12.1s12,5.4,12,12.1S33,88.9,26.3,88.9z"/>
<path class="st0" d="M38.9,64.1c-5.2,0-9.4-4.3-9.4-9.6s4.2-9.6,9.4-9.6s9.4,4.3,9.4,9.6S44.1,64.1,38.9,64.1z"/>
<path class="st0" d="M15.2,60.8C8.1,60.8,2.3,55.1,2.3,48c0-7,5.8-12.8,12.9-12.8S28.1,40.9,28.1,48S22.3,60.8,15.2,60.8z"/>
<path class="st1" d="M50.7,20.6c-5.4,0-9.7-4.4-9.7-9.8S45.4,1,50.7,1s9.7,4.4,9.7,9.8S56.1,20.6,50.7,20.6z M50.7,3.9
	C47,3.9,44,7,44,10.7s3,6.8,6.7,6.8s6.7-3.1,6.7-6.8S54.4,3.9,50.7,3.9z"/>
<path class="st1" d="M22,34.9c-5.8,0-10.6-4.6-10.6-10.4S16.2,14.2,22,14.2s10.6,4.6,10.6,10.4S27.9,34.9,22,34.9z M22,17.2
	c-4.2,0-7.6,3.3-7.6,7.4S17.8,32,22,32s7.6-3.3,7.6-7.4S26.2,17.2,22,17.2z"/>
<path class="st1" d="M53.4,45.9c-6.6,0-11.9-5.3-11.9-11.9s5.3-11.9,11.9-11.9S65.3,27.4,65.3,34S59.9,45.9,53.4,45.9z M53.4,25.1
	c-4.9,0-8.9,4-8.9,8.9s4,8.9,8.9,8.9s8.9-4,8.9-8.9C62.3,29.1,58.3,25.1,53.4,25.1z"/>
<path class="st1" d="M81.4,34.4c-6.5,0-11.8-5.3-11.8-11.8s5.3-11.8,11.8-11.8S93.2,16,93.2,22.5C93.2,29.1,87.9,34.4,81.4,34.4z
	 M81.4,13.7c-4.9,0-8.8,4-8.8,8.8c0,4.9,4,8.8,8.8,8.8s8.8-4,8.8-8.8C90.2,17.7,86.3,13.7,81.4,13.7z"/>
<path class="st1" d="M80.3,58.2c-5.4,0-9.8-4.5-9.8-10s4.4-10,9.8-10s9.8,4.5,9.8,10C90.1,53.7,85.7,58.2,80.3,58.2z M80.3,41.2
	c-3.8,0-6.8,3.1-6.8,7s3.1,7,6.8,7c3.8,0,6.8-3.1,6.8-7C87.1,44.3,84.1,41.2,80.3,41.2z"/>
<path class="st1" d="M73.8,80.9c-6.4,0-11.6-5.3-11.6-11.8s5.2-11.8,11.6-11.8s11.6,5.3,11.6,11.8S80.3,80.9,73.8,80.9z M73.8,60.3
	c-4.8,0-8.6,4-8.6,8.8s3.9,8.8,8.6,8.8s8.6-4,8.6-8.8S78.6,60.3,73.8,60.3z"/>
<path class="st1" d="M50.9,91.6c-6.1,0-11.1-4.9-11.1-10.9s5-10.9,11.1-10.9S62,74.7,62,80.7S57,91.6,50.9,91.6z M50.9,72.8
	c-4.4,0-8.1,3.6-8.1,7.9s3.6,7.9,8.1,7.9S59,85,59,80.7S55.3,72.8,50.9,72.8z"/>
<path class="st1" d="M26.3,88.9c-6.6,0-12-5.4-12-12.1c0-6.6,5.4-12.1,12-12.1s12,5.4,12,12.1S33,88.9,26.3,88.9z M26.3,67.8
	c-5,0-9,4.1-9,9.1s4,9.1,9,9.1s9-4.1,9-9.1C35.3,71.8,31.3,67.8,26.3,67.8z"/>
<path class="st1" d="M38.9,64.1c-5.2,0-9.4-4.3-9.4-9.6s4.2-9.6,9.4-9.6s9.4,4.3,9.4,9.6S44.1,64.1,38.9,64.1z M38.9,47.8
	c-3.5,0-6.4,3-6.4,6.6s2.9,6.6,6.4,6.6s6.4-3,6.4-6.6S42.4,47.8,38.9,47.8z"/>
<path class="st1" d="M15.2,60.8C8.1,60.8,2.3,55.1,2.3,48c0-7,5.8-12.8,12.9-12.8S28.1,40.9,28.1,48S22.3,60.8,15.2,60.8z
	 M15.2,38.3c-5.5,0-9.9,4.4-9.9,9.8s4.5,9.8,9.9,9.8c5.5,0,9.9-4.4,9.9-9.8C25.1,42.6,20.7,38.3,15.2,38.3z"/>
</svg>
