<?xml version="1.0" encoding="utf-8"?>
<!-- Generator: Adobe Illustrator 19.2.0, SVG Export Plug-In . SVG Version: 6.00 Build 0)  -->
<svg version="1.1" id="Layer_1" xmlns="http://www.w3.org/2000/svg" xmlns:xlink="http://www.w3.org/1999/xlink" x="0px" y="0px"
	 viewBox="0 0 94 94" style="enable-background:new 0 0 94 94;" xml:space="preserve" fill="#635061">>
<title>Current Threats</title>
<path d="M20.4,6.3H94V3.1H20.4C9.1,3.1,0,12.3,0,23.5c0,1.1,0.1,2.1,0.2,3.1c-0.2,1-0.2,2.1-0.2,3.1C0,41,9.1,50.1,20.4,50.1h6.3
	c0.3,3.7,2.2,7.1,5.4,9.1l1.7-2.6c-2.2-1.5-3.7-3.9-3.9-6.5h6.3c0.3,3.7,2.2,7.1,5.4,9.1l1.7-2.6c-2.3-1.5-3.7-3.9-4-6.6
	c0.6,0,1.3,0.1,1.9,0.1c0,0,0,0,0,0h4.3c0.3,3.7,2.2,7.1,5.4,9.1l1.7-2.6c-2.2-1.5-3.7-3.9-3.9-6.5h6.3c0.3,3.7,2.2,7.1,5.4,9.1
	l1.7-2.6c-2.2-1.5-3.7-3.9-3.9-6.5h4.6c5.2,0,9.4,4.2,9.4,9.4s-4.2,9.4-9.4,9.4H21.9c-0.9,0-1.6,0.7-1.6,1.6c0,4,1.1,7.7,3.1,10.8
	v0.1h0.1c3.6,5.6,10,9.4,17.2,9.4h3.1h12.5h2.4C78.2,90.9,94,75,94,55.6C94,37,78.9,21.9,60.3,21.9H58h-3.1H11
	c-0.5,0-0.9,0.2-1.2,0.6c-0.3,0.4-0.4,0.8-0.3,1.3c1.2,6.6,4.4,12.3,8.8,16.8c-7.5-0.9-13.5-6.6-14.8-14c1.5-8,8.5-14.1,16.9-14.1
	H94V9.4H20.4c-6.5,0-12.3,3.1-16.1,7.9C6.8,10.8,13.1,6.3,20.4,6.3z M54.8,87.7h-6.3l6.3-4.7V87.7z M54.8,72.1v6.3H25.4
	c-1-1.9-1.6-4-1.8-6.3H54.8z M27.4,81.5h24.3l-8.4,6.3h-2.6C35.4,87.7,30.6,85.3,27.4,81.5z M58.8,87.7H58V72.1h4.7
	c1.7,0,3.2-0.3,4.7-0.9l5.2,5.2c-0.8,0.4-1.6,0.7-2.5,1l1,3c1.3-0.4,2.6-1,3.9-1.6l2.9,2.9C72.4,85.4,65.8,87.7,58.8,87.7z
	 M80.2,79.5l-2.6-2.6c4.6-3.3,8-8.2,9.4-13.9l-3-0.8c-1.3,5.2-4.4,9.5-8.6,12.4l-5.1-5.1c3-2.3,5-5.9,5-10h15.4
	C89.7,67.4,85.8,74.5,80.2,79.5z M90.9,55.6c0,0.3,0,0.5,0,0.8h-3.1c-0.2-6.8-3.2-13.1-8.4-17.6l-2.1,2.4c4.4,3.8,7.1,9.3,7.3,15.2
	h-9.8c-1-3.9-3.9-7.1-7.6-8.6l14.3-14.3C87.2,39.1,90.9,47,90.9,55.6z M60.3,25.1c7.1,0,13.6,2.4,18.8,6.4l-4.2,4.2
	c-3.5-1.9-7.4-2.8-11.3-2.8c0,0,0,0,0,0h-2.3V36h2.4c0,0,0,0,0,0c3.1,0,6.2,0.7,9,2l-9,9c-0.3,0-0.6,0-0.9,0H58V25.1H60.3z
	 M31.3,26.6c0,0.9-0.7,1.6-1.6,1.6c-0.9,0-1.6-0.7-1.6-1.6c0-0.9,0.7-1.6,1.6-1.6C30.6,25.1,31.3,25.8,31.3,26.6z M25.3,25.1
	c-0.2,0.5-0.3,1-0.3,1.6c0,2.6,2.1,4.7,4.7,4.7s4.7-2.1,4.7-4.7c0-0.5-0.1-1.1-0.3-1.6h20.6V47H41.2c0,0,0,0,0,0
	c-13.4,0-25-9.1-28.2-21.9H25.3z M20.4,43.9h1.6v-0.1c1.7,1.2,3.5,2.3,5.4,3.2h-6.9c-7.3,0-13.6-4.6-16.1-11
	C8,40.8,13.8,43.9,20.4,43.9z"/>
</svg>
