<?xml version="1.0" encoding="utf-8"?>
<!-- Generator: Adobe Illustrator 26.3.1, SVG Export Plug-In . SVG Version: 6.00 Build 0)  -->
<svg version="1.1" id="Layer_1" xmlns="http://www.w3.org/2000/svg" xmlns:xlink="http://www.w3.org/1999/xlink" x="0px" y="0px"
	 viewBox="0 0 215 243" style="enable-background:new 0 0 215 243;" xml:space="preserve">
<style type="text/css">
	.st0{fill:url(#SVGID_1_);}
	.st1{fill:#BE661A;}
</style>
<linearGradient id="SVGID_1_" gradientUnits="userSpaceOnUse" x1="0" y1="121.5" x2="215" y2="121.5">
	<stop  offset="0" style="stop-color:#BE661A"/>
	<stop  offset="1" style="stop-color:#FF9000"/>
</linearGradient>
<path class="st0" d="M107,0C82.6,0,62.1,8.1,46.1,24.2C32.4,38,21.8,57.9,14.4,83.6C1.1,129.7,0,193,0,243h215
	c0-50-1.1-113.3-14.4-159.3c-7.4-25.6-18.1-45.5-31.9-59.3C152.6,8.3,132.1,0.1,107.5,0H107L107,0z"/>
<path class="st1" d="M107.5,5C8.8,4.6,5,147,5,243h205C210,147,206.2,5.5,107.5,5z M64.5,152.6c-1.1,0-2-1.2-2-2.6
	c0-1.4,0.9-2.6,2-2.6s2,1.2,2,2.6C66.5,151.5,65.6,152.6,64.5,152.6z M78,90.5c-1,0-1.8-0.9-1.8-2s0.8-2,1.8-2s1.8,0.9,1.8,2
	C79.7,89.6,79,90.5,78,90.5z M87.5,177.6c-1.7,0-3-1.8-3-4s1.4-4,3-4s3,1.8,3,4C90.6,175.8,89.2,177.6,87.5,177.6z M93,27.1
	c-1.1,0-2-1-2-2.3s0.9-2.3,2-2.3s2,1,2,2.3S94.1,27.1,93,27.1z M107.8,127.3c-1.7,0-3.1-1.6-3.1-3.5s1.4-3.5,3.1-3.5
	s3.1,1.6,3.1,3.5S109.5,127.3,107.8,127.3z M122.3,86.3c0-1.9,1.3-3.5,3-3.5s3,1.6,3,3.5s-1.3,3.5-3,3.5
	C123.6,89.8,122.3,88.2,122.3,86.3z M154.3,57.3c-2.2,0-4-2.1-4-4.6c0-2.6,1.8-4.6,4-4.6s4,2.1,4,4.6S156.5,57.3,154.3,57.3z
	 M166.3,122.2c-1.1,0-2-1-2-2.3s0.9-2.3,2-2.3s2,1,2,2.3S167.4,122.2,166.3,122.2z M180,214.9c-1.1,0-2-1-2-2.3s0.9-2.3,2-2.3
	s2,1,2,2.3S181.1,214.9,180,214.9z M188.5,169.7c-2.5,0-4.5-2.3-4.5-5.2s2-5.2,4.5-5.2s4.5,2.3,4.5,5.2S191,169.7,188.5,169.7z"/>
</svg>
