<?xml version="1.0" encoding="utf-8"?>
<!-- Generator: Adobe Illustrator 26.3.1, SVG Export Plug-In . SVG Version: 6.00 Build 0)  -->
<svg version="1.1" id="Layer_1" xmlns="http://www.w3.org/2000/svg" xmlns:xlink="http://www.w3.org/1999/xlink" x="0px" y="0px"
	 viewBox="0 0 400 400" style="enable-background:new 0 0 400 400;" xml:space="preserve">
<style type="text/css">
	.st0{fill:#00FFFF;}
	.st1{opacity:0.75;}
	.st2{opacity:0.5;}
	.st3{opacity:0.25;}
</style>
<g>
	<ellipse class="st0" cx="199.7" cy="13.5" rx="13.5" ry="12"/>
	<ellipse class="st0" cx="199.7" cy="385.8" rx="13.5" ry="12"/>
	<ellipse transform="matrix(0.866 -0.5 0.5 0.866 -4.9413 58.4414)" class="st0" cx="106.6" cy="38.4" rx="13.5" ry="12"/>
	<ellipse transform="matrix(0.866 -0.5 0.5 0.866 -141.2236 194.7237)" class="st0" cx="292.7" cy="360.9" rx="13.5" ry="12"/>
	<ellipse transform="matrix(0.5 -0.866 0.866 0.5 -73.0824 86.5824)" class="st0" cx="38.4" cy="106.6" rx="13.5" ry="12"/>
	<ellipse transform="matrix(0.5 -0.866 0.866 0.5 -73.0825 458.9124)" class="st0" cx="360.9" cy="292.7" rx="13.5" ry="12"/>
	<ellipse class="st0" cx="13.5" cy="199.7" rx="12" ry="13.5"/>
	<ellipse class="st0" cx="385.8" cy="199.7" rx="12" ry="13.5"/>
	<ellipse transform="matrix(0.866 -0.5 0.5 0.866 -141.2235 58.4413)" class="st0" cx="38.4" cy="292.7" rx="12" ry="13.5"/>
	<ellipse transform="matrix(0.866 -0.5 0.5 0.866 -4.9414 194.7236)" class="st0" cx="360.9" cy="106.6" rx="12" ry="13.5"/>
	<ellipse transform="matrix(0.5 -0.866 0.866 0.5 -259.2474 272.7473)" class="st0" cx="106.6" cy="360.9" rx="12" ry="13.5"/>
	<ellipse transform="matrix(0.5 -0.866 0.866 0.5 113.0825 272.7475)" class="st0" cx="292.7" cy="38.4" rx="12" ry="13.5"/>
	<circle class="st0" cx="151.5" cy="19.8" r="3"/>
	<circle class="st0" cx="247.8" cy="379.5" r="3"/>
	
		<ellipse transform="matrix(0.9986 -5.233611e-02 5.233611e-02 0.9986 -0.9886 7.4699)" class="st0" cx="142.1" cy="22.6" rx="4.5" ry="4.5"/>
	
		<ellipse transform="matrix(0.9986 -5.233611e-02 5.233611e-02 0.9986 -19.3635 13.9768)" class="st0" cx="257.2" cy="376.7" rx="4.5" ry="4.5"/>
	
		<ellipse transform="matrix(5.233571e-02 -0.9986 0.9986 5.233571e-02 134.9912 177.3872)" class="st0" cx="161" cy="17.6" rx="4.5" ry="4.5"/>
	
		<ellipse transform="matrix(5.233571e-02 -0.9986 0.9986 5.233571e-02 -155.3429 599.8263)" class="st0" cx="238.4" cy="381.8" rx="4.5" ry="4.5"/>
	<circle class="st0" cx="175.4" cy="15.1" r="6.9"/>
	<circle class="st0" cx="224" cy="384.2" r="6.9"/>
	<circle class="st0" cx="128.4" cy="27.7" r="6.9"/>
	<circle class="st0" cx="270.9" cy="371.7" r="6.9"/>
	<ellipse transform="matrix(0.866 -0.5 0.5 0.866 -24.8994 43.1271)" class="st0" cx="68" cy="68" rx="3" ry="3"/>
	<ellipse transform="matrix(0.866 -0.5 0.5 0.866 -121.2655 210.038)" class="st0" cx="331.3" cy="331.3" rx="3" ry="3"/>
	<ellipse transform="matrix(0.8387 -0.5446 0.5446 0.8387 -31.0082 45.5111)" class="st0" cx="61.3" cy="75.1" rx="4.5" ry="4.5"/>
	<ellipse transform="matrix(0.8387 -0.5446 0.5446 0.8387 -122.059 236.4034)" class="st0" cx="338" cy="324.2" rx="4.5" ry="4.5"/>
	<ellipse transform="matrix(0.891 -0.454 0.454 0.891 -19.6525 40.7762)" class="st0" cx="75.1" cy="61.3" rx="4.5" ry="4.5"/>
	<ellipse transform="matrix(0.891 -0.454 0.454 0.891 -118.1151 184.0403)" class="st0" cx="324.2" cy="338" rx="4.5" ry="4.5"/>
	<circle class="st0" cx="86.3" cy="52" r="6.9"/>
	<circle class="st0" cx="313" cy="347.4" r="6.9"/>
	<circle class="st0" cx="52" cy="86.3" r="6.9"/>
	<circle class="st0" cx="347.4" cy="313" r="6.9"/>
	<ellipse transform="matrix(0.5 -0.866 0.866 0.5 -121.2655 92.9259)" class="st0" cx="19.8" cy="151.5" rx="3" ry="3"/>
	<ellipse transform="matrix(0.5 -0.866 0.866 0.5 -24.8994 452.569)" class="st0" cx="379.5" cy="247.8" rx="3" ry="3"/>
	<ellipse transform="matrix(0.454 -0.891 0.891 0.454 -133.8233 103.5387)" class="st0" cx="17.6" cy="161" rx="4.5" ry="4.5"/>
	<ellipse transform="matrix(0.454 -0.891 0.891 0.454 -3.9444 470.3052)" class="st0" cx="381.8" cy="238.4" rx="4.5" ry="4.5"/>
	
		<ellipse transform="matrix(0.5446 -0.8387 0.8387 0.5446 -108.9095 83.6872)" class="st0" cx="22.6" cy="142.1" rx="4.5" ry="4.5"/>
	
		<ellipse transform="matrix(0.5446 -0.8387 0.8387 0.5446 -44.1573 433.0584)" class="st0" cx="376.7" cy="257.2" rx="4.5" ry="4.5"/>
	<circle class="st0" cx="27.7" cy="128.4" r="6.9"/>
	<circle class="st0" cx="371.7" cy="270.9" r="6.9"/>
	<circle class="st0" cx="15.1" cy="175.4" r="6.9"/>
	<circle class="st0" cx="384.2" cy="224" r="6.9"/>
	<circle class="st0" cx="19.8" cy="247.8" r="3"/>
	<circle class="st0" cx="379.5" cy="151.5" r="3"/>
	
		<ellipse transform="matrix(0.9986 -5.233611e-02 5.233611e-02 0.9986 -13.4295 1.5359)" class="st0" cx="22.6" cy="257.2" rx="4.5" ry="4.5"/>
	
		<ellipse transform="matrix(0.9986 -5.233611e-02 5.233611e-02 0.9986 -6.9226 19.9108)" class="st0" cx="376.7" cy="142.1" rx="4.5" ry="4.5"/>
	
		<ellipse transform="matrix(5.233571e-02 -0.9986 0.9986 5.233571e-02 -221.3955 243.4395)" class="st0" cx="17.6" cy="238.4" rx="4.5" ry="4.5"/>
	
		<ellipse transform="matrix(5.233571e-02 -0.9986 0.9986 5.233571e-02 201.0436 533.7737)" class="st0" cx="381.8" cy="161" rx="4.5" ry="4.5"/>
	<circle class="st0" cx="15.1" cy="224" r="6.9"/>
	<circle class="st0" cx="384.2" cy="175.4" r="6.9"/>
	<circle class="st0" cx="27.7" cy="270.9" r="6.9"/>
	<circle class="st0" cx="371.7" cy="128.4" r="6.9"/>
	<ellipse transform="matrix(0.866 -0.5 0.5 0.866 -156.5379 78.3995)" class="st0" cx="68" cy="331.3" rx="3" ry="3"/>
	<ellipse transform="matrix(0.866 -0.5 0.5 0.866 10.373 174.7656)" class="st0" cx="331.3" cy="68" rx="3" ry="3"/>
	<ellipse transform="matrix(0.8387 -0.5446 0.5446 0.8387 -171.9796 95.4319)" class="st0" cx="75.1" cy="338" rx="4.5" ry="4.5"/>
	<ellipse transform="matrix(0.8387 -0.5446 0.5446 0.8387 18.9126 186.4827)" class="st0" cx="324.2" cy="61.3" rx="4.5" ry="4.5"/>
	<ellipse transform="matrix(0.891 -0.454 0.454 0.891 -140.5159 63.1769)" class="st0" cx="61.3" cy="324.2" rx="4.5" ry="4.5"/>
	<ellipse transform="matrix(0.891 -0.454 0.454 0.891 2.7482 161.6395)" class="st0" cx="338" cy="75.1" rx="4.5" ry="4.5"/>
	<circle class="st0" cx="52" cy="313" r="6.9"/>
	<circle class="st0" cx="347.4" cy="86.3" r="6.9"/>
	<circle class="st0" cx="86.3" cy="347.4" r="6.9"/>
	<circle class="st0" cx="313" cy="52" r="6.9"/>
	<ellipse transform="matrix(0.5 -0.866 0.866 0.5 -252.904 320.9305)" class="st0" cx="151.5" cy="379.5" rx="3" ry="3"/>
	<ellipse transform="matrix(0.5 -0.866 0.866 0.5 106.7391 224.5644)" class="st0" cx="247.8" cy="19.8" rx="3" ry="3"/>
	<ellipse transform="matrix(0.454 -0.891 0.891 0.454 -252.267 351.8614)" class="st0" cx="161" cy="381.8" rx="4.5" ry="4.5"/>
	<ellipse transform="matrix(0.454 -0.891 0.891 0.454 114.4995 221.9825)" class="st0" cx="238.4" cy="17.6" rx="4.5" ry="4.5"/>
	
		<ellipse transform="matrix(0.5446 -0.8387 0.8387 0.5446 -251.2192 290.7489)" class="st0" cx="142.1" cy="376.7" rx="4.5" ry="4.5"/>
	<ellipse transform="matrix(0.5446 -0.8387 0.8387 0.5446 98.152 225.9967)" class="st0" cx="257.2" cy="22.6" rx="4.5" ry="4.5"/>
	<circle class="st0" cx="128.4" cy="371.7" r="6.9"/>
	<circle class="st0" cx="270.9" cy="27.7" r="6.9"/>
	<circle class="st0" cx="175.4" cy="384.2" r="6.9"/>
	<circle class="st0" cx="224" cy="15.1" r="6.9"/>
</g>
<g class="st1">
	<ellipse class="st0" cx="199.7" cy="19.1" rx="13.1" ry="11.6"/>
	<ellipse class="st0" cx="199.7" cy="380.2" rx="13.1" ry="11.6"/>
	<ellipse transform="matrix(0.866 -0.5 0.5 0.866 -6.9856 60.4857)" class="st0" cx="109.4" cy="43.3" rx="13.1" ry="11.6"/>
	<ellipse transform="matrix(0.866 -0.5 0.5 0.866 -139.1794 192.6794)" class="st0" cx="290" cy="356.1" rx="13.1" ry="11.6"/>
	<ellipse transform="matrix(0.5 -0.866 0.866 0.5 -73.0824 92.1674)" class="st0" cx="43.3" cy="109.4" rx="13.1" ry="11.6"/>
	<ellipse transform="matrix(0.5 -0.866 0.866 0.5 -73.0825 453.3274)" class="st0" cx="356.1" cy="290" rx="13.1" ry="11.6"/>
	<ellipse class="st0" cx="19.1" cy="199.7" rx="11.6" ry="13.1"/>
	<ellipse class="st0" cx="380.2" cy="199.7" rx="11.6" ry="13.1"/>
	<ellipse transform="matrix(0.866 -0.5 0.5 0.866 -139.1792 60.4856)" class="st0" cx="43.3" cy="290" rx="11.6" ry="13.1"/>
	<ellipse transform="matrix(0.866 -0.5 0.5 0.866 -6.9856 192.6793)" class="st0" cx="356.1" cy="109.4" rx="11.6" ry="13.1"/>
	<ellipse transform="matrix(0.5 -0.866 0.866 0.5 -253.6625 272.7473)" class="st0" cx="109.4" cy="356.1" rx="11.6" ry="13.1"/>
	<ellipse transform="matrix(0.5 -0.866 0.866 0.5 107.4975 272.7475)" class="st0" cx="290" cy="43.3" rx="11.6" ry="13.1"/>
	<circle class="st0" cx="152.9" cy="25.2" r="2.9"/>
	<circle class="st0" cx="246.4" cy="374.1" r="2.9"/>
	
		<ellipse transform="matrix(0.9986 -5.233611e-02 5.233611e-02 0.9986 -1.2642 7.5675)" class="st0" cx="143.9" cy="27.9" rx="4.4" ry="4.4"/>
	
		<ellipse transform="matrix(0.9986 -5.233611e-02 5.233611e-02 0.9986 -19.0879 13.8792)" class="st0" cx="255.5" cy="371.4" rx="4.4" ry="4.4"/>
	
		<ellipse transform="matrix(5.233571e-02 -0.9986 0.9986 5.233571e-02 130.6362 183.7238)" class="st0" cx="162.1" cy="23" rx="4.4" ry="4.4"/>
	
		<ellipse transform="matrix(5.233571e-02 -0.9986 0.9986 5.233571e-02 -150.9879 593.4897)" class="st0" cx="237.2" cy="376.3" rx="4.4" ry="4.4"/>
	<circle class="st0" cx="176.1" cy="20.6" r="6.7"/>
	<circle class="st0" cx="223.2" cy="378.7" r="6.7"/>
	<circle class="st0" cx="130.6" cy="32.8" r="6.7"/>
	<circle class="st0" cx="268.8" cy="366.5" r="6.7"/>
	<ellipse transform="matrix(0.866 -0.5 0.5 0.866 -26.3449 45.6307)" class="st0" cx="72" cy="72" rx="2.9" ry="2.9"/>
	<ellipse transform="matrix(0.866 -0.5 0.5 0.866 -119.82 207.5344)" class="st0" cx="327.4" cy="327.4" rx="2.9" ry="2.9"/>
	<ellipse transform="matrix(0.8387 -0.5446 0.5446 0.8387 -32.3739 48.3745)" class="st0" cx="65.5" cy="78.8" rx="4.4" ry="4.4"/>
	
		<ellipse transform="matrix(0.8387 -0.5446 0.5446 0.8387 -120.6933 233.54)" class="st0" cx="333.9" cy="320.5" rx="4.4" ry="4.4"/>
	<ellipse transform="matrix(0.891 -0.454 0.454 0.891 -21.1294 42.9252)" class="st0" cx="78.8" cy="65.5" rx="4.4" ry="4.4"/>
	<ellipse transform="matrix(0.891 -0.454 0.454 0.891 -116.6382 181.8913)" class="st0" cx="320.5" cy="333.9" rx="4.4" ry="4.4"/>
	<circle class="st0" cx="89.7" cy="56.4" r="6.7"/>
	<circle class="st0" cx="309.6" cy="342.9" r="6.7"/>
	<circle class="st0" cx="56.4" cy="89.7" r="6.7"/>
	<circle class="st0" cx="342.9" cy="309.6" r="6.7"/>
	<ellipse transform="matrix(0.5 -0.866 0.866 0.5 -119.82 98.3205)" class="st0" cx="25.2" cy="152.9" rx="2.9" ry="2.9"/>
	<ellipse transform="matrix(0.5 -0.866 0.866 0.5 -26.3449 447.1744)" class="st0" cx="374.1" cy="246.4" rx="2.9" ry="2.9"/>
	<ellipse transform="matrix(0.454 -0.891 0.891 0.454 -131.8752 109.0402)" class="st0" cx="23" cy="162.1" rx="4.4" ry="4.4"/>
	<ellipse transform="matrix(0.454 -0.891 0.891 0.454 -5.8926 464.8037)" class="st0" cx="376.3" cy="237.2" rx="4.4" ry="4.4"/>
	
		<ellipse transform="matrix(0.5446 -0.8387 0.8387 0.5446 -107.9383 88.9278)" class="st0" cx="27.9" cy="143.9" rx="4.4" ry="4.4"/>
	
		<ellipse transform="matrix(0.5446 -0.8387 0.8387 0.5446 -45.1286 427.8178)" class="st0" cx="371.4" cy="255.5" rx="4.4" ry="4.4"/>
	<circle class="st0" cx="32.8" cy="130.6" r="6.7"/>
	<circle class="st0" cx="366.5" cy="268.8" r="6.7"/>
	<circle class="st0" cx="20.6" cy="176.1" r="6.7"/>
	<circle class="st0" cx="378.7" cy="223.2" r="6.7"/>
	<circle class="st0" cx="25.2" cy="246.4" r="2.9"/>
	<circle class="st0" cx="374.1" cy="152.9" r="2.9"/>
	
		<ellipse transform="matrix(0.9986 -5.233611e-02 5.233611e-02 0.9986 -13.3319 1.8115)" class="st0" cx="27.9" cy="255.5" rx="4.4" ry="4.4"/>
	
		<ellipse transform="matrix(0.9986 -5.233611e-02 5.233611e-02 0.9986 -7.0202 19.6352)" class="st0" cx="371.4" cy="143.9" rx="4.4" ry="4.4"/>
	
		<ellipse transform="matrix(5.233571e-02 -0.9986 0.9986 5.233571e-02 -215.0589 247.7946)" class="st0" cx="23" cy="237.2" rx="4.4" ry="4.4"/>
	
		<ellipse transform="matrix(5.233571e-02 -0.9986 0.9986 5.233571e-02 194.707 529.4186)" class="st0" cx="376.3" cy="162.1" rx="4.4" ry="4.4"/>
	<circle class="st0" cx="20.6" cy="223.2" r="6.7"/>
	<circle class="st0" cx="378.7" cy="176.1" r="6.7"/>
	<circle class="st0" cx="32.8" cy="268.8" r="6.7"/>
	<circle class="st0" cx="366.5" cy="130.6" r="6.7"/>
	<ellipse transform="matrix(0.866 -0.5 0.5 0.866 -154.0343 79.845)" class="st0" cx="72" cy="327.4" rx="2.9" ry="2.9"/>
	<ellipse transform="matrix(0.866 -0.5 0.5 0.866 7.8694 173.3201)" class="st0" cx="327.4" cy="72" rx="2.9" ry="2.9"/>
	
		<ellipse transform="matrix(0.8387 -0.5446 0.5446 0.8387 -169.1162 96.7976)" class="st0" cx="78.8" cy="333.9" rx="4.4" ry="4.4"/>
	<ellipse transform="matrix(0.8387 -0.5446 0.5446 0.8387 16.0492 185.117)" class="st0" cx="320.5" cy="65.5" rx="4.4" ry="4.4"/>
	<ellipse transform="matrix(0.891 -0.454 0.454 0.891 -138.3669 64.6538)" class="st0" cx="65.5" cy="320.5" rx="4.4" ry="4.4"/>
	<ellipse transform="matrix(0.891 -0.454 0.454 0.891 0.5992 160.1626)" class="st0" cx="333.9" cy="78.8" rx="4.4" ry="4.4"/>
	<circle class="st0" cx="56.4" cy="309.6" r="6.7"/>
	<circle class="st0" cx="342.9" cy="89.7" r="6.7"/>
	<circle class="st0" cx="89.7" cy="342.9" r="6.7"/>
	<circle class="st0" cx="309.6" cy="56.4" r="6.7"/>
	<ellipse transform="matrix(0.5 -0.866 0.866 0.5 -247.5094 319.485)" class="st0" cx="152.9" cy="374.1" rx="2.9" ry="2.9"/>
	<ellipse transform="matrix(0.5 -0.866 0.866 0.5 101.3445 226.0099)" class="st0" cx="246.4" cy="25.2" rx="2.9" ry="2.9"/>
	<ellipse transform="matrix(0.454 -0.891 0.891 0.454 -246.7655 349.9132)" class="st0" cx="162.1" cy="376.3" rx="4.4" ry="4.4"/>
	<ellipse transform="matrix(0.454 -0.891 0.891 0.454 108.998 223.9306)" class="st0" cx="237.2" cy="23" rx="4.4" ry="4.4"/>
	
		<ellipse transform="matrix(0.5446 -0.8387 0.8387 0.5446 -245.9786 289.7776)" class="st0" cx="143.9" cy="371.4" rx="4.4" ry="4.4"/>
	<ellipse transform="matrix(0.5446 -0.8387 0.8387 0.5446 92.9115 226.9679)" class="st0" cx="255.5" cy="27.9" rx="4.4" ry="4.4"/>
	<circle class="st0" cx="130.6" cy="366.5" r="6.7"/>
	<circle class="st0" cx="268.8" cy="32.8" r="6.7"/>
	<circle class="st0" cx="176.1" cy="378.7" r="6.7"/>
	<circle class="st0" cx="223.2" cy="20.6" r="6.7"/>
</g>
<g class="st2">
	<ellipse class="st0" cx="199.7" cy="24.5" rx="12.7" ry="11.3"/>
	<ellipse class="st0" cx="199.7" cy="374.8" rx="12.7" ry="11.3"/>
	<ellipse transform="matrix(0.866 -0.5 0.5 0.866 -8.9685 62.4686)" class="st0" cx="112.1" cy="48" rx="12.7" ry="11.3"/>
	<ellipse transform="matrix(0.866 -0.5 0.5 0.866 -137.1964 190.6965)" class="st0" cx="287.2" cy="351.4" rx="12.7" ry="11.3"/>
	<ellipse transform="matrix(0.5 -0.866 0.866 0.5 -73.0824 97.5848)" class="st0" cx="48" cy="112.1" rx="12.7" ry="11.3"/>
	<ellipse transform="matrix(0.5 -0.866 0.866 0.5 -73.0825 447.91)" class="st0" cx="351.4" cy="287.2" rx="12.7" ry="11.3"/>
	<ellipse class="st0" cx="24.5" cy="199.7" rx="11.3" ry="12.7"/>
	<ellipse class="st0" cx="374.8" cy="199.7" rx="11.3" ry="12.7"/>
	<ellipse transform="matrix(0.866 -0.5 0.5 0.866 -137.1963 62.4685)" class="st0" cx="48" cy="287.2" rx="11.3" ry="12.7"/>
	<ellipse transform="matrix(0.866 -0.5 0.5 0.866 -8.9685 190.6964)" class="st0" cx="351.4" cy="112.1" rx="11.3" ry="12.7"/>
	<ellipse transform="matrix(0.5 -0.866 0.866 0.5 -248.2451 272.7473)" class="st0" cx="112.1" cy="351.4" rx="11.3" ry="12.7"/>
	<ellipse transform="matrix(0.5 -0.866 0.866 0.5 102.0801 272.7475)" class="st0" cx="287.2" cy="48" rx="11.3" ry="12.7"/>
	<circle class="st0" cx="154.3" cy="30.5" r="2.8"/>
	<circle class="st0" cx="245" cy="368.9" r="2.8"/>
	
		<ellipse transform="matrix(0.9986 -5.233611e-02 5.233611e-02 0.9986 -1.5316 7.6622)" class="st0" cx="145.5" cy="33.1" rx="4.2" ry="4.2"/>
	
		<ellipse transform="matrix(0.9986 -5.233611e-02 5.233611e-02 0.9986 -18.8205 13.7845)" class="st0" cx="253.8" cy="366.3" rx="4.2" ry="4.2"/>
	
		<ellipse transform="matrix(5.233571e-02 -0.9986 0.9986 5.233571e-02 126.4119 189.8703)" class="st0" cx="163.2" cy="28.3" rx="4.2" ry="4.2"/>
	
		<ellipse transform="matrix(5.233571e-02 -0.9986 0.9986 5.233571e-02 -146.7635 587.3433)" class="st0" cx="236.1" cy="371" rx="4.2" ry="4.2"/>
	<circle class="st0" cx="176.8" cy="26" r="6.5"/>
	<circle class="st0" cx="222.5" cy="373.3" r="6.5"/>
	<circle class="st0" cx="132.6" cy="37.8" r="6.5"/>
	<circle class="st0" cx="266.7" cy="361.5" r="6.5"/>
	<ellipse transform="matrix(0.866 -0.5 0.5 0.866 -27.747 48.0593)" class="st0" cx="75.8" cy="75.8" rx="2.8" ry="2.8"/>
	<ellipse transform="matrix(0.866 -0.5 0.5 0.866 -118.4179 205.1058)" class="st0" cx="323.5" cy="323.5" rx="2.8" ry="2.8"/>
	<ellipse transform="matrix(0.8387 -0.5446 0.5446 0.8387 -33.6987 51.152)" class="st0" cx="69.5" cy="82.5" rx="4.2" ry="4.2"/>
	
		<ellipse transform="matrix(0.8387 -0.5446 0.5446 0.8387 -119.3685 230.7625)" class="st0" cx="329.8" cy="316.9" rx="4.2" ry="4.2"/>
	<ellipse transform="matrix(0.891 -0.454 0.454 0.891 -22.5621 45.0097)" class="st0" cx="82.5" cy="69.5" rx="4.2" ry="4.2"/>
	<ellipse transform="matrix(0.891 -0.454 0.454 0.891 -115.2055 179.8069)" class="st0" cx="316.9" cy="329.8" rx="4.2" ry="4.2"/>
	<circle class="st0" cx="93" cy="60.7" r="6.5"/>
	<circle class="st0" cx="306.3" cy="338.6" r="6.5"/>
	<circle class="st0" cx="60.7" cy="93" r="6.5"/>
	<circle class="st0" cx="338.6" cy="306.3" r="6.5"/>
	<ellipse transform="matrix(0.5 -0.866 0.866 0.5 -118.4179 103.5533)" class="st0" cx="30.5" cy="154.3" rx="2.8" ry="2.8"/>
	<ellipse transform="matrix(0.5 -0.866 0.866 0.5 -27.747 441.9416)" class="st0" cx="368.9" cy="245" rx="2.8" ry="2.8"/>
	<ellipse transform="matrix(0.454 -0.891 0.891 0.454 -129.9854 114.3766)" class="st0" cx="28.3" cy="163.2" rx="4.2" ry="4.2"/>
	<ellipse transform="matrix(0.454 -0.891 0.891 0.454 -7.7823 459.4673)" class="st0" cx="371" cy="236.1" rx="4.2" ry="4.2"/>
	
		<ellipse transform="matrix(0.5446 -0.8387 0.8387 0.5446 -106.9961 94.0111)" class="st0" cx="33.1" cy="145.5" rx="4.2" ry="4.2"/>
	
		<ellipse transform="matrix(0.5446 -0.8387 0.8387 0.5446 -46.0707 422.7345)" class="st0" cx="366.3" cy="253.8" rx="4.2" ry="4.2"/>
	<circle class="st0" cx="37.8" cy="132.6" r="6.5"/>
	<circle class="st0" cx="361.5" cy="266.7" r="6.5"/>
	<circle class="st0" cx="26" cy="176.8" r="6.5"/>
	<circle class="st0" cx="373.3" cy="222.5" r="6.5"/>
	<circle class="st0" cx="30.5" cy="245" r="2.8"/>
	<circle class="st0" cx="368.9" cy="154.3" r="2.8"/>
	
		<ellipse transform="matrix(0.9986 -5.233611e-02 5.233611e-02 0.9986 -13.2372 2.0789)" class="st0" cx="33.1" cy="253.8" rx="4.2" ry="4.2"/>
	
		<ellipse transform="matrix(0.9986 -5.233611e-02 5.233611e-02 0.9986 -7.1149 19.3678)" class="st0" cx="366.3" cy="145.5" rx="4.2" ry="4.2"/>
	
		<ellipse transform="matrix(5.233571e-02 -0.9986 0.9986 5.233571e-02 -208.9124 252.0189)" class="st0" cx="28.3" cy="236.1" rx="4.2" ry="4.2"/>
	
		<ellipse transform="matrix(5.233571e-02 -0.9986 0.9986 5.233571e-02 188.5605 525.1943)" class="st0" cx="371" cy="163.2" rx="4.2" ry="4.2"/>
	<circle class="st0" cx="26" cy="222.5" r="6.5"/>
	<circle class="st0" cx="373.3" cy="176.8" r="6.5"/>
	<circle class="st0" cx="37.8" cy="266.7" r="6.5"/>
	<circle class="st0" cx="361.5" cy="132.6" r="6.5"/>
	<ellipse transform="matrix(0.866 -0.5 0.5 0.866 -151.6057 81.2471)" class="st0" cx="75.8" cy="323.5" rx="2.8" ry="2.8"/>
	<ellipse transform="matrix(0.866 -0.5 0.5 0.866 5.4408 171.918)" class="st0" cx="323.5" cy="75.8" rx="2.8" ry="2.8"/>
	
		<ellipse transform="matrix(0.8387 -0.5446 0.5446 0.8387 -166.3388 98.1224)" class="st0" cx="82.5" cy="329.8" rx="4.2" ry="4.2"/>
	<ellipse transform="matrix(0.8387 -0.5446 0.5446 0.8387 13.2717 183.7922)" class="st0" cx="316.9" cy="69.5" rx="4.2" ry="4.2"/>
	<ellipse transform="matrix(0.891 -0.454 0.454 0.891 -136.2824 66.0865)" class="st0" cx="69.5" cy="316.9" rx="4.2" ry="4.2"/>
	<ellipse transform="matrix(0.891 -0.454 0.454 0.891 -1.4853 158.7299)" class="st0" cx="329.8" cy="82.5" rx="4.2" ry="4.2"/>
	<circle class="st0" cx="60.7" cy="306.3" r="6.5"/>
	<circle class="st0" cx="338.6" cy="93" r="6.5"/>
	<circle class="st0" cx="93" cy="338.6" r="6.5"/>
	<circle class="st0" cx="306.3" cy="60.7" r="6.5"/>
	<ellipse transform="matrix(0.5 -0.866 0.866 0.5 -242.2766 318.0829)" class="st0" cx="154.3" cy="368.9" rx="2.8" ry="2.8"/>
	<ellipse transform="matrix(0.5 -0.866 0.866 0.5 96.1117 227.412)" class="st0" cx="245" cy="30.5" rx="2.8" ry="2.8"/>
	<ellipse transform="matrix(0.454 -0.891 0.891 0.454 -241.429 348.0235)" class="st0" cx="163.2" cy="371" rx="4.2" ry="4.2"/>
	<ellipse transform="matrix(0.454 -0.891 0.891 0.454 103.6616 225.8204)" class="st0" cx="236.1" cy="28.3" rx="4.2" ry="4.2"/>
	
		<ellipse transform="matrix(0.5446 -0.8387 0.8387 0.5446 -240.8952 288.8355)" class="st0" cx="145.5" cy="366.3" rx="4.2" ry="4.2"/>
	<ellipse transform="matrix(0.5446 -0.8387 0.8387 0.5446 87.8281 227.9101)" class="st0" cx="253.8" cy="33.1" rx="4.2" ry="4.2"/>
	<circle class="st0" cx="132.6" cy="361.5" r="6.5"/>
	<circle class="st0" cx="266.7" cy="37.8" r="6.5"/>
	<circle class="st0" cx="176.8" cy="373.3" r="6.5"/>
	<circle class="st0" cx="222.5" cy="26" r="6.5"/>
</g>
<g class="st3">
	<ellipse class="st0" cx="199.7" cy="29.8" rx="12.3" ry="11"/>
	<ellipse class="st0" cx="199.7" cy="369.6" rx="12.3" ry="11"/>
	<ellipse transform="matrix(0.866 -0.5 0.5 0.866 -10.8919 64.392)" class="st0" cx="114.7" cy="52.5" rx="12.3" ry="11"/>
	<ellipse transform="matrix(0.866 -0.5 0.5 0.866 -135.273 188.7731)" class="st0" cx="284.6" cy="346.8" rx="12.3" ry="11"/>
	<ellipse transform="matrix(0.5 -0.866 0.866 0.5 -73.0824 102.8397)" class="st0" cx="52.5" cy="114.7" rx="12.3" ry="11"/>
	<ellipse transform="matrix(0.5 -0.866 0.866 0.5 -73.0825 442.6552)" class="st0" cx="346.8" cy="284.6" rx="12.3" ry="11"/>
	<ellipse class="st0" cx="29.8" cy="199.7" rx="11" ry="12.3"/>
	<ellipse class="st0" cx="369.6" cy="199.7" rx="11" ry="12.3"/>
	<ellipse transform="matrix(0.866 -0.5 0.5 0.866 -135.2729 64.3919)" class="st0" cx="52.5" cy="284.6" rx="11" ry="12.3"/>
	<ellipse transform="matrix(0.866 -0.5 0.5 0.866 -10.8919 188.773)" class="st0" cx="346.8" cy="114.7" rx="11" ry="12.3"/>
	<ellipse transform="matrix(0.5 -0.866 0.866 0.5 -242.9902 272.7473)" class="st0" cx="114.7" cy="346.8" rx="11" ry="12.3"/>
	<ellipse transform="matrix(0.5 -0.866 0.866 0.5 96.8253 272.7475)" class="st0" cx="284.6" cy="52.5" rx="11" ry="12.3"/>
	<circle class="st0" cx="155.7" cy="35.5" r="2.7"/>
	<circle class="st0" cx="243.6" cy="363.8" r="2.7"/>
	
		<ellipse transform="matrix(0.9986 -5.233611e-02 5.233611e-02 0.9986 -1.7909 7.754)" class="st0" cx="147.2" cy="38.1" rx="4.1" ry="4.1"/>
	
		<ellipse transform="matrix(0.9986 -5.233611e-02 5.233611e-02 0.9986 -18.5612 13.6927)" class="st0" cx="252.2" cy="361.3" rx="4.1" ry="4.1"/>
	
		<ellipse transform="matrix(5.233571e-02 -0.9986 0.9986 5.233571e-02 122.3142 195.8324)" class="st0" cx="164.3" cy="33.5" rx="4.1" ry="4.1"/>
	
		<ellipse transform="matrix(5.233571e-02 -0.9986 0.9986 5.233571e-02 -142.6659 581.3812)" class="st0" cx="235" cy="365.9" rx="4.1" ry="4.1"/>
	<circle class="st0" cx="177.5" cy="31.2" r="6.3"/>
	<circle class="st0" cx="221.8" cy="368.1" r="6.3"/>
	<circle class="st0" cx="134.6" cy="42.7" r="6.3"/>
	<circle class="st0" cx="264.7" cy="356.6" r="6.3"/>
	<ellipse transform="matrix(0.866 -0.5 0.5 0.866 -29.1071 50.415)" class="st0" cx="79.5" cy="79.5" rx="2.7" ry="2.7"/>
	<ellipse transform="matrix(0.866 -0.5 0.5 0.866 -117.0578 202.7501)" class="st0" cx="319.8" cy="319.8" rx="2.7" ry="2.7"/>
	<ellipse transform="matrix(0.8387 -0.5446 0.5446 0.8387 -34.9837 53.8462)" class="st0" cx="73.4" cy="86" rx="4.1" ry="4.1"/>
	
		<ellipse transform="matrix(0.8387 -0.5446 0.5446 0.8387 -118.0834 228.0683)" class="st0" cx="325.9" cy="313.4" rx="4.1" ry="4.1"/>
	<ellipse transform="matrix(0.891 -0.454 0.454 0.891 -23.9517 47.0316)" class="st0" cx="86" cy="73.4" rx="4.1" ry="4.1"/>
	<ellipse transform="matrix(0.891 -0.454 0.454 0.891 -113.8159 177.7849)" class="st0" cx="313.4" cy="325.9" rx="4.1" ry="4.1"/>
	<circle class="st0" cx="96.2" cy="64.9" r="6.3"/>
	<circle class="st0" cx="303.1" cy="334.5" r="6.3"/>
	<circle class="st0" cx="64.9" cy="96.2" r="6.3"/>
	<circle class="st0" cx="334.5" cy="303.1" r="6.3"/>
	<ellipse transform="matrix(0.5 -0.866 0.866 0.5 -117.0578 108.6292)" class="st0" cx="35.5" cy="155.7" rx="2.7" ry="2.7"/>
	<ellipse transform="matrix(0.5 -0.866 0.866 0.5 -29.1071 436.8658)" class="st0" cx="363.8" cy="243.6" rx="2.7" ry="2.7"/>
	<ellipse transform="matrix(0.454 -0.891 0.891 0.454 -128.1524 119.553)" class="st0" cx="33.5" cy="164.3" rx="4.1" ry="4.1"/>
	<ellipse transform="matrix(0.454 -0.891 0.891 0.454 -9.6154 454.2909)" class="st0" cx="365.9" cy="235" rx="4.1" ry="4.1"/>
	<ellipse transform="matrix(0.5446 -0.8387 0.8387 0.5446 -106.0822 98.942)" class="st0" cx="38.1" cy="147.2" rx="4.1" ry="4.1"/>
	
		<ellipse transform="matrix(0.5446 -0.8387 0.8387 0.5446 -46.9846 417.8036)" class="st0" cx="361.3" cy="252.2" rx="4.1" ry="4.1"/>
	<circle class="st0" cx="42.7" cy="134.6" r="6.3"/>
	<circle class="st0" cx="356.6" cy="264.7" r="6.3"/>
	<circle class="st0" cx="31.2" cy="177.5" r="6.3"/>
	<circle class="st0" cx="368.1" cy="221.8" r="6.3"/>
	<circle class="st0" cx="35.5" cy="243.6" r="2.7"/>
	<circle class="st0" cx="363.8" cy="155.7" r="2.7"/>
	
		<ellipse transform="matrix(0.9986 -5.233611e-02 5.233611e-02 0.9986 -13.1454 2.3382)" class="st0" cx="38.1" cy="252.2" rx="4.1" ry="4.1"/>
	
		<ellipse transform="matrix(0.9986 -5.233611e-02 5.233611e-02 0.9986 -7.2067 19.1085)" class="st0" cx="361.3" cy="147.2" rx="4.1" ry="4.1"/>
	
		<ellipse transform="matrix(5.233571e-02 -0.9986 0.9986 5.233571e-02 -202.9503 256.1165)" class="st0" cx="33.5" cy="235" rx="4.1" ry="4.1"/>
	
		<ellipse transform="matrix(5.233571e-02 -0.9986 0.9986 5.233571e-02 182.5984 521.0967)" class="st0" cx="365.9" cy="164.3" rx="4.1" ry="4.1"/>
	<circle class="st0" cx="31.2" cy="221.8" r="6.3"/>
	<circle class="st0" cx="368.1" cy="177.5" r="6.3"/>
	<circle class="st0" cx="42.7" cy="264.7" r="6.3"/>
	<circle class="st0" cx="356.6" cy="134.6" r="6.3"/>
	<ellipse transform="matrix(0.866 -0.5 0.5 0.866 -149.25 82.6072)" class="st0" cx="79.5" cy="319.8" rx="2.7" ry="2.7"/>
	<ellipse transform="matrix(0.866 -0.5 0.5 0.866 3.0851 170.5579)" class="st0" cx="319.8" cy="79.5" rx="2.7" ry="2.7"/>
	<ellipse transform="matrix(0.8387 -0.5446 0.5446 0.8387 -163.6446 99.4075)" class="st0" cx="86" cy="325.9" rx="4.1" ry="4.1"/>
	<ellipse transform="matrix(0.8387 -0.5446 0.5446 0.8387 10.5776 182.5071)" class="st0" cx="313.4" cy="73.4" rx="4.1" ry="4.1"/>
	<ellipse transform="matrix(0.891 -0.454 0.454 0.891 -134.2605 67.4761)" class="st0" cx="73.4" cy="313.4" rx="4.1" ry="4.1"/>
	<ellipse transform="matrix(0.891 -0.454 0.454 0.891 -3.5072 157.3403)" class="st0" cx="325.9" cy="86" rx="4.1" ry="4.1"/>
	<circle class="st0" cx="64.9" cy="303.1" r="6.3"/>
	<circle class="st0" cx="334.5" cy="96.2" r="6.3"/>
	<circle class="st0" cx="96.2" cy="334.5" r="6.3"/>
	<circle class="st0" cx="303.1" cy="64.9" r="6.3"/>
	<ellipse transform="matrix(0.5 -0.866 0.866 0.5 -237.2008 316.7228)" class="st0" cx="155.7" cy="363.8" rx="2.7" ry="2.7"/>
	<ellipse transform="matrix(0.5 -0.866 0.866 0.5 91.0358 228.7721)" class="st0" cx="243.6" cy="35.5" rx="2.7" ry="2.7"/>
	<ellipse transform="matrix(0.454 -0.891 0.891 0.454 -236.2527 346.1904)" class="st0" cx="164.3" cy="365.9" rx="4.1" ry="4.1"/>
	<ellipse transform="matrix(0.454 -0.891 0.891 0.454 98.4852 227.6534)" class="st0" cx="235" cy="33.5" rx="4.1" ry="4.1"/>
	
		<ellipse transform="matrix(0.5446 -0.8387 0.8387 0.5446 -235.9644 287.9216)" class="st0" cx="147.2" cy="361.3" rx="4.1" ry="4.1"/>
	<ellipse transform="matrix(0.5446 -0.8387 0.8387 0.5446 82.8973 228.824)" class="st0" cx="252.2" cy="38.1" rx="4.1" ry="4.1"/>
	<circle class="st0" cx="134.6" cy="356.6" r="6.3"/>
	<circle class="st0" cx="264.7" cy="42.7" r="6.3"/>
	<circle class="st0" cx="177.5" cy="368.1" r="6.3"/>
	<circle class="st0" cx="221.8" cy="31.2" r="6.3"/>
</g>
</svg>
