<?xml version="1.0" encoding="utf-8"?>
<!-- Generator: Adobe Illustrator 26.3.1, SVG Export Plug-In . SVG Version: 6.00 Build 0)  -->
<svg version="1.1" id="Layer_1" xmlns="http://www.w3.org/2000/svg" xmlns:xlink="http://www.w3.org/1999/xlink" x="0px" y="0px"
	 viewBox="0 0 94 94" style="enable-background:new 0 0 94 94;" xml:space="preserve">
<style type="text/css">
	.st0{fill:#316911;}
</style>
<path class="st0" d="M90.4,51.2c-0.1,0-0.1-0.1-0.2-0.1c1.1-1.4,1.6-2.9,1.7-3.2l1.2-4l-3.5,0.1c0,0,0-0.1,0-0.1
	c0.4-1.6-0.2-3.1-1.6-3.8c-0.5-0.2-1-0.4-1.6-0.4c-0.8,0-1.8,0.3-2.7,0.6c0-0.2-0.1-0.4-0.1-0.6L82.9,35l-4,2.7
	c-0.3,0.2-2.6,1.8-4.4,3.4c0-0.1,0-0.2-0.1-0.3l-0.9-3.5l-3.3,1.5c-0.5,0.3-1.7,0.8-2.6,1.7l-1.3-3.8L63,41.2
	c-0.3,0.5-2.1,2.8-2.7,4.7c0,0,0,0,0,0l-1.3-2.1l-2.6,3.8c-0.2,0.2-4,6.1-5.4,16.5c-0.8,0.8-1.6,1.6-2.4,2.5V51l1.6-2.2
	c2.8-3.8,6.6-7.9,9.3-9.2c1.1-0.5,10.3-4.9,11.6-7.8c0.4-0.9,0.5-1.9,0.1-2.8c-0.2-0.6-0.6-1.1-1-1.4c0.8-1,1.3-2,1.4-2.3l1.8-4.6
	l-4.9,0.5c0,0-0.4,0-0.8,0c0-0.2,0-0.4,0-0.6l0.5-4l-4,0.7c-0.3,0-0.5,0.1-0.8,0.2c0.7-1.3,1.2-2.7,1-4c-0.2-1-0.8-1.9-1.7-2.4
	c-0.5-0.3-1.1-0.4-1.6-0.4c0,0,0,0,0,0c-0.6,0-1.2,0.2-1.8,0.3c-0.2-1.9-1.3-4.9-3.7-5.2l-0.2,0l-0.2,0c-1.3,0-2.1,0.7-3.1,1.6
	c-0.9-1.6-2.4-3.4-4.1-3.9l-3.8-1l0,2.5c-0.7,0.7-1.3,1.6-1.7,2.4c-1-0.9-1.8-1.6-3.1-1.6l-0.2,0l-0.2,0c-2.4,0.3-3.6,3.4-3.7,5.2
	c-0.6-0.2-1.1-0.3-1.8-0.3c0,0,0,0,0,0c-0.6,0-1.2,0.1-1.6,0.4c-0.9,0.5-1.5,1.3-1.7,2.4c-0.2,1.3,0.2,2.7,1,4
	c-0.3-0.1-0.6-0.1-0.8-0.2l-4-0.7l0.5,4.1c0,0.2,0,0.4,0,0.6c-0.5,0-0.8,0-0.8-0.1l-4.9-0.5l1.8,4.6c0.1,0.3,0.5,1.3,1.4,2.3
	c-0.4,0.3-0.8,0.8-1,1.4c-0.3,0.9-0.3,1.9,0.1,2.8c1.3,2.8,10.6,7.3,11.6,7.8c2.6,1.2,6.4,5.4,9.3,9.2l1.7,2.3v15.1
	c-0.7-0.8-1.5-1.6-2.2-2.3c-1.4-10.4-5.2-16.2-5.4-16.4l-2.6-3.8L34,45.9c0,0,0,0,0,0c-0.6-1.9-2.4-4.2-2.7-4.7l-3.4-4.5l-1.3,3.8
	c-0.9-0.8-2.1-1.4-2.6-1.7l-3.3-1.5l-0.9,3.5c0,0.1,0,0.1-0.1,0.3c-1.7-1.6-4.1-3.2-4.4-3.4l-4-2.7l-0.7,4.7c0,0.2-0.1,0.4-0.1,0.6
	c-0.8-0.3-1.8-0.6-2.7-0.6c-0.6,0-1.1,0.1-1.6,0.4c-1.4,0.7-2.1,2.3-1.6,3.8c0,0,0,0.1,0,0.1L1.2,44l1.2,4c0.1,0.3,0.5,1.8,1.7,3.2
	c-0.1,0-0.1,0.1-0.2,0.1L0.7,53L3,55.8c0.4,0.4,1.2,1.2,2.3,1.7c-0.1,0.4-0.2,0.9,0,1.5c0.2,0.9,0.9,1.7,1.8,2.1
	c0.7,0.3,1.6,0.5,2.4,0.5c0,0.1-0.1,0.3-0.1,0.5l-1.2,3.9h4c1.8,0,3-0.1,4.1-0.3l-3.2,3.9l5.8,0.4c0.1,0,1.2,0.1,2.7,0.1
	c1.6,0,2.9-0.1,4-0.3c0.2,0,0.4-0.1,0.6-0.1l-0.8,3l4.2-0.4c6.8-0.6,10-3.1,12-4.6c0.1-0.1,0.3-0.2,0.4-0.3l0.1,0
	c1,1.1,2.1,2.2,3.1,3.4c0.1,0.1,0.1,0.1,0.2,0.2v19c0,0.8,0.7,1.5,1.5,1.5s1.5-0.7,1.5-1.5V70.9c0.1-0.1,0.3-0.2,0.4-0.3
	c1-1.2,2.1-2.3,3.1-3.4l0,0c0.1,0.1,0.3,0.2,0.4,0.3c1.9,1.5,5.1,4,12,4.6l4.2,0.4l-0.8-3c0.2,0,0.4,0.1,0.6,0.1
	c1.1,0.2,2.4,0.3,4,0.3c1.5,0,2.7-0.1,2.7-0.1l5.8-0.4l-3.2-3.9c1.1,0.2,2.3,0.3,4.1,0.3h4l-1.2-3.9c-0.1-0.2-0.1-0.3-0.1-0.5
	c0.8-0.1,1.7-0.2,2.4-0.5c0.9-0.4,1.6-1.2,1.8-2.1c0.1-0.6,0.1-1.1,0-1.5c1.1-0.5,2-1.3,2.3-1.7l2.4-2.7L90.4,51.2z M29.5,69.2
	c0.4-1.8,0.9-2.3-0.3-3.1c-0.3-0.2-0.6-0.3-0.9-0.3c-0.7,0-1.4,0.6-3.2,1C24.1,67,22.8,67,21.7,67c-1.4,0-2.5-0.1-2.5-0.1
	s1.7-2.1,2.5-3.2c0.7-0.9,0.5-2.6-1-2.6c-0.3,0-0.7,0.1-1.1,0.2c-2.6,0.9-3.3,1.6-7.3,1.6c0.7-2.4,0.7-2.5,0.9-3.1
	c0.2-0.6-0.5-1.2-2.2-1.2c-0.1,0-0.3,0-0.4,0c-0.1,0-0.3,0-0.4,0c-0.8,0-1.6-0.1-1.9-0.3C7.9,58.2,10,57,9.1,55.6
	c-0.5-0.7-0.9-0.9-1.3-0.9c-0.3,0-0.6,0.1-0.9,0.1c-0.1,0-0.1,0-0.2,0c-0.7-0.1-1.5-1-1.5-1s2.2-1.3,2.5-2.3s-0.6-1.2-1.4-2.2
	c-0.8-1-1.2-2.2-1.2-2.2s0,0,0.1,0c0.4,0,2.6,0,3-1.2c0.4-1.2-1.2-2.8-0.7-3.1c0.1,0,0.2,0,0.3,0c0.8,0,2.6,0.8,3.1,1
	c0.2,0.1,0.4,0.2,0.7,0.2c0.5,0,1-0.2,1.2-0.7c0.4-0.8,0.7-3,0.7-3s3.4,2.3,4.9,3.9c1.3,1.4,2.1,2.5,2.9,2.5c0.1,0,0.3,0,0.4-0.1
	c1-0.5,1.3-2.2,0.9-3.2c-0.3-0.9-0.1-1.8-0.1-1.8s1.8,0.8,2.3,1.7c0.5,0.7,1.3,1.6,2.1,1.6c0.1,0,0.2,0,0.4-0.1
	c0.9-0.3,1.4-1.8,1.4-1.8s1.8,2.3,2.3,3.8c0.5,1.5,0.9,3.8,2.1,3.8c0,0,0.1,0,0.1,0c1.3-0.1,2.1-1.3,2.1-1.3s2.7,4,4.3,11.4
	c-2.7-2.3-5.3-4.2-7.9-5.8c-0.5-1.9-1.7-5.6-4.3-8.3c-0.6-0.6-1.5-0.6-2.1,0c-0.6,0.6-0.6,1.5,0,2.1c1.1,1.2,1.9,2.6,2.5,4
	c-3.3-1.7-6.4-3-9.2-3.9c-0.6-0.9-1.6-2.6-2.3-4.4c-0.3-0.8-1.2-1.2-1.9-0.9c-0.8,0.3-1.2,1.2-0.9,1.9c0.3,0.8,0.6,1.5,1,2.2
	c-0.6-0.1-1.2-0.3-1.7-0.4c-0.8-0.2-1.6,0.3-1.8,1.2c-0.2,0.8,0.3,1.6,1.2,1.8c1.3,0.3,2.8,0.7,4.5,1.2c0.3,0.3,0.7,0.5,1.1,0.5
	c0.1,0,0.2,0,0.3,0c0,0,0.1,0,0.1,0C17,52.3,15.6,53,14.2,54c-0.7,0.5-0.9,1.4-0.4,2.1c0.3,0.4,0.8,0.6,1.2,0.6
	c0.3,0,0.6-0.1,0.9-0.3c4.1-2.8,7.3-2.5,7.4-2.5c0.1,0,0.2,0,0.3,0c1.8,0.8,3.7,1.8,5.6,2.9c0.2,0.6,0.8,1,1.4,1c0.1,0,0.1,0,0.2,0
	c0.4,0.2,0.7,0.5,1.1,0.7c-1.5,0.2-3.4,0.5-5.8,1.1c-0.8,0.2-1.3,1-1.1,1.8c0.2,0.7,0.8,1.1,1.4,1.1c0.1,0,0.3,0,0.4,0
	c6.5-1.7,8.9-1,9-1c0.1,0,0.2,0.1,0.3,0.1c1.3,1,2.6,2.2,3.9,3.4C38.3,66.5,35.6,68.6,29.5,69.2z M35.9,37c-5-2.4-9.8-5.4-10.2-6.3
	c-0.4-0.9,1.6-0.9,2.1-1.8c0,0,1.4-0.8-1-2.5c-0.9-0.7-1.4-1.9-1.4-1.9s0.6,0.1,1.4,0.1c0.9,0,1.9-0.1,2.3-0.5
	c0.7-0.8,0.4-3.5,0.4-3.5s3.3,0.6,4.3,1.7s2,2.5,2.5,4c0.2,0.5,0.8,0.8,1.4,0.8c1.1,0,2.3-0.9,1.1-2.9c-1.9-3.1-3.2-5.1-4.4-6.6
	C33,16,32.5,14.3,33,14c0,0,0.1,0,0.2,0c0.6,0,1.9,0.6,2.9,0.6c0.3,0,0.6-0.1,0.8-0.2c1.2-0.7,1-1.5,1-2.7s0.8-2.7,1.2-2.7
	c0,0,0,0,0,0c0.4,0,2.5,2.4,3.3,2.4c0.7,0,1.6-0.1,2.1-1.4c0.5-1.4,1.7-3.1,2.5-3.4c0,0,0,0,0,0c0.8,0.2,2.2,2,2.7,3.4
	c0.5,1.4,1.3,1.4,2.1,1.4c0.7,0,2.8-2.4,3.3-2.4c0,0,0,0,0,0c0.4,0.1,1.2,1.6,1.2,2.7s-0.2,2,1,2.7c0.2,0.1,0.5,0.2,0.8,0.2
	c1,0,2.3-0.6,2.9-0.6c0.1,0,0.1,0,0.2,0c0.5,0.3-0.1,2-1.3,3.5c-1.3,1.5-2.5,3.5-4.4,6.6c-1.2,2-0.1,2.9,1.1,2.9
	c0.6,0,1.3-0.3,1.4-0.8c0.5-1.4,1.5-2.9,2.5-4c1-1.1,4.3-1.7,4.3-1.7s-0.3,2.7,0.4,3.5c0.4,0.4,1.4,0.5,2.3,0.5
	c0.8,0,1.4-0.1,1.4-0.1s-0.5,1.3-1.4,1.9c-2.4,1.7-1,2.5-1,2.5c0.4,0.8,2.5,0.8,2.1,1.8s-5.2,3.9-10.2,6.3c-3.4,1.6-7.4,6.2-9.5,9
	v-2.9c0.2-0.1,0.3-0.3,0.4-0.5c0-0.1,2.7-6,11.6-11.4c0.7-0.4,0.9-1.4,0.5-2.1c-0.4-0.7-1.4-0.9-2.1-0.5c-5.3,3.2-8.5,6.6-10.4,9
	v-8.7c0.1-0.1,0.3-0.3,0.4-0.4c0-0.1,2.8-5.4,6.4-8c0.7-0.5,0.8-1.4,0.3-2.1c-0.5-0.7-1.4-0.8-2.1-0.3c-2,1.5-3.7,3.5-5,5.3v-7
	c0-0.8-0.7-1.5-1.5-1.5s-1.5,0.7-1.5,1.5v6.7c-1.3-1.7-2.9-3.7-4.8-5.1c-0.7-0.5-1.6-0.3-2.1,0.3c-0.5,0.7-0.3,1.6,0.3,2.1
	c3.6,2.6,6.4,7.9,6.4,8c0,0.1,0.1,0.2,0.2,0.2v8.7c-1.9-2.5-5.1-5.7-10.2-8.8c-0.7-0.4-1.6-0.2-2.1,0.5c-0.4,0.7-0.2,1.6,0.5,2.1
	c8.9,5.4,11.5,11.3,11.6,11.4c0.1,0.1,0.1,0.2,0.2,0.3v3.2C43.4,43.4,39.4,38.7,35.9,37z M86.4,51.5c0.3,1.1,2.5,2.3,2.5,2.3
	s-0.8,0.9-1.5,1c-0.1,0-0.1,0-0.2,0c-0.3,0-0.6-0.1-0.9-0.1c-0.4,0-0.8,0.2-1.3,0.9c-0.9,1.4,1.2,2.6,0.8,2.8
	c-0.3,0.1-1.1,0.3-1.9,0.3c-0.1,0-0.3,0-0.4,0c-0.1,0-0.3,0-0.4,0c-1.7,0-2.3,0.7-2.2,1.2c0.2,0.6,0.2,0.7,0.9,3.1
	c-3.9,0-4.7-0.6-7.3-1.6c-0.4-0.2-0.8-0.2-1.1-0.2c-1.6,0-1.7,1.7-1,2.6c0.8,1.1,2.5,3.2,2.5,3.2S74,67,72.6,67
	c-1.1,0-2.4-0.1-3.5-0.3c-1.8-0.3-2.5-1-3.2-1c-0.3,0-0.5,0.1-0.9,0.3c-1.2,0.8-0.8,1.3-0.3,3.1c-6.1-0.6-8.8-2.7-10.5-4.1
	c1.3-1.2,2.6-2.4,3.9-3.4c0.1,0,0.2,0,0.3-0.1c0.1,0,2.5-0.8,9,1c0.1,0,0.3,0,0.4,0c0.7,0,1.3-0.4,1.4-1.1c0.2-0.8-0.3-1.6-1.1-1.8
	c-2.3-0.6-4.2-1-5.8-1.1c0.4-0.2,0.7-0.5,1.1-0.7c0.1,0,0.1,0,0.2,0c0.6,0,1.2-0.4,1.4-1c1.9-1.1,3.8-2.1,5.6-2.9c0.1,0,0.2,0,0.3,0
	c0.2,0,3.3-0.3,7.4,2.5c0.3,0.2,0.6,0.3,0.9,0.3c0.5,0,0.9-0.2,1.2-0.6c0.5-0.7,0.3-1.6-0.4-2.1c-1.5-1-2.9-1.7-4.1-2.2
	c0,0,0.1,0,0.1,0c0.1,0,0.2,0,0.3,0c0.4,0,0.8-0.2,1.1-0.5c1.7-0.5,3.2-0.9,4.5-1.2c0.8-0.2,1.3-1,1.2-1.8c-0.2-0.8-1-1.3-1.8-1.2
	c-0.5,0.1-1.1,0.2-1.7,0.4c0.3-0.7,0.7-1.4,1-2.2c0.3-0.8-0.1-1.6-0.9-1.9c-0.8-0.3-1.6,0.1-1.9,0.9c-0.7,1.8-1.7,3.5-2.3,4.4
	c-2.7,0.9-5.9,2.2-9.2,3.9c0.6-1.4,1.4-2.8,2.5-4c0.6-0.6,0.6-1.5,0-2.1c-0.6-0.6-1.5-0.6-2.1,0c-2.6,2.7-3.8,6.4-4.3,8.3
	c-2.6,1.6-5.3,3.5-8,5.8c1.6-7.5,4.3-11.5,4.3-11.5s0.8,1.2,2.1,1.3c0,0,0.1,0,0.1,0c1.2,0,1.6-2.3,2.1-3.8c0.5-1.5,2.3-3.8,2.3-3.8
	s0.5,1.4,1.4,1.8c0.1,0,0.2,0.1,0.4,0.1c0.8,0,1.6-0.8,2.1-1.6c0.6-0.8,2.3-1.7,2.3-1.7s0.2,0.9-0.1,1.8s-0.1,2.7,0.9,3.2
	c0.1,0.1,0.3,0.1,0.4,0.1c0.8,0,1.6-1.2,2.9-2.5c1.5-1.6,4.9-3.9,4.9-3.9s0.3,2.2,0.7,3c0.2,0.5,0.8,0.7,1.2,0.7
	c0.3,0,0.5-0.1,0.7-0.2c0.4-0.2,2.3-1,3.1-1c0.1,0,0.2,0,0.3,0c0.6,0.3-1.1,1.9-0.7,3.1c0.4,1.1,2.6,1.2,3,1.2c0,0,0.1,0,0.1,0
	s-0.3,1.2-1.2,2.2S86.2,50.4,86.4,51.5z"/>
</svg>
