<?xml version="1.0" encoding="utf-8"?>
<!-- Generator: Adobe Illustrator 26.3.1, SVG Export Plug-In . SVG Version: 6.00 Build 0)  -->
<svg version="1.1" id="Layer_1" xmlns="http://www.w3.org/2000/svg" xmlns:xlink="http://www.w3.org/1999/xlink" x="0px" y="0px"
	 viewBox="0 0 94 94" style="enable-background:new 0 0 94 94;" xml:space="preserve">
<style type="text/css">
	.st0{fill:#9EA608;}
	.st1{fill:#E6FFB1;}
</style>
<path class="st0" d="M47,94c-20.1,0-35.2-13.6-35.2-31.6c0-11.6,3.8-18.2,7.9-25.2c1.6-2.8,3.3-5.7,4.8-9c1.2-2.8,2.3-5.6,3.3-8.2
	C31.5,9.7,35.2,0,47,0c11.9,0,15.3,9.2,18.9,18.9c0.9,2.5,1.9,5.2,3.2,8c1.4,3.2,3,6.3,4.7,9.3c4.2,7.8,8.5,15.9,8.5,26.2
	C82.2,80.4,67.1,94,47,94L47,94z"/>
<path class="st1" d="M47,94c-20.1,0-35.2-13.6-35.2-31.6c0-11.6,3.8-18.2,7.9-25.2c1.6-2.8,3.3-5.7,4.8-9c1.2-2.8,2.3-5.6,3.3-8.2
	C31.5,9.7,35.2,0,47,0c11.9,0,15.3,9.2,18.9,18.9c0.9,2.5,1.9,5.2,3.2,8c1.4,3.2,3,6.3,4.7,9.3c4.2,7.8,8.5,15.9,8.5,26.2
	C82.2,80.4,67.1,94,47,94L47,94z M47,5.9c-7.4,0-9.8,5.5-13.8,16.2c-1,2.7-2.1,5.6-3.4,8.5c-1.6,3.6-3.4,6.6-5.1,9.6
	c-3.8,6.6-7.1,12.2-7.1,22.3c0,14.7,12.6,25.7,29.4,25.7s29.4-11.1,29.4-25.7c0-8.8-3.8-15.9-7.8-23.4c-1.7-3.1-3.4-6.3-4.9-9.7
	c-1.3-2.9-2.3-5.7-3.3-8.3C56.6,10.8,54.5,5.9,47,5.9L47,5.9z"/>
<path class="st1" d="M47,76.4c-9.7,0-17.6-7.9-17.6-17.6S37.3,41.1,47,41.1S64.6,49,64.6,58.8S56.7,76.4,47,76.4L47,76.4z M47,47
	c-6.5,0-11.8,5.3-11.8,11.8S40.5,70.5,47,70.5s11.8-5.3,11.8-11.8S53.5,47,47,47z"/>
</svg>
