<?xml version="1.0" encoding="utf-8"?>
<!-- Generator: Adobe Illustrator 26.3.1, SVG Export Plug-In . SVG Version: 6.00 Build 0)  -->
<svg version="1.1" id="Layer_1" xmlns="http://www.w3.org/2000/svg" xmlns:xlink="http://www.w3.org/1999/xlink" x="0px" y="0px"
	 viewBox="0 0 94 94" style="enable-background:new 0 0 94 94;" xml:space="preserve">
<style type="text/css">
	.st0{fill:#788E06;}
	.st1{fill:#D0FFDA;}
</style>
<path class="st0" d="M94,33.4c0-2.9-1.2-5.7-3.3-7.8c-2.1-2.1-4.9-3.2-7.9-3.2c-0.1,0-0.2,0-0.3,0c-1.3-6.6-7.2-11.5-14-11.2
	c-1.1-3.2-4.1-5.7-7.8-5.7c-0.8,0-1.7,0.1-2.5,0.4C55.8,2.2,51.6,0,47,0s-8.8,2.2-11.3,5.9c-0.8-0.3-1.6-0.4-2.5-0.4
	c-3.6,0-6.8,2.4-8,5.7c-0.2,0-0.3,0-0.5,0c-6.8,0-12.3,5-13.5,11.2c-0.1,0-0.2,0-0.3,0c-6.1,0-11,4.9-11,11c0,2.3,0.8,4.6,2.1,6.5
	c-1.3,2.2-2,4.7-2,7.3c0,3.1,1.1,6.2,3.1,8.6c1.1,1.4,2.6,2.6,4.1,3.4c-1.1,2.1-1.6,4.5-1.7,6.9c-0.1,3.9,1.6,7.9,4.7,11
	c5.5,5.5,10.1,6.2,13.9,5.7c3.3,6.1,9.6,10.3,16.6,11c0.3,0.1,0.5,0.1,0.8,0.1h9.6c1.1,0,1.5,0.1,2.2-0.1c7-0.7,13.1-4.9,16.4-11.1
	c3.7,0.5,8.4-0.2,13.9-5.7c3.1-3.1,4.8-7.1,4.7-11c0-2.4-0.6-4.7-1.7-6.9C91,56.7,94,52.1,94,47c0-2.6-0.7-5.1-2.1-7.3
	C93.2,38,94,35.8,94,33.4z"/>
<path class="st1" d="M94,33.4c0-2.9-1.2-5.7-3.3-7.8c-2.1-2.1-4.9-3.2-7.9-3.2c-0.1,0-0.2,0-0.3,0c-1.3-6.6-7.2-11.5-14-11.2
	c-1.1-3.2-4.1-5.7-7.8-5.7c-0.8,0-1.7,0.1-2.5,0.4C55.8,2.2,51.6,0,47,0s-8.8,2.2-11.3,5.9c-0.8-0.3-1.6-0.4-2.5-0.4
	c-3.6,0-6.8,2.4-8,5.7c-0.2,0-0.3,0-0.5,0c-6.8,0-12.3,5-13.5,11.2c-0.1,0-0.2,0-0.3,0c-6.1,0-11,4.9-11,11c0,2.3,0.8,4.6,2.1,6.5
	c-1.3,2.2-2,4.7-2,7.3c0,3.1,1.1,6.2,3.1,8.6c1.1,1.4,2.6,2.6,4.1,3.4c-1.1,2.1-1.6,4.5-1.7,6.9c-0.1,3.9,1.6,7.9,4.7,11
	c5.5,5.5,10.1,6.2,13.9,5.7c3.3,6.1,9.6,10.3,16.6,11c0.3,0.1,0.5,0.1,0.8,0.1h9.6c1.1,0,1.5,0.1,2.2-0.1c7-0.7,13.1-4.9,16.4-11.1
	c3.7,0.5,8.4-0.2,13.9-5.7c3.1-3.1,4.8-7.1,4.7-11c0-2.4-0.6-4.7-1.7-6.9C91,56.7,94,52.1,94,47c0-2.6-0.7-5.1-2.1-7.3
	C93.2,38,94,35.8,94,33.4z M24.8,16.7c0.6,0,1.3,0.1,2.1,0.3c0.9,0.2,1.8,0,2.5-0.5c0.8-0.6,1.2-1.6,0.9-2.8
	c0.1-1.4,1.5-2.7,2.9-2.7c0.6,0,1.2,0.2,1.8,0.7c0.7,0.6,1.6,0.8,2.4,0.6c0.9-0.2,1.6-0.8,1.9-1.6c1.3-3.1,4.3-5.2,7.7-5.2
	s6.4,2,7.6,5.2c0.3,0.8,1,1.4,1.9,1.6c0.9,0.2,1.8,0,2.4-0.6c0.6-0.5,1.1-0.7,1.8-0.7c1.4,0,2.6,1.2,2.7,2.7
	c-0.2,1.1,0.2,2.1,0.9,2.8c0.7,0.6,1.6,0.8,2.5,0.5c0.8-0.2,1.5-0.3,2.1-0.3c4.1,0,7.6,3.2,8.2,7.2c-0.3,0.2-0.6,0.4-0.9,0.6
	c-2.2-1.4-4.7-2.1-7.3-2.1c-6.6,0-12.2,4.7-13.5,11c-1.9,0-3.7,0.2-5.6,0.8c-1,0.3-2,0.8-3,1.3c-2.7-1.5-5.7-2.2-8.7-2.1
	c-1.3-6.3-6.8-11-13.5-11c-2.6,0-5.1,0.7-7.3,2.1c-0.3-0.2-0.6-0.4-0.9-0.6C17.2,19.9,20.7,16.7,24.8,16.7z M37.4,55.9
	c-1.2-0.9-3-0.6-3.8,0.7L30.5,61c-1.2-2.8-2.2-5.7-3-8.7V36.2c0-1.5-1.2-2.8-2.8-2.8c-1.5,0-2.8,1.2-2.8,2.8v12.1l-7-3.5
	c-1.4-0.7-3-0.1-3.7,1.2c-0.7,1.4-0.1,3,1.2,3.7l9.9,5c1,3.8,2.4,7.5,4.1,11.1L19,66.5c-1.5,0.2-2.6,1.5-2.5,3
	c0.2,1.5,1.5,2.6,3,2.5l9.8-1c3.9,6.6,9,12.6,15,17.6h-1.5c-6.4,0-12.4-4-14.7-9.8c-0.4-1.1-1.5-1.7-2.6-1.7c-0.2,0-0.5,0-0.7,0.1
	c-2.8,0.8-6,1.1-10.8-3.7c-2-2.1-3.2-4.6-3.1-7.1c0-2.4,0.9-4.7,2.5-6.6c0.6-0.7,0.8-1.7,0.4-2.6c-0.3-0.9-1.1-1.6-2-1.8
	c-3.8-0.9-6.4-4.2-6.4-8c0-2.1,0.8-4.1,2.2-5.6c1.1-1.1,1-3-0.2-4c-1.3-1.1-2-2.6-2-4.2c0-3,2.5-5.5,5.5-5.5c1.6,0,3.1,0.7,4.2,2
	c1,1.2,2.8,1.3,4,0.2c1.5-1.4,3.5-2.2,5.6-2.2c4.5,0,8.2,3.6,8.3,8.1c-0.1,1.1,0.3,1.9,1,2.5c0.6,0.5,1.5,0.8,2.3,0.6
	c5.7-1.2,11.4,2,13,7.5c1.1,3.8,0.3,7.6-2.2,10.5c-3.4,4-4.7,8.8-3.4,13.4L47.6,84c-5.8-4.9-10.7-10.8-14.3-17.3l4.8-6.9
	C38.9,58.5,38.6,56.8,37.4,55.9z M86.3,41.6c1.4,1.5,2.2,3.5,2.2,5.6c0,3.8-2.8,7.2-6.6,8c-0.9,0.2-1.7,0.9-2,1.8
	c-0.3,0.9-0.1,1.9,0.4,2.6c1.6,1.9,2.4,4.2,2.5,6.6c0,2.4-1.1,5-3.1,7.1c-4.8,4.9-8,4.5-10.8,3.7c-1.4-0.4-2.8,0.3-3.3,1.6
	c-2,4.9-6.1,8.4-11.1,9.5l-0.9-3.2c4.3-4.2,8-8.9,11-14l9.7,1c1.5,0.2,2.9-0.9,3-2.5c0.2-1.5-0.9-2.9-2.5-3l-7.5-0.8
	c1.7-3.6,3-7.3,4.1-11.1l9.9-4.9c1.4-0.7,1.9-2.3,1.2-3.7c-0.7-1.4-2.3-1.9-3.7-1.2l-7,3.5v-12c0-1.5-1.2-2.8-2.8-2.8
	c-1.5,0-2.8,1.2-2.8,2.8v16.2c-0.8,3-1.7,5.9-2.9,8.7l-3.1-4.4c-0.9-1.2-2.6-1.6-3.8-0.7c-1.2,0.9-1.6,2.6-0.7,3.8l4.8,6.9
	c0,0.1-0.1,0.2-0.1,0.2c-2.4,4.3-5.3,8.3-8.6,11.9L49,69c-0.8-2.7,0-5.7,2.2-8.2c3.7-4.3,4.9-10,3.3-15.6c-0.6-2.1-1.6-4-2.9-5.6
	c2-0.6,3.9-0.7,5.9-0.4c1.8,0.4,3.5-1.1,3.3-3.1c0.1-4.5,3.8-8.1,8.3-8.1c2.1,0,4.1,0.8,5.6,2.2c0.6,0.5,1.3,0.8,2,0.7
	c0.8,0,1.5-0.4,1.9-1c1.1-1.3,2.6-2,4.2-2c3.1,0,5.7,2.5,5.7,5.5c0,1.6-0.7,3.1-2,4.2c-0.6,0.5-0.9,1.2-1,1.9
	C85.5,40.3,85.7,41,86.3,41.6z"/>
</svg>
