<?xml version="1.0" encoding="utf-8"?>
<!-- Generator: Adobe Illustrator 26.3.1, SVG Export Plug-In . SVG Version: 6.00 Build 0)  -->
<svg version="1.1" id="Layer_1" xmlns="http://www.w3.org/2000/svg" xmlns:xlink="http://www.w3.org/1999/xlink" x="0px" y="0px"
	 viewBox="0 0 94 94" style="enable-background:new 0 0 94 94;" xml:space="preserve">
<style type="text/css">
	.st0{fill:#DD8E3F;}
	.st1{fill:#FFFACC;}
</style>
<path class="st0" d="M91.2,0H47C34.4,0,22.6,4.9,13.8,13.8S0,34.4,0,47c0,10.4,3.4,20.4,9.6,28.5H2.8c-1.5,0-2.8,1.2-2.8,2.8
	C0,79.8,1.2,81,2.8,81h6.3l-8.3,8.3c-1.1,1.1-1.1,2.8,0,3.9C1.3,93.7,2,94,2.8,94s1.4-0.3,1.9-0.8l8.3-8.3v6.3
	c0,1.5,1.2,2.8,2.8,2.8c1.5,0,2.8-1.2,2.8-2.8v-6.9c8,6.3,18,9.7,28.4,9.7c12.6,0,24.4-4.9,33.2-13.8S94,59.6,94,47V2.8
	C94,1.2,92.8,0,91.2,0z"/>
<path class="st1" d="M91.2,0H47C34.4,0,22.6,4.9,13.8,13.8S0,34.4,0,47c0,10.4,3.4,20.4,9.6,28.5H2.8c-1.5,0-2.8,1.2-2.8,2.8
	C0,79.8,1.2,81,2.8,81h6.3l-8.3,8.3c-1.1,1.1-1.1,2.8,0,3.9C1.3,93.7,2,94,2.8,94s1.4-0.3,1.9-0.8l8.3-8.3v6.3
	c0,1.5,1.2,2.8,2.8,2.8c1.5,0,2.8-1.2,2.8-2.8v-6.9c8,6.3,18,9.7,28.4,9.7c12.6,0,24.4-4.9,33.2-13.8S94,59.6,94,47V2.8
	C94,1.2,92.8,0,91.2,0z M7.4,53.8C7.2,55,7,56.3,6.8,57.5C6,54.2,5.5,50.6,5.5,47C5.5,24.1,24.1,5.5,47,5.5h16.4l-9.6,1.9
	c-10.4,2.1-20.9,8-29.6,16.8S9.5,43.5,7.4,53.8z M13.4,69.3c-1.4-4.2-1.6-9.1-0.5-14.4C16.8,35.6,35.6,16.7,55,12.8l21.3-4.3
	l-14,8.4c-15.7,9.4-36,29.7-45.3,45.3C15.4,64.8,14.2,67.2,13.4,69.3z M18.2,76.5c-0.1,0-0.2,0-0.4,0c-0.1-0.1-0.2-0.2-0.3-0.3
	c0-0.1,0-0.2,0-0.4c-0.1-1,0.1-4,4.2-10.8c9-14.9,28.4-34.3,43.3-43.3l18.2-10.9L72.3,29c-9,14.9-28.4,34.3-43.3,43.3
	C22.2,76.4,19.2,76.6,18.2,76.5z M24.7,80.6c2.1-0.8,4.5-2,7.2-3.6c7.6-4.5,16.4-11.7,24.9-20.2S72.5,39.4,77,31.9l8.4-14l-4.3,21.3
	C77.2,58.5,58.4,77.4,39,81.3C33.7,82.2,28.8,82,24.7,80.6z M88.5,47c0,22.9-18.6,41.5-41.5,41.5c-3.6,0-7.2-0.5-10.5-1.4
	c1.2-0.1,2.4-0.3,3.7-0.6c10.4-2.1,20.9-8,29.6-16.8c8.7-8.7,14.7-19.3,16.8-29.6l1.9-9.6C88.5,30.5,88.5,47,88.5,47z"/>
</svg>
