<?xml version="1.0" encoding="utf-8"?>
<!-- Generator: Adobe Illustrator 26.3.1, SVG Export Plug-In . SVG Version: 6.00 Build 0)  -->
<svg version="1.1" id="Layer_1" xmlns="http://www.w3.org/2000/svg" xmlns:xlink="http://www.w3.org/1999/xlink" x="0px" y="0px"
	 viewBox="0 0 94 94" style="enable-background:new 0 0 94 94;" xml:space="preserve">
<style type="text/css">
	.st0{fill:#B5442E;}
	.st1{fill:#FFD4D1;}
</style>
<g>
	<path class="st0" d="M92.2,51.7C93.4,47.9,94,44,94,40v-0.8c0-12.1-9.8-21.9-21.9-21.9H35.8l0,0c-5.3,0-10.4,1.8-14.5,5
		c-2.2-2-5.1-3.3-8.2-3.5H6.3c-0.9,0-1.6,0.7-1.6,1.6c0,3.8,0.6,8.5,5.6,10.8c0.1,0,0.1,0.1,0.2,0.1l3.3,1l-4.7,9.9
		C7.7,45.1,4.8,47,1.6,47C0.7,47,0,47.7,0,48.6v7.8c0,0.8,0.6,1.4,1.3,1.6l20.1,2.9c0.3,0,0.5,0.3,0.5,0.6v13.8
		c0,0.9,0.7,1.6,1.6,1.6h6.3c0.7,0,1.4-0.5,1.5-1.3l2.6-12.9c0.1-0.3,0.4-0.6,0.9-0.4c5.4,2.4,11.1,3.6,17,3.6
		c14.1,0,20.9-4.9,22.6-6.4l0.1,0.1c2.3,1.3,4.4,2.8,6.2,4.6l0.4,0.4l-4.4,7.6c-0.3,0.5-0.4,1-0.4,1.5c0,1.7,1.4,3.1,3.1,3.1h5.1
		c0.5,0,1-0.2,1.3-0.7l7.8-11c0.4-0.5,0.4-1.2,0-1.8c-1.9-3-2.6-6.5-2-10C91.8,52.9,92,52.3,92.2,51.7z"/>
</g>
<g>
	<rect x="17.2" y="43.9" class="st1" width="3.1" height="3.1"/>
	<path class="st1" d="M25.8,33.5l3.7-3.7c2-2,4.7-3.1,7.5-3.2v-3.1c-3.7,0-7.1,1.5-9.7,4.1l-4.9,5c-0.3,0.3-0.5,0.7-0.4,1.1
		c0,0.4,0.2,0.8,0.5,1.1s0.6,0.6,1,0.8c2.1,1.7,5,2.5,8,2.5c3.7,0,7.4-1.3,9.9-3.7l-2.2-2.3C35.9,35.3,29.5,35.9,25.8,33.5z"/>
	<path class="st1" d="M92.2,51.7C93.4,47.9,94,44,94,40v-0.8c0-12.1-9.8-21.9-21.9-21.9H35.8l0,0c-5.3,0-10.4,1.8-14.5,5
		c-2.2-2-5.1-3.3-8.2-3.5H6.3c-0.9,0-1.6,0.7-1.6,1.6c0,3.8,0.6,8.5,5.6,10.8c0.1,0,0.1,0.1,0.2,0.1l3.3,1l-4.7,9.9
		C7.7,45.1,4.8,47,1.6,47C0.7,47,0,47.7,0,48.6v7.8c0,0.8,0.6,1.4,1.3,1.6l20.1,2.9c0.3,0,0.5,0.3,0.5,0.6v13.8
		c0,0.9,0.7,1.6,1.6,1.6h6.3c0.7,0,1.4-0.5,1.5-1.3l2.6-12.9c0.1-0.3,0.4-0.6,0.9-0.4c5.4,2.4,11.1,3.6,17,3.6
		c14.1,0,20.9-4.9,22.6-6.4l0.1,0.1c2.3,1.3,4.4,2.8,6.2,4.6l0.4,0.4l-4.4,7.6c-0.3,0.5-0.4,1-0.4,1.5c0,1.7,1.4,3.1,3.1,3.1h5.1
		c0.5,0,1-0.2,1.3-0.7l7.8-11c0.4-0.5,0.4-1.2,0-1.8c-1.9-3-2.6-6.5-2-10C91.8,52.9,92,52.3,92.2,51.7z M11.5,28.3
		c-2.3-1.1-3.4-3-3.7-6.4H13c2.2,0.1,4.3,1,5.9,2.4c-1.5,1.5-2.7,3.2-3.8,5.1L11.5,28.3z M90.9,39.2c0,0.9-0.7,1.6-1.6,1.6
		s-1.6-0.7-1.6-1.6V36c0-2.6-2.1-4.7-4.7-4.7s-4.7,2.1-4.7,4.7v1.6h3.1V36c0-0.9,0.7-1.6,1.6-1.6s1.6,0.7,1.6,1.6v3.1
		c0,2.6,2.1,4.7,4.7,4.7c0.5,0,0.9-0.1,1.4-0.2c-0.3,2.4-0.8,4.8-1.5,7.2c-0.2,0.8-0.4,1.5-0.5,2.1c-0.7,3.9,0,7.9,1.9,11.3
		l-6.8,9.5h-4.3l4.9-8.6c0.4-0.6,0.2-1.4-0.3-1.9L82.9,62c-2.1-2-4.4-3.7-6.9-5.1c-3.2-1.7-5.2-4.8-5.5-8.3l-3.1,0.2
		c0.3,3.5,1.8,6.6,4.3,8.9c-2.1,1.5-8.4,5.1-19.9,5.1c-5.4,0-10.7-1.1-15.7-3.3c-0.2-0.1-0.5-0.2-0.8-0.2c-2-0.4-4,0.9-4.4,2.9
		l-2.3,11.6h-3.4V61.4c0-1.8-1.4-3.4-3.2-3.7L3.1,55v-5c3.8-0.5,7.1-3,8.8-6.5L17.4,32c3.4-7.1,10.6-11.6,18.4-11.6l0,0h36.3
		C82.4,20.4,90.9,28.8,90.9,39.2L90.9,39.2z"/>
</g>
</svg>
