<?xml version="1.0" encoding="utf-8"?>
<!-- Generator: Adobe Illustrator 26.3.1, SVG Export Plug-In . SVG Version: 6.00 Build 0)  -->
<svg version="1.1" id="Layer_1" xmlns="http://www.w3.org/2000/svg" xmlns:xlink="http://www.w3.org/1999/xlink" x="0px" y="0px"
	 viewBox="0 0 332 322" style="enable-background:new 0 0 332 322;" xml:space="preserve">
<style type="text/css">
	.st0{fill:url(#SVGID_1_);}
	.st1{fill:#2374FF;}
</style>
<radialGradient id="SVGID_1_" cx="166.05" cy="207.0127" r="188.7489" gradientTransform="matrix(0.9997 0 0 0.7703 0 1.5284)" gradientUnits="userSpaceOnUse">
	<stop  offset="0.5" style="stop-color:#FFFBF7;stop-opacity:0"/>
	<stop  offset="1" style="stop-color:#FF8A00;stop-opacity:0.4"/>
</radialGradient>
<path class="st0" d="M172.7,123.9c-3.7-2.3-3.4-2.7,0.7-0.8l158.5,69.7l0,0V156c-0.3,0-0.5-0.1-0.8-0.2l-156.8-34.3
	c-4.6-1-4.5-1.5,0.3-1l156.3,14.6c0.4,0,0.7,0.1,1.1,0.2V104c-0.4,0.1-0.7,0.2-1.1,0.2l-156.3,14.7c-4.7,0.5-4.9,0-0.3-1l156.8-34.3
	c0.3-0.1,0.6-0.1,0.8-0.2V46.6l0,0l-158.4,69.7c-4.1,1.8-4.5,1.5-0.7-0.8l159.1-97.7V0h-45.8L171.2,114.4c-2.9,2.9-3.4,2.6-1.1-0.5
	L252.1,0h-43.3l-40.5,113.2c-1.3,3.5-1.8,3.4-1.3-0.2L184.4,0h-36.9L165,113.1c0.6,3.6,0,3.7-1.3,0.2L123.2,0H79.9l81.9,113.8
	c2.3,3.2,1.8,3.5-1.1,0.5L45.9,0H0v17.8l159.3,97.8c3.7,2.3,3.4,2.7-0.7,0.8L0.1,46.6c0,0,0,0-0.1,0v36.8c0.3,0.1,0.6,0.1,0.9,0.2
	l156.8,34.3c4.6,1,4.5,1.5-0.3,1L1.1,104.1c-0.4,0-0.8-0.1-1.1-0.2v31.4c0.4-0.1,0.8-0.2,1.1-0.2l156.3-14.7c4.7-0.5,4.9,0,0.3,1
	L0.9,155.9c-0.3,0.1-0.6,0.1-0.9,0.2v36.8c0,0,0,0,0.1,0l158.4-69.7c4.1-1.8,4.5-1.5,0.7,0.8L0,221.6v63.5L160.7,125
	c2.9-2.9,3.4-2.6,1.1,0.5L20.4,322h73.2l70.1-195.9c1.3-3.5,1.8-3.5,1.3,0.2l-30.2,195.7H197l-30.1-195.6c-0.6-3.6,0-3.7,1.3-0.2
	L238.3,322h73.2L170.1,125.5c-2.3-3.2-1.8-3.5,1.1-0.5L331.9,285v-63.5L172.7,123.9z"/>
<path class="st1" d="M257,164.5c0,5.6-5.4,10.3-12,10.3H87c-6.6,0-12-4.6-12-10.3V135c0-5.6,5.4-10.3,12-10.3h158
	c6.6,0,12,4.6,12,10.3V164.5z"/>
</svg>
