<?xml version="1.0" encoding="utf-8"?>
<!-- Generator: Adobe Illustrator 26.3.1, SVG Export Plug-In . SVG Version: 6.00 Build 0)  -->
<svg version="1.1" id="Layer_1" xmlns="http://www.w3.org/2000/svg" xmlns:xlink="http://www.w3.org/1999/xlink" x="0px" y="0px"
	 viewBox="0 0 332 320" style="enable-background:new 0 0 332 320;" xml:space="preserve">
<style type="text/css">
	.st0{fill:url(#SVGID_1_);}
	.st1{fill:url(#SVGID_00000158749164572268324280000016614506523642116225_);}
	.st2{fill:#BE661A;}
</style>
<linearGradient id="SVGID_1_" gradientUnits="userSpaceOnUse" x1="166" y1="-30" x2="166" y2="290" gradientTransform="matrix(1 0 0 1 0 30)">
	<stop  offset="0" style="stop-color:#00FFFF;stop-opacity:0.2"/>
	<stop  offset="1" style="stop-color:#00FFFF;stop-opacity:0.8"/>
</linearGradient>
<rect class="st0" width="332" height="320"/>
<linearGradient id="SVGID_00000002383245924735530670000001279305008852322209_" gradientUnits="userSpaceOnUse" x1="138.5" y1="134.75" x2="312.5" y2="134.75" gradientTransform="matrix(1 0 0 1 0 30)">
	<stop  offset="0" style="stop-color:#BE661A"/>
	<stop  offset="1" style="stop-color:#FF9000"/>
</linearGradient>
<path style="fill:url(#SVGID_00000002383245924735530670000001279305008852322209_);" d="M225.2,61.5c-19.7,0-36.3,7.1-49.3,21.2
	c-11.1,12.1-19.7,29.5-25.7,51.9c-10.8,40.3-11.7,89.7-11.7,133.4h174c0-43.7-0.9-93.1-11.7-133.3c-6-22.4-14.6-39.8-25.8-51.9
	c-13-14.1-29.6-21.2-49.5-21.3L225.2,61.5L225.2,61.5z"/>
<path class="st2" d="M225.6,65.9c-79.9-0.3-83,118.2-83,202.1h166C308.6,184.1,305.5,66.3,225.6,65.9z M190.8,194.9
	c-0.9,0-1.6-1-1.6-2.3s0.7-2.3,1.6-2.3s1.6,1,1.6,2.3C192.4,194,191.7,194.9,190.8,194.9z M201.7,140.6c-0.8,0-1.5-0.8-1.5-1.7
	c0-1,0.6-1.7,1.5-1.7c0.8,0,1.5,0.8,1.5,1.7C203.1,139.8,202.5,140.6,201.7,140.6z M209.4,216.8c-1.4,0-2.4-1.6-2.4-3.5
	s1.1-3.5,2.4-3.5c1.3,0,2.4,1.6,2.4,3.5C211.9,215.2,210.8,216.8,209.4,216.8z M213.9,85.2c-0.9,0-1.6-0.9-1.6-2s0.7-2,1.6-2
	c0.9,0,1.6,0.9,1.6,2C215.5,84.3,214.8,85.2,213.9,85.2z M225.8,172.8c-1.4,0-2.5-1.4-2.5-3.1c0-1.7,1.1-3.1,2.5-3.1
	s2.5,1.4,2.5,3.1C228.4,171.4,227.2,172.8,225.8,172.8z M237.6,137c0-1.7,1.1-3.1,2.4-3.1c1.4,0,2.4,1.4,2.4,3.1
	c0,1.7-1.1,3.1-2.4,3.1C238.6,140,237.6,138.6,237.6,137z M263.5,111.6c-1.8,0-3.2-1.8-3.2-4c0-2.3,1.5-4,3.2-4c1.8,0,3.2,1.8,3.2,4
	S265.3,111.6,263.5,111.6z M273.2,168.3c-0.9,0-1.6-0.9-1.6-2s0.7-2,1.6-2s1.6,0.9,1.6,2S274.1,168.3,273.2,168.3z M284.3,249.4
	c-0.9,0-1.6-0.9-1.6-2s0.7-2,1.6-2s1.6,0.9,1.6,2S285.2,249.4,284.3,249.4z M291.2,209.9c-2,0-3.6-2-3.6-4.5s1.6-4.5,3.6-4.5
	s3.6,2,3.6,4.5S293.2,209.9,291.2,209.9z"/>
</svg>
