<?xml version="1.0" encoding="utf-8"?>
<!-- Generator: Adobe Illustrator 26.3.1, SVG Export Plug-In . SVG Version: 6.00 Build 0)  -->
<svg version="1.1" id="Layer_1" xmlns="http://www.w3.org/2000/svg" xmlns:xlink="http://www.w3.org/1999/xlink" x="0px" y="0px"
	 viewBox="0 0 332 320" style="enable-background:new 0 0 332 320;" xml:space="preserve">
<style type="text/css">
	.st0{fill:url(#SVGID_1_);}
	.st1{fill:url(#SVGID_00000160883338588756975490000009929045463164778170_);}
	.st2{fill:#BE661A;}
</style>
<linearGradient id="SVGID_1_" gradientUnits="userSpaceOnUse" x1="166" y1="222" x2="166" y2="-98" gradientTransform="matrix(1 0 0 -1 0 222)">
	<stop  offset="0" style="stop-color:#FFFFFF;stop-opacity:0"/>
	<stop  offset="0.85" style="stop-color:#00FFFF"/>
</linearGradient>
<rect class="st0" width="332" height="320"/>
<linearGradient id="SVGID_00000167354903254616745290000016249769606050401668_" gradientUnits="userSpaceOnUse" x1="139" y1="57.25" x2="313" y2="57.25" gradientTransform="matrix(1 0 0 -1 0 222)">
	<stop  offset="0" style="stop-color:#BE661A"/>
	<stop  offset="1" style="stop-color:#FF9000"/>
</linearGradient>
<path style="fill:url(#SVGID_00000167354903254616745290000016249769606050401668_);" d="M225.7,61.5c-19.7,0-36.3,7.1-49.3,21.2
	c-11.1,12.1-19.7,29.5-25.7,51.9C139.9,174.9,139,224.3,139,268h174c0-43.7-0.9-93.1-11.7-133.3c-6-22.4-14.6-39.8-25.8-51.9
	c-13-14.1-29.6-21.2-49.5-21.3L225.7,61.5L225.7,61.5z"/>
<path class="st2" d="M226.1,65.9c-79.9-0.3-83,118.2-83,202.1h166C309.1,184.1,306,66.3,226.1,65.9z M191.3,194.9
	c-0.9,0-1.6-1-1.6-2.3s0.7-2.3,1.6-2.3s1.6,1,1.6,2.3C192.9,194,192.2,194.9,191.3,194.9z M202.2,140.6c-0.8,0-1.5-0.8-1.5-1.7
	c0-1,0.6-1.7,1.5-1.7c0.8,0,1.5,0.8,1.5,1.7C203.6,139.8,203,140.6,202.2,140.6z M209.9,216.8c-1.4,0-2.4-1.6-2.4-3.5
	s1.1-3.5,2.4-3.5c1.3,0,2.4,1.6,2.4,3.5C212.4,215.2,211.3,216.8,209.9,216.8z M214.4,85.2c-0.9,0-1.6-0.9-1.6-2s0.7-2,1.6-2
	c0.9,0,1.6,0.9,1.6,2C216,84.3,215.3,85.2,214.4,85.2z M226.3,172.8c-1.4,0-2.5-1.4-2.5-3.1c0-1.7,1.1-3.1,2.5-3.1s2.5,1.4,2.5,3.1
	C228.9,171.4,227.7,172.8,226.3,172.8z M238.1,137c0-1.7,1.1-3.1,2.4-3.1c1.4,0,2.4,1.4,2.4,3.1c0,1.7-1.1,3.1-2.4,3.1
	C239.1,140,238.1,138.6,238.1,137z M264,111.6c-1.8,0-3.2-1.8-3.2-4c0-2.3,1.5-4,3.2-4c1.8,0,3.2,1.8,3.2,4S265.8,111.6,264,111.6z
	 M273.7,168.3c-0.9,0-1.6-0.9-1.6-2s0.7-2,1.6-2c0.9,0,1.6,0.9,1.6,2S274.6,168.3,273.7,168.3z M284.8,249.4c-0.9,0-1.6-0.9-1.6-2
	s0.7-2,1.6-2c0.9,0,1.6,0.9,1.6,2S285.7,249.4,284.8,249.4z M291.7,209.9c-2,0-3.6-2-3.6-4.5s1.6-4.5,3.6-4.5s3.6,2,3.6,4.5
	S293.7,209.9,291.7,209.9z"/>
</svg>
