<?xml version="1.0" encoding="utf-8"?>
<!-- Generator: Adobe Illustrator 26.3.1, SVG Export Plug-In . SVG Version: 6.00 Build 0)  -->
<svg version="1.1" xmlns="http://www.w3.org/2000/svg" xmlns:xlink="http://www.w3.org/1999/xlink" x="0px" y="0px"
	 viewBox="0 0 342 260" style="enable-background:new 0 0 342 260;" xml:space="preserve">
<style type="text/css">
	.st0{fill:#FF7F00;}
	.st1{fill:#FFD400;}
	.st2{display:none;}
</style>
<g id="Layer_1">
	<path class="st0" d="M83.6,1.7h-0.4c-18.8,0-34.5,8.2-46.8,24.2C25.9,39.7,17.7,59.6,12,85.3c-9.7,44-10.9,99.9-11,148.1
		C1.2,249.8,13.7,260,29.2,260c50.3,0,233.6,0,283.7,0c13,0,23.9-6.3,27.1-18.9H188.7c-12.4,0-22.4-10.6-22.5-23.8
		c-0.4-43.9-2.3-92.9-11-131.9c-5.7-25.6-13.9-45.6-24.5-59.3C118.3,10,102.6,1.8,83.6,1.7L83.6,1.7z"/>
	<g>
		<path class="st1" d="M164.1,153.8c0.2,2.8,0.4,5.7,0.5,8.5C164.5,159.5,164.3,156.6,164.1,153.8z"/>
		<path class="st1" d="M162.8,136.5c-0.4-3.9-0.7-7.8-1.2-11.6C162,128.7,162.4,132.6,162.8,136.5z"/>
		<path class="st1" d="M163.5,145.3c0.2,2.8,0.4,5.6,0.6,8.5C163.9,151,163.7,148.1,163.5,145.3z"/>
		<path class="st1" d="M160.6,116.7c0.3,2.4,0.6,4.8,0.9,7.3C161.2,121.6,160.9,119.2,160.6,116.7z"/>
		<path class="st1" d="M157.5,96.6c0.5,2.5,0.9,5.1,1.3,7.7C158.4,101.7,157.9,99.2,157.5,96.6z"/>
		<path class="st1" d="M158.8,104.3c0.6,3.8,1.2,7.6,1.7,11.5C160,111.9,159.4,108.1,158.8,104.3z"/>
		<path class="st1" d="M165.4,179.4c0.2,5.7,0.4,11.4,0.5,17C165.8,190.8,165.6,185.1,165.4,179.4z"/>
		<path class="st1" d="M171.4,232.4c0.4,0.6,0.9,1.1,1.4,1.6C172.3,233.5,171.8,233,171.4,232.4z"/>
		<path class="st1" d="M167.3,224.4c0.3,0.9,0.6,1.8,1,2.6C167.9,226.2,167.5,225.3,167.3,224.4z"/>
		<path class="st1" d="M4.8,233.4C4.9,247.5,15.8,256,29.2,256h283.7c9.2,0,17.5-2.5,21.6-10.9H188.7c-14.4,0-26.2-12.4-26.3-27.7
			c-0.6-73.9-6.2-109.8-10.9-131c-5.6-25.1-13.6-44.6-23.7-57.7C116.2,13.5,101.3,5.8,83.6,5.7h-0.4c-17.6,0-32.4,7.7-43.9,22.8
			C29.2,41.7,21.2,61.1,15.6,86.2C6.2,129,4.9,183.3,4.8,233.4z"/>
		<path class="st1" d="M166.7,222.4c0-0.1-0.1-0.3-0.1-0.4C166.7,222.1,166.7,222.2,166.7,222.4z"/>
		<path class="st1" d="M6.8,115.6c0.4-3,0.8-6,1.3-9C7.6,109.6,7.2,112.6,6.8,115.6z"/>
		<path class="st1" d="M165.4,179.4c-0.1-1.5-0.1-3-0.2-4.4C165.3,176.4,165.3,177.9,165.4,179.4z"/>
		<path class="st1" d="M1.9,240.6c-0.4-1.3-0.6-2.8-0.8-4.2C1.3,237.9,1.6,239.3,1.9,240.6z"/>
		<path class="st1" d="M331.8,254c-1.1,0.9-2.3,1.7-3.6,2.4C329.5,255.7,330.7,254.9,331.8,254z"/>
		<path class="st1" d="M13.1,80.5c1.5-6.2,3.2-12.1,5-17.6C16.2,68.4,14.6,74.3,13.1,80.5z"/>
		<path class="st1" d="M29.2,260L29.2,260c-1.9,0-3.8-0.2-5.6-0.5C25.3,259.8,27.2,260,29.2,260z"/>
		<path class="st1" d="M14.6,256.5c-0.8-0.4-1.5-0.9-2.2-1.3C13.1,255.7,13.9,256.1,14.6,256.5z"/>
		<path class="st1" d="M338.4,245.5c-0.6,1.4-1.4,2.7-2.2,3.9C337,248.2,337.8,246.9,338.4,245.5z"/>
		<path class="st1" d="M336.2,249.4c-0.8,1.2-1.8,2.3-2.8,3.3C334.4,251.6,335.4,250.5,336.2,249.4z"/>
		<path class="st1" d="M326.3,257.3c-1.3,0.6-2.7,1.1-4.2,1.5C323.5,258.4,324.9,257.9,326.3,257.3z"/>
		<path class="st1" d="M5.2,247.9c-1.4-2.2-2.5-4.6-3.2-7.3C2.7,243.3,3.8,245.8,5.2,247.9z"/>
		<path class="st1" d="M13.1,80.5c-0.4,1.6-0.7,3.1-1.1,4.7c-1.5,6.9-2.8,14-3.9,21.4c1.1-7.4,2.4-14.5,3.9-21.4
			C12.3,83.7,12.7,82.1,13.1,80.5z"/>
		<path class="st1" d="M18.1,62.9c1.4-4.1,2.8-8.1,4.3-11.8C20.9,54.9,19.4,58.8,18.1,62.9z"/>
		<path class="st1" d="M7.5,251c0.6,0.6,1.2,1.2,1.8,1.8C8.7,252.3,8.1,251.7,7.5,251z"/>
		<path class="st1" d="M1,233.4c0,1,0.1,2,0.2,3C1.1,235.4,1,234.4,1,233.4L1,233.4z"/>
		<path class="st1" d="M22.2,259.3c-2.7-0.6-5.2-1.5-7.5-2.7C16.9,257.8,19.5,258.7,22.2,259.3z"/>
	</g>
	<path class="st0" d="M20.2,228.9c-1.5,0-2.7-1.6-2.7-3.7c0-2,1.2-3.7,2.7-3.7c1.5,0,2.7,1.6,2.7,3.7
		C23,227.3,21.6,228.9,20.2,228.9z M20.2,167c-1.9,0-3.5-2.1-3.5-4.7c0-2.6,1.5-4.7,3.5-4.7s3.5,2.1,3.5,4.7
		C23.7,165,22.1,167,20.2,167z M26.8,208.1c-0.9,0-1.5-0.9-1.5-2.1c0-1.2,0.7-2.1,1.5-2.1s1.5,0.9,1.5,2.1
		C28.4,207.2,27.7,208.1,26.8,208.1z M37.4,121.9c-0.9,0-1.5-0.9-1.5-2.1c0-1.2,0.7-2.1,1.5-2.1c0.9,0,1.5,0.9,1.5,2.1
		C39,121,38.3,121.9,37.4,121.9z M46.7,63c-1.7,0-3.1-1.9-3.1-4.3c0-2.4,1.4-4.3,3.1-4.3s3.1,1.9,3.1,4.3S48.4,63,46.7,63z
		 M60.9,182.9c-2.6,0-4.6-2.8-4.6-6.3s2.1-6.3,4.6-6.3c2.6,0,4.6,2.8,4.6,6.3C65.6,180.1,63.5,182.9,60.9,182.9z M66.9,88.3
		c0-1.2,0.7-2.1,1.5-2.1s1.5,0.9,1.5,2.1c0,1.2-0.7,2.1-1.5,2.1C67.6,90.3,66.9,89.4,66.9,88.3z M61.7,215.7c-1.3,0-2.4-1.4-2.4-3.2
		c0-1.7,1-3.2,2.4-3.2c1.3,0,2.4,1.4,2.4,3.2C64.1,214.2,63,215.7,61.7,215.7z M74.5,193.4c-1.5,0-2.7-1.6-2.7-3.7
		c0-2,1.2-3.7,2.7-3.7s2.7,1.6,2.7,3.7S76,193.4,74.5,193.4z M90,38.7c-1.5,0-2.7-1.6-2.7-3.7c0-2,1.2-3.7,2.7-3.7
		c1.5,0,2.7,1.6,2.7,3.7C92.7,37.1,91.5,38.7,90,38.7z M97.4,109.5c-1.3,0-2.4-1.4-2.4-3.2c0-1.7,1-3.2,2.4-3.2s2.4,1.4,2.4,3.2
		C99.7,108.1,98.7,109.5,97.4,109.5z M103.9,152.4c-0.7,0-1.1-0.7-1.1-1.5c0-0.9,0.6-1.5,1.1-1.5s1.1,0.7,1.1,1.5
		C105.1,151.6,104.6,152.4,103.9,152.4z M112.1,206.1c-0.9,0-1.5-0.9-1.5-2.1c0-1.2,0.7-2.1,1.5-2.1c0.9,0,1.5,0.9,1.5,2.1
		C113.7,205.1,112.9,206.1,112.1,206.1z M120.2,63c1,0,1.9,1.2,1.9,2.6c0,1.4-0.9,2.6-1.9,2.6s-1.9-1.2-1.9-2.6
		C118.3,64.2,119.2,63,120.2,63z M121,167c-1.3,0-2.4-1.4-2.4-3.2s1-3.2,2.4-3.2c1.3,0,2.4,1.4,2.4,3.2
		C123.3,165.7,122.3,167,121,167z M137.7,111.9c0.7,0,1.1,0.7,1.1,1.5c0,0.8-0.6,1.5-1.1,1.5s-1.1-0.7-1.1-1.5
		C136.5,112.6,137,111.9,137.7,111.9z M136.9,230.6c-1.7,0-3.1-1.9-3.1-4.3s1.4-4.3,3.1-4.3s3.1,1.9,3.1,4.3
		C140,228.7,138.6,230.6,136.9,230.6z M152.8,207.1c-0.9,0-1.5-0.9-1.5-2.1s0.7-2.1,1.5-2.1c0.9,0,1.5,0.9,1.5,2.1
		C154.4,206.2,153.6,207.1,152.8,207.1z"/>
</g>
<g id="Layer_2" class="st2">
</g>
</svg>
