<?xml version="1.0" encoding="utf-8"?>
<!-- Generator: Adobe Illustrator 26.3.1, SVG Export Plug-In . SVG Version: 6.00 Build 0)  -->
<svg version="1.1" id="Layer_1" xmlns="http://www.w3.org/2000/svg" xmlns:xlink="http://www.w3.org/1999/xlink" x="0px" y="0px"
	 viewBox="0 0 94 94" style="enable-background:new 0 0 94 94;" xml:space="preserve">
<style type="text/css">
	.st0{fill:#C2AB4D;}
	.st1{fill:#FFFAF2;}
</style>
<g>
	<path class="st0" d="M86.6,14.8H7.4c-4.1,0-7.4,3.3-7.4,7.4v0.6v48.3v0.7c0,4.1,3.3,7.4,7.4,7.4h79.2c4.1,0,7.4-3.3,7.4-7.4v-0.7
		V22.8v-0.6C94,18.1,90.7,14.8,86.6,14.8z"/>
</g>
<g>
	<path class="st1" d="M86.6,14.8H7.4c-4.1,0-7.4,3.3-7.4,7.4v0.6v48.3v0.7c0,4.1,3.3,7.4,7.4,7.4h79.2c4.1,0,7.4-3.3,7.4-7.4v-0.7
		V22.8v-0.6C94,18.1,90.7,14.8,86.6,14.8z M89.1,71.1v0.7c0,1.4-1.1,2.5-2.5,2.5H7.4c-1.4,0-2.5-1.1-2.5-2.5v-0.7V22.8v-0.6
		c0-1.4,1.1-2.5,2.5-2.5h79.2c1.4,0,2.5,1.1,2.5,2.5v0.6V71.1z"/>
	<circle class="st1" cx="31.7" cy="46.7" r="2.5"/>
	<circle class="st1" cx="31.7" cy="26.6" r="2.5"/>
	<circle class="st1" cx="15.2" cy="36.5" r="2.5"/>
	<circle class="st1" cx="74.5" cy="26.6" r="2.5"/>
	<circle class="st1" cx="74.5" cy="56.3" r="2.5"/>
</g>
</svg>
