<?xml version="1.0" encoding="utf-8"?>
<!-- Generator: Adobe Illustrator 19.2.0, SVG Export Plug-In . SVG Version: 6.00 Build 0)  -->
<svg version="1.1" id="Layer_1" xmlns="http://www.w3.org/2000/svg" xmlns:xlink="http://www.w3.org/1999/xlink" x="0px" y="0px"
	 viewBox="0 0 94 94" style="enable-background:new 0 0 94 94;" xml:space="preserve" fill="#A32300">
<g>
	<path d="M84.3,37.3c-2.7-4.6-6.4-8.7-10.9-12c3.7-3.4,5.2-7.5,5.2-7.7c0.3-0.9-0.1-1.9-1-2.3c-0.8-0.4-1.9-0.1-2.3,0.7
		c-0.2,0.3-1.5,2.2-4.3,2.2c-1,0-2.2-0.2-3.6-0.9c-7-3.1-14.5-1.9-15.8-1.7h-1.1C49,11.9,44.1,1.1,38.5,0.1c-2-0.4-3.7,0.3-4.7,1.8
		c-1.2,1.8-1.3,5.4,0.8,8.5c0.8,1.2,1.8,2.9,2.9,4.9c-3.1-0.2-7.8,0.1-12.3,2.1c-5.4,2.4-7.6-1-7.9-1.4c-0.5-0.8-1.5-1.1-2.3-0.7
		c-0.8,0.4-1.3,1.3-1,2.2c0.1,0.2,1.5,4.8,5.2,8.7c-4.2,3.3-7.6,7.4-10.1,11.9c-2.9,5.4-4.4,11.2-4.4,17.3
		c0,10.4,4.4,20.1,12.4,27.4C25.2,90,35.8,94,47,94s21.8-4,29.8-11.3c8-7.3,12.4-17,12.4-27.4C89.2,49.1,87.5,42.8,84.3,37.3z
		 M26.7,20.8C26.2,21,25.9,21.1,26.7,20.8c5.1-2.3,10.5-1.9,12.8-1.6l0.2,0.5v0l2,4.7c0.4,0.9,1.5,1.3,2.4,1c0.9-0.4,1.4-1.5,1-2.4
		c-0.5-1.2-1.4-3.2-2-4.7c-0.2-0.5-0.4-1-0.5-1.2c0,0,0-0.1,0-0.1c0-0.1-0.1-0.1-0.1-0.2c-1.9-3.7-3.5-6.5-4.7-8.3
		c-1.2-1.7-1.3-3.8-0.8-4.5c0.1-0.1,0.2-0.3,1-0.2c2.5,0.5,6.9,7,9.8,14.5c0.3,0.7,1,1.2,1.7,1.2h2.5c0.1,0,0.3,0,0.4,0
		c0,0,1.9-0.4,4.6-0.4c2.6,0,6,0.4,9.2,1.8c2.2,1,4.1,1.3,5.6,1.2c-0.7,0.7-1.4,1.3-2.3,1.9c-3.8,2.6-8.6,3.1-14.2,1.5
		c-0.7-0.2-1.4,0-1.9,0.6c-0.5,0.5-0.6,1.3-0.3,1.9c0.3,0.6,0.8,1.1,1.6,1.9c1.4,1.4,3.7,3.7,4.9,7.5c-1.8-0.8-3.6-0.9-4.9-1
		c-0.6,0-1.2-0.1-1.5-0.2L53,36.1c-4.1-1.5-4.8-2.8-4.8-3.4c0-1-0.8-1.8-1.9-1.8c-1,0-1.8,0.8-1.8,1.8c0,1.6-4.6,4.4-6.5,5.1
		c-0.2,0.1-0.4,0.2-0.7,0.2c-1.1,0.3-2.3,0.8-3.8,1.7c1.3-3.8,3.5-6.5,4.9-8.1c0.7-0.8,1.1-1.3,1.3-1.8c0.3-0.7,0.2-1.4-0.3-1.9
		c-0.4-0.4-0.9-0.6-1.4-0.6c-0.2,0-0.3,0-0.5,0.1c-5.6,1.6-10.4,0.8-14.3-2.3h0c-1.2-0.9-2.1-2-2.9-3.1
		C22.1,22.1,24.2,21.9,26.7,20.8z M47,90.3c-21.3,0-38.6-15.7-38.6-35c0-10.4,5-20,13.7-26.7c2.6,1.8,5.6,2.8,8.7,3
		c0.9,0.1,1.9,0.1,2.8,0c-2.1,2.8-4.5,7.1-4.8,12.9c0,0.8,0.4,1.5,1.2,1.8c0.2,0.1,0.4,0.1,0.7,0.1c0.3,0,0.6-0.1,0.9-0.2
		c0.1,0,0.1-0.1,0.2-0.1c0.1-0.1,0.3-0.2,0.4-0.3c2.7-3.2,4.6-3.8,6.3-4.4c0.3-0.1,0.5-0.2,0.8-0.3c0.1,0,4.5-1.8,7.1-4.6
		c1.7,1.7,4.3,2.6,5.4,3l0.2,0.1c0.8,0.3,1.6,0.3,2.5,0.4c2,0.1,4.2,0.3,6.3,2.6c0.5,0.6,1.3,0.8,2.1,0.5c0.7-0.3,1.2-1,1.2-1.8
		c-0.3-5.3-2.3-9-4.2-11.4c2.9,0.2,5.9-0.2,8.6-1.3c0.7-0.3,1.5-0.7,2.2-1.1c4.5,3.1,8.2,7.1,10.8,11.6c2.9,5,4.4,10.6,4.4,16.2
		C85.6,74.6,68.3,90.3,47,90.3z"/>
	<path d="M47,83c-16.8,0-30.5-12.4-30.5-27.6c0-1-0.8-1.8-1.8-1.8c-1,0-1.8,0.8-1.8,1.8c0,17.2,15.3,31.3,34.1,31.3
		c1,0,1.8-0.8,1.8-1.8C48.8,83.8,48,83,47,83z"/>
	<path d="M54.6,82.2L54.6,82.2c-1,0-1.8,0.8-1.8,1.8c0,1,0.8,1.8,1.8,1.8c1,0,1.8-0.8,1.8-1.8C56.4,83,55.6,82.2,54.6,82.2z"/>
</g>
</svg>
